<?xml version="1.0" encoding="utf-8"?>
<!-- Generator: Adobe Illustrator 16.0.0, SVG Export Plug-In . SVG Version: 6.00 Build 0)  -->
<!DOCTYPE svg PUBLIC "-//W3C//DTD SVG 1.1//EN" "http://www.w3.org/Graphics/SVG/1.1/DTD/svg11.dtd">
<svg version="1.1" id="Ebene_1" xmlns="http://www.w3.org/2000/svg" xmlns:xlink="http://www.w3.org/1999/xlink" x="0px" y="0px"
	 width="295.194px" height="281.521px" viewBox="156.461 209.952 295.194 281.521"
	 enable-background="new 156.461 209.952 295.194 281.521" xml:space="preserve">
<g id="Pfad_5">
	<path fill="#666666" d="M160.344,488.412h287.64v-47.735c0,0-3.06-37.944-37.944-41.616c-34.884-3.672-55.079-11.017-57.527-28.765
		c-1.225-14.688-3.061-33.048,3.672-40.392c6.731-7.344,25.092-17.136,25.092-42.84s-6.731-73.44-68.544-73.44
		c-61.812,0-75.888,41.616-75.888,70.38c0,28.765,18.36,39.78,22.032,48.96c3.672,10.404,7.956,20.809,3.672,36.108
		c-3.061,11.628-13.464,30.6-48.96,30.6C174.42,400.284,155.448,429.66,160.344,488.412z"/>
	<path d="M451.044,491.472h-293.76v-3.061c-3.061-34.884,2.447-60.588,15.911-75.888c9.792-10.404,22.645-15.912,39.78-16.524
		c34.272,0,43.452-17.748,46.512-28.764c3.673-13.464,0.612-22.645-3.06-32.437l-0.612-1.836c-0.611-2.447-3.06-4.896-5.508-8.567
		c-6.731-8.568-16.523-20.809-16.523-41.616c0-17.136,5.508-72.828,79.56-72.828c46.512,0,71.604,26.316,71.604,76.5
		c0,22.032-12.852,33.048-20.808,40.393c-1.836,1.836-3.672,3.06-4.896,4.283c-6.12,6.732-4.284,26.929-3.06,37.944
		c1.836,14.688,17.748,22.032,54.468,25.704c37.332,3.672,41.004,44.064,41.004,44.676L451.044,491.472z M163.404,485.352h281.521
		v-44.676c0-1.225-3.061-35.496-35.496-38.557c-29.376-3.06-56.916-9.18-59.977-31.212c-1.836-17.136-3.06-34.884,4.284-42.84
		c1.224-1.836,3.061-3.061,5.508-4.896c7.956-6.731,18.973-16.523,18.973-35.495c0-46.513-22.032-70.381-65.484-70.381
		c-67.932,0-73.439,50.797-73.439,66.708c0,18.973,8.567,29.988,15.3,37.944c3.06,3.672,5.508,6.732,6.731,9.792l0.612,1.836
		c3.672,9.792,7.344,20.196,3.061,36.108c-3.061,12.239-14.076,33.048-52.021,33.048c-15.3,0-26.928,4.896-35.496,14.688
		C165.852,430.885,160.956,453.528,163.404,485.352z"/>
</g>
</svg>
