<?xml version="1.0" encoding="utf-8"?>
<!-- Generator: Adobe Illustrator 21.0.0, SVG Export Plug-In . SVG Version: 6.00 Build 0)  -->
<svg version="1.1" id="Ebene_1" xmlns="http://www.w3.org/2000/svg" xmlns:xlink="http://www.w3.org/1999/xlink" x="0px" y="0px"
	 viewBox="0 0 215.5 189.1" style="enable-background:new 0 0 215.5 189.1;" xml:space="preserve">
<style type="text/css">
	.st0{fill:#E6CAD4;}
	.st1{fill:#1D1D1B;}
	.st2{fill:#C8C8C8;}
	.st3{fill:#CDA4B4;}
	.st4{fill:#FFFFFF;}
	.st5{fill:#1A2233;}
</style>
<title>gonimo-gutenacht-nacht-07</title>
<g id="Ebene_4">
	<g id="logo">
		<path class="st0" d="M108.9,131.6c-20.8,8.3-44.6-2.2-53.1-23.4s1.3-45.3,22.1-53.7c12.5-5,26.7-3.4,37.7,4.3
			c-20.9-17-51.6-13.9-68.6,6.9c-17,20.9-13.9,51.6,6.9,68.6c20.9,17,51.6,13.9,68.6-6.9c6-7.3,9.7-16.3,10.7-25.7
			C130.8,115.1,121.6,126.4,108.9,131.6z"/>
		<path class="st1" d="M108.5,130.8c-20.4,7.8-43.3-1.9-51.9-22c-8.3-19.5-0.1-43.1,19.1-52.4c12.9-6.2,28.2-5.1,40.1,3
			c0.7,0.5,0.4-0.9,0.1-1.2C94.9,41,64,44,46.8,65c-6.1,7.4-9.8,16.4-10.9,25.9c-1.7,16.4,4.8,32.5,17.2,43.3
			c20.5,17.7,51.5,15.3,69.2-5.2c6.5-7.5,10.5-16.9,11.6-26.8c0-0.5-1-1.8-1.1-1C130.2,114.5,121.1,125.7,108.5,130.8
			c-0.5,0.3,0.3,1.7,0.9,1.4c12.7-5.3,21.9-16.7,24.6-30.2l-1.2-0.9c-2.8,26.6-26.6,45.9-53.2,43.1c-6.9-0.7-13.6-2.9-19.5-6.5
			c-14.5-8.7-23.3-24.4-23.2-41.3c0.2-26.7,22.1-48.2,48.8-48c10.9,0.1,21.5,3.9,30,10.8l0.1-1.2c-11-7.5-24.9-9.2-37.3-4.7
			c-10.3,3.9-18.6,11.9-22.9,22.1C47,95.7,55.9,120,75.1,130.2c10.6,5.7,23.2,6.4,34.3,2C109.9,132,109.1,130.6,108.5,130.8z"/>
		<path class="st2" d="M64.5,88.3c-5.2,6.5-7.9,14.7-7.4,23c0.9,13.6,6,16.2,13.8,20.4c0,0,3.8,7.2,11.1,7.3c3.4,0,7.3-1.9,8.4-3.6
			c0,0,3.6,2.9,5.9,2.7c3.6-0.1,6.9-1.9,9-4.9c0.7,0.9,1.9,1.1,2.8,0.4c0,0,0.1,0,0.1-0.1c0.3-0.3,0.6-0.6,0.7-1
			c0,0,1.5,2.4,3.2,1.1c1.1-0.9,1.8-2.1,1.9-3.5c0,0,1,1.8,1.5,1.7s2.6-0.1,3-4.5s-5.6-4.7-6.2-4.5c1.3-4.2,1.6-8.6,0.8-12.9
			c1.7,0.5,3.5-0.5,4-2.1c0,0,0,0,0-0.1l0.1-0.4c0.8-6.4,0.8-12.8,0.3-19.3c-0.8-5.3-2.8-15.5-8.2-18.3s-10.6-4.8-13.2-4.1
			s-4.3,2.6-6.1,5.4c-1.9,2.8-5,6.3-5.5,9.7c-2.6-0.5-5.3-0.6-7.9-0.3c0,0-4-18-12.7-27.4S47.3,38.6,42.7,38.8s-4.7,3.1-4.5,4
			s3.8,16.6,9.1,26.3s6.7,11.5,8.2,13.1S63.1,88.7,64.5,88.3z"/>
		<path class="st1" d="M70.7,105.9c-1.8-1.9-4.5-2.5-6.9-1.5c-0.8,0.3-1.5,0.7-2.1,1.2c-0.4,0.4-0.3,0,0.1,0h-1.2
			c-0.4,0-0.7,0.4-0.7,0.8c0,0.4,0.3,0.6,0.7,0.7c0.8,0.1,1.6-0.1,2.3-0.6c2-1.6,4.9-1.4,6.7,0.4c0.3,0.2,0.8,0.1,1-0.2
			C70.8,106.5,70.8,106.2,70.7,105.9L70.7,105.9z"/>
		<path class="st1" d="M94,102.3c0.8-1.1,2-1.9,3.4-2.1c1.7-0.3,2.8,0.6,4.2,1.4c0.6,0.3,1.3,0.4,2,0.3c0.4,0,0.7-0.4,0.7-0.8
			c0-0.4-0.3-0.6-0.7-0.7c-0.5,0.1-1.1-0.1-1.5-0.3c-0.6-0.4-1.3-0.8-2-1.1c-1.2-0.4-2.5-0.4-3.7-0.1c-1.5,0.5-2.7,1.4-3.6,2.7
			C92.2,102.3,93.5,103.1,94,102.3L94,102.3L94,102.3z"/>
		<circle class="st1" cx="79.7" cy="127.1" r="0.4"/>
		<circle class="st1" cx="79" cy="130.2" r="0.4"/>
		<circle class="st1" cx="80.7" cy="132.5" r="0.4"/>
		<circle class="st1" cx="97.7" cy="125.7" r="0.4"/>
		<circle class="st1" cx="98.8" cy="127.8" r="0.4"/>
		<circle class="st1" cx="97.3" cy="130.4" r="0.4"/>
		<path class="st0" d="M83.9,125.9c0.2,0.8,0.4,1.6,0.7,2.3c1.5,0.7,3.1,1.2,4.7,1.7c0,0,3.9-2.5,4.1-3.1c-0.1-0.8-0.3-1.6-0.6-2.4
			c-1.4-1.5-3.4-2.3-5.4-2c-1.9,0-3.5,1.5-3.5,3.4C83.9,125.9,83.9,125.9,83.9,125.9L83.9,125.9z"/>
		<path class="st0" d="M66.4,87.6c1.1-1.6,2.6-2.9,4.4-3.8c-0.8-1.7-1.5-3.6-1.9-5.5C68.1,75,63,59.6,56.1,51.6s-8.6-9.1-14.7-9.6
			c0,0,0.8,10.7,3.8,16.3s5.9,15.3,9.4,19.1C58.3,81.1,62.2,84.5,66.4,87.6z"/>
		<path class="st1" d="M71.5,83.6c-2-2.7-2-6.9-3.1-10.1c-1.6-4.5-3.5-8.8-5.7-13c-4.2-7.9-10.9-18.8-21.1-19
			c-0.4,0-0.7,0.1-0.9,0.5c0,9.8,4.5,19.3,8.7,28c1.8,4,4.4,7.7,7.5,10.8c2.8,2.5,6.2,4.3,8.8,7c0.3,0.3,1.7-0.1,1.4-0.4
			c-2.4-2.5-5.7-4.3-8.3-6.6c-3.5-3.3-6.2-7.2-8.1-11.6c-4-8.6-8.4-17.9-8.4-27.6l-0.9,0.5c5,0,9.2,3.7,12.4,7.3
			c3.5,4.1,6.4,8.7,8.8,13.6c1.9,3.8,3.5,7.7,4.9,11.8c0.9,2.9,1,6.6,2.9,9.1C70.4,84.3,71.8,84,71.5,83.6L71.5,83.6L71.5,83.6z"/>
		<path class="st0" d="M87.4,79.1c0,0,11.1,3.1,12.8,5.6l-2.4-12.5l-0.4-4.1c0,0-1.1-0.9-3.3,1C91.9,70.9,87.4,79.1,87.4,79.1z"/>
		<path class="st1" d="M140.1,131c-6.8-2.3-13.9-3.6-21.1-3.8c-0.1-0.7-0.5-1.4-0.9-2c-0.2-0.2-0.3-0.4-0.6-0.6
			c-1.2-1.1-2.7-1.7-4.3-1.8c0.5-1.8,0.8-3.6,0.9-5.5c4.1-1.5,8.3-2.7,12.6-3.6c0.6-0.1,0.4-0.6-0.1-0.5c-4.2,0.9-8.4,2-12.4,3.5
			c0.1-1.8-0.1-3.5-0.3-5.2c3.4,0.2,4-3.3,4.2-6.3c0.6-5.7,0.6-11.5-0.2-17.2c-0.8-5.2-2-11.1-5.4-15.4c-1.9-2.4-4.5-3.5-7.2-4.7
			s-5.7-2.6-8.6-2.4s-5.4,2.7-7,5c-2.2,3.1-5.1,6.3-6,10.1c-1.2-0.2-2.5-0.4-3.8-0.4c-1,0-2.1,0-3.1,0.1c-1.6-6.7-4-13.2-7.3-19.3
			c-2.7-4.8-6.2-9.1-10.4-12.8c-3.7-3.5-8-7.1-12.9-8.8c-2.6-0.9-6.9-1.3-8.4,1.7c-1,1.9,0,4.2,0.4,6c2.5,10.3,6.5,20.1,11.8,29.3
			c1.3,2.5,2.9,4.9,4.8,7c1.7,1.6,3.5,3.1,5.5,4.3c0.9,0.7,1.8,1.2,2.8,1.7c-6.4,8-8.2,19.5-5.9,29.2c0.3,1.3,0.8,2.5,1.3,3.7
			c-6.9-0.3-13.8-0.1-20.7,0.8c-0.5,0-0.7,0.7,0,0.6c7-0.9,14.1-1.1,21.1-0.8c1.1,2.1,2.7,4,4.5,5.5c-1.5,0.2-3,0.5-4.5,0.9
			c-0.6,0.1-0.4,0.8,0.2,0.6c1.7-0.5,3.4-0.8,5.1-1c0.4,0.3,0.7,0.5,1.1,0.8c1.3,0.8,3,1.5,4.3,2.4c-9.7,3.4-19,10-23.3,19.3
			c-0.2,0.5,0.7,0.5,0.8,0.1c4.3-9.1,13.5-15.6,23.1-18.9v0.2c1.2,1.2,2,2.7,3.2,3.9c4.5,4,12.6,5,16.9,0.1c1.7,1.5,3.9,2.4,6.2,2.5
			c3.4-0.3,6.5-1.9,8.6-4.5c1.1,0.8,2.7,0.6,3.5-0.5l0,0c2,2,4.3,0.5,5.3-2c0.5,0.6,1.3,0.8,2.1,0.6c1.9-0.5,2.6-2.8,2.8-4.5
			c0-0.3,0-0.7,0-1c6.9,0.3,13.8,1.6,20.4,3.8C139.7,131.4,140.5,131.1,140.1,131z M114.1,124.5c0.9,0.2,2.7,0.6,3,1.7
			c0.1,0.2,0.3,0.4,0.5,0.5v0.4c-4.4-0.1-8.8,0.3-13.1,1.1c0.5-0.9,1.1-1.7,1.9-2.3c1.3-0.1,2.6,0.1,3.9,0.6
			c0.3,0.1,1.1-0.3,0.7-0.4c-1.2-0.5-2.5-0.7-3.8-0.7C109.3,124.3,111.7,123.9,114.1,124.5L114.1,124.5z M105,122.1
			c2.4-1.7,4.9-3.1,7.5-4.2c-0.2,1.7-0.5,3.3-1,4.9c-2.1,0-4.1,0.6-5.9,1.7l-0.2,0.2C105.4,123.8,105.2,122.9,105,122.1L105,122.1z
			 M65.3,128.5c-1.6-1.1-3-2.4-4.2-4c-0.3-0.4-0.5-0.7-0.7-1.1c2.1,0.2,4.2,0.4,6.3,0.8c1,0.2,2,0.4,3,0.6c-0.1,1.2-0.2,2.4-0.1,3.5
			C68.2,128.3,66.7,128.3,65.3,128.5z M67.2,129.7l-0.9-0.6c1.2-0.1,2.3-0.1,3.5-0.1c0.1,0.8,0.3,1.6,0.6,2.4
			C69.3,130.8,68.1,130.3,67.2,129.7z M96.4,138c-2.1-0.1-4.1-1-5.7-2.5l-0.9-4.7c0.3-0.1,0.6-0.4,0.9-0.6c0.9-0.6,2.7-1.5,3.1-2.6
			c0.9-2.3-1.8-4.3-3.6-4.8c-2.7-0.8-7.3,0.4-6.9,4c0.1,1.1,0.5,2.1,1.3,2.8c1.3,0.7,2.7,1.2,4.2,1.4l0,0l0.8,4.5
			c-2.8,3.7-8.8,4.2-12.7,2.2c-2.2-1.3-4-3.1-5.4-5.1l-0.1-0.1c1.2-0.4,2.4-0.7,3.7-1c0.6-0.1,0.4-0.8-0.2-0.6
			c-1.2,0.3-2.4,0.6-3.6,1c-0.4-0.9-0.6-1.8-0.8-2.8c0.9,0,1.8,0.1,2.7,0.3c0.5,0,0.9-0.6,0.3-0.7c-1-0.1-2-0.2-3-0.3
			c-0.1-1.1-0.1-2.3,0-3.4c1.5,0.4,2.9,0.9,4.2,1.8c0.3,0.2,1.1-0.2,0.7-0.5c-1.5-0.9-3.1-1.5-4.8-1.9V124c0.6-4.3,1.2-8.5,1.7-12.8
			c0.7-4-0.1-8.1-2.1-11.6c-1.2-2-2.6-3.8-4.3-5.5c-0.2-0.2-1,0.2-0.8,0.3c1.8,1.8,3.3,3.8,4.5,6c2.2,3.9,2.2,7.4,1.7,11.8
			c-0.5,4-1,7.9-1.5,11.8c-0.8-0.2-1.7-0.4-2.4-0.5c-2.4-0.5-4.9-0.8-7.4-1c-3.2-6.3-3-14.8-1.1-21.3c1.1-4.3,3.2-8.3,6-11.7
			c0.2-0.2,0.2-0.6,0-0.8c-0.1-0.3-0.4-0.4-0.7-0.4c-1.4,0.2-3.6-1.8-4.5-2.5c-1.4-1-2.8-2-4-3.2c-1.4-1.5-2.6-3.2-3.6-5
			c-5-8.2-8.9-17.1-11.4-26.4c-0.9-2.4-1.5-5-1.9-7.5c-0.4-4.3,5.4-3.6,8-2.6c4.3,2,8.2,4.8,11.6,8.2c4,3.6,7.4,7.8,10,12.5
			c3.2,6.1,5.6,12.6,7.1,19.3c0.1,0.4,0.4,0.7,0.8,0.7c1.9-0.2,3.9-0.2,5.8,0c0.6,0.1,1.3,0.1,1.9,0.3c2.8,0.7,5.6,1.6,8.3,2.7
			c0.9,0.4,1-1,0.3-1.3c-2.5-1-5-1.8-7.5-2.5c1-3.4,3.5-6.3,5.5-9.1c2.4-3.4,5.1-5.6,9.4-4.5c3.4,0.9,8,2.5,10.6,4.9
			c2.2,2.4,3.7,5.2,4.4,8.4c1.6,5.4,2.3,10.9,2.2,16.5c0,2.9-0.1,5.7-0.4,8.6c-0.2,2.2-0.7,4.7-3.4,4.3c-0.5-0.6-1-1.2-1.4-1.9
			c-1.5-2.3-2.8-4.7-4-7.1c-3.9-7.3-6.7-15.1-8.6-23.2c-0.5-2.2-0.9-4.3-1.1-6.5c-0.1-0.6,0-2.4-0.4-2.8c-0.5-0.2-1.1-0.2-1.6,0
			c-4.5,1.3-7.2,7.9-9.1,11.5c-0.2,0.4,0.7,0.3,0.9,0c1.5-3.6,3.6-6.8,6.2-9.6c0.5-0.5,2-1.9,2.8-1.5c0.4,0.2,0.6,5.3,0.7,6
			c0.4,2.3,0.9,4.5,1.5,6.8c1.2,4.2,2.6,8.4,4.4,12.4c2.2,5.4,4.9,10.5,8.1,15.4c0.2,0.3,0.5,0.6,0.7,0.9c0,0.1,0,0.2,0,0.3
			c0.4,2.2,0.6,4.4,0.4,6.6c-2.8,1.1-5.4,2.5-7.8,4.2c-1.7-5.6-5-10.7-9.3-14.7c-0.2-0.1-1,0.2-0.8,0.3c4.4,4.1,7.6,9.2,9.4,15
			c-1,0.7-1.9,1.5-2.9,2.4c-0.4,0.4,0.5,0.4,0.7,0.2c0.7-0.7,1.5-1.4,2.3-2c0.2,0.9,0.4,1.8,0.6,2.7l-0.3,0.3
			c-1.1,0.2-2.2,0.5-3.2,1c-0.6,0.2,0,0.6,0.4,0.4c0.8-0.3,1.5-0.6,2.3-0.8c-0.5,0.8-0.9,1.6-1.2,2.5c-0.7,0.2-1.4,0.3-2.1,0.5
			s-0.4,0.5,0.1,0.4s1.3-0.3,1.9-0.5c-0.4,1.8,0.1,3.6,1.4,4.9C102.2,136.4,99.4,137.8,96.4,138L96.4,138z M91.7,124.9
			c0.4,0.3,0.7,0.7,0.9,1.2c0.6,1.5-0.3,2-1.5,2.9c-0.6,0.4-1.1,0.8-1.8,1.2h-0.1c-0.4-0.1-0.8-0.3-1.2-0.4
			c-0.9-0.2-1.8-0.5-2.6-0.9c-0.6-0.6-1-1.4-1-2.3C84,122.8,89.9,123.4,91.7,124.9L91.7,124.9z M114.5,130.6
			c-0.2-0.4-1.1-0.8-1.3-0.1c-0.4,1.9-2.3,4.8-3.9,2.3c-0.2-0.3-0.6-0.4-0.9-0.2c-0.1,0-0.1,0.1-0.1,0.1c-0.4,0.9-1.3,1.3-2.2,0.9
			c0,0,0,0,0,0c-0.1-0.1-0.2-0.1-0.3-0.2l0,0c-1.5-1.1-1.9-3.1-1.2-4.7c4.4-0.9,8.9-1.2,13.3-1.1C117.7,130,116,133.3,114.5,130.6
			L114.5,130.6z"/>
		<path class="st0" d="M26.7,177.7c0,1.6-0.3,3.2-0.9,4.6c-1.2,2.8-3.4,4.9-6.3,5.9c-1.6,0.6-3.3,0.9-5,0.8c-2,0-4-0.3-5.8-0.9
			c-1.9-0.7-3.6-1.7-5-3.1l2.8-3.5c1,1.1,2.2,2,3.6,2.7c1.4,0.6,2.9,0.9,4.4,0.9c1.3,0,2.7-0.2,3.9-0.7c1.8-0.8,3.2-2.3,3.8-4.2
			c0.3-0.9,0.4-1.9,0.4-2.8v-3.3h-0.2c-0.8,1.3-1.9,2.4-3.3,3c-1.4,0.7-2.9,1-4.4,1c-1.6,0-3.1-0.3-4.5-0.9
			c-1.3-0.6-2.6-1.4-3.6-2.4c-1-1-1.8-2.3-2.3-3.6c-0.6-1.4-0.9-3-0.8-4.5c0-1.5,0.3-3.1,0.8-4.5c0.5-1.4,1.3-2.6,2.3-3.7
			c1-1.1,2.2-1.9,3.6-2.5c1.5-0.6,3.1-0.9,4.7-0.9c1.5,0,3,0.3,4.4,1c1.4,0.6,2.5,1.6,3.3,2.8h0.1v-3.2h4.2v22.1L26.7,177.7z
			 M15.1,159c-1,0-2,0.2-3,0.6c-0.9,0.4-1.7,0.9-2.3,1.6c-0.7,0.7-1.2,1.5-1.5,2.5c-0.3,1-0.5,2.1-0.5,3.1c-0.1,2,0.6,3.9,2,5.4
			c3,2.7,7.7,2.7,10.7,0c1.4-1.5,2.1-3.4,2-5.4c0-1.1-0.2-2.1-0.5-3.1c-0.3-0.9-0.8-1.7-1.5-2.5c-0.6-0.7-1.4-1.2-2.3-1.6
			C17.2,159.2,16.2,159,15.1,159L15.1,159z"/>
		<path class="st0" d="M31.9,166.8c0-1.6,0.3-3.1,0.9-4.5c2.6-6,9.5-8.8,15.5-6.3c1.4,0.6,2.7,1.5,3.8,2.6c4.6,4.6,4.6,12,0,16.6
			c0,0,0,0,0,0c-1.1,1.1-2.4,1.9-3.8,2.5c-4.4,1.8-9.6,0.9-13-2.5C33.2,172.9,31.9,169.9,31.9,166.8z M36.5,166.8
			c0,1.1,0.2,2.1,0.5,3.1c0.3,0.9,0.8,1.7,1.5,2.5c0.6,0.7,1.4,1.2,2.2,1.6c1.9,0.8,4.1,0.8,6,0c0.9-0.4,1.7-0.9,2.4-1.6
			c0.7-0.7,1.2-1.5,1.5-2.5c0.7-2,0.7-4.2,0-6.3c-0.7-1.8-2.1-3.3-3.9-4c-1.9-0.8-4.1-0.8-6,0c-0.9,0.4-1.7,0.9-2.3,1.6
			c-0.7,0.7-1.2,1.5-1.5,2.5C36.6,164.7,36.4,165.7,36.5,166.8L36.5,166.8z"/>
		<path class="st0" d="M60.8,155.7H65v3.4h0.1c0.6-1.3,1.5-2.3,2.8-3c1.4-0.8,3-1.1,4.5-1.1c1,0,2,0.2,3,0.5c1,0.3,1.8,0.8,2.6,1.5
			c0.8,0.7,1.4,1.7,1.8,2.6c0.5,1.2,0.7,2.5,0.7,3.8v14.3h-4.2v-13.1c0-0.9-0.1-1.8-0.4-2.6c-0.2-0.7-0.6-1.3-1.1-1.8
			c-0.5-0.4-1-0.8-1.6-1c-0.6-0.2-1.2-0.3-1.9-0.3c-0.8,0-1.7,0.1-2.4,0.4c-0.8,0.3-1.4,0.7-2,1.3c-0.6,0.7-1.1,1.5-1.3,2.3
			c-0.3,1.1-0.5,2.2-0.5,3.4V178h-4.1V155.7z"/>
		<path class="st0" d="M86.9,155.7h4.2V178h-4.2V155.7z"/>
		<path class="st0" d="M97.7,155.7h3.9v3.5h0.1c0.2-0.4,0.4-0.8,0.7-1.2c0.4-0.5,0.9-1,1.5-1.3c0.7-0.5,1.4-0.8,2.2-1.1
			c0.9-0.3,1.8-0.5,2.7-0.5c1.5-0.1,2.9,0.3,4.2,1c1.2,0.8,2.1,1.8,2.8,3.1c0.7-1.3,1.7-2.4,3-3.1c1.2-0.7,2.6-1,4-1
			c1.5-0.1,2.9,0.2,4.2,0.8c1,0.5,1.9,1.3,2.6,2.2c0.6,1,1.1,2,1.3,3.1c0.2,1.2,0.4,2.4,0.4,3.6V178h-4.2v-12.4
			c0-0.8-0.1-1.6-0.2-2.5c-0.1-0.7-0.3-1.4-0.7-2.1c-0.4-0.6-0.9-1.1-1.5-1.4c-2.3-1.1-5.1-0.5-6.8,1.3c-0.9,1.4-1.4,3.1-1.3,4.8
			v12.1h-4.2v-11.6c0-1-0.1-1.9-0.2-2.9c-0.1-0.8-0.3-1.6-0.7-2.3c-0.3-0.6-0.8-1.2-1.4-1.5c-0.8-0.4-1.6-0.6-2.4-0.5
			c-0.8,0-1.5,0.2-2.2,0.5c-0.7,0.3-1.3,0.8-1.9,1.3c-0.6,0.7-1,1.4-1.3,2.3c-0.3,1.1-0.5,2.2-0.5,3.3v11.5h-4.2L97.7,155.7
			L97.7,155.7L97.7,155.7z"/>
		<path class="st0" d="M136.4,166.8c0-1.6,0.3-3.1,0.9-4.5c2.6-6,9.5-8.8,15.5-6.3c1.4,0.6,2.7,1.5,3.8,2.6c4.6,4.6,4.6,12,0,16.6
			c0,0,0,0,0,0c-1.1,1.1-2.4,1.9-3.8,2.5c-4.4,1.8-9.6,0.9-13-2.5C137.6,172.9,136.4,169.9,136.4,166.8z M140.9,166.8
			c0,1.1,0.2,2.1,0.5,3.1c0.3,0.9,0.8,1.7,1.5,2.5c0.6,0.7,1.4,1.2,2.3,1.6c1.9,0.8,4.1,0.8,6,0c0.9-0.4,1.7-0.9,2.3-1.6
			c0.7-0.7,1.2-1.5,1.5-2.5c0.7-2,0.7-4.2,0-6.3c-0.3-0.9-0.8-1.7-1.5-2.5c-0.6-0.7-1.4-1.2-2.3-1.6c-1.9-0.8-4.1-0.8-6,0
			c-0.9,0.4-1.7,0.9-2.3,1.6c-0.7,0.7-1.2,1.5-1.5,2.5C141.1,164.6,140.9,165.7,140.9,166.8L140.9,166.8z"/>
	</g>
	<g id="Ebene_4-2">
		<path class="st3" d="M89.8,69.2c0,0-10.1-15.1-32.4-16.6c-5.5-0.4-14.4-0.8-18.9,1.9s-4.5,3-10.4,13.9
			c-5.8,10.9-11.6,25-16.8,56.7l2.6,1.7l2.3,2l2.7-2.4c0,0,10.2-25.3,21.5-38.7c0,0,3,1.3,5,5.7l5.3,2.9L89.8,69.2z"/>
		<path d="M90,69.1c-0.8-1.2-1.6-2.3-2.6-3.3c-0.9-1.1-1.9-2.1-3-3c-2.1-1.9-4.4-3.6-6.8-5c-1.2-0.7-2.5-1.3-3.8-2
			c-1.3-0.6-2.6-1.1-4-1.5c-2.7-0.9-5.4-1.6-8.2-2L59.5,52l-2.1-0.2c-1.4-0.1-2.8-0.2-4.2-0.2c-2.8-0.1-5.6,0-8.4,0.3
			c-1.4,0.2-2.8,0.5-4.2,0.9c-0.7,0.2-1.4,0.5-2,0.9l-0.3,0.1L38,54l-0.4,0.3c-0.3,0.2-0.6,0.4-0.9,0.6c-0.6,0.4-1.2,0.9-1.8,1.3
			c-0.5,0.5-1,1.1-1.5,1.7c-0.8,1.2-1.6,2.4-2.2,3.6c-0.7,1.2-1.3,2.4-2,3.7s-1.3,2.4-2,3.7c-1.3,2.5-2.5,5-3.6,7.6
			s-2.1,5.2-3.1,7.8c-0.5,1.3-0.9,2.6-1.3,4s-0.8,2.7-1.2,4s-0.8,2.7-1.1,4s-0.7,2.7-1,4.1l-0.9,4.1l-0.8,4
			c-0.5,2.7-1.1,5.5-1.5,8.2s-0.9,5.5-1.3,8.3l0,0v0.1l0.1,0.1l2.6,1.7l0.1,0.1h0.1l2.7-0.8l2.2,0.4l0,0h0.1l0.1-0.1
			c0.8-1.7,1.5-3.4,2.3-5c0.4-0.8,0.8-1.7,1.2-2.5l1.2-2.5l1.2-2.5c0.4-0.8,0.8-1.7,1.3-2.5l1.3-2.5l1.3-2.5l1.3-2.5l0.7-1.2
			l0.7-1.2c0.5-0.8,0.9-1.6,1.4-2.4l1.4-2.4c0.5-0.8,1-1.5,1.5-2.3l0.8-1.2l0.8-1.1l0.8-1.1l0.4-0.6c0.1-0.2,0.3-0.4,0.4-0.5
			c0.5-0.7,1-1.3,1.5-2c0,0,0,0,0.1,0c0.2,0.1,0.4,0.2,0.6,0.4l0.2,0.1c0.2,0.1,0.4,0.3,0.6,0.5c0.3,0.3,0.7,0.7,1,1l0.3,0.4
			l0.3,0.4c0.1,0.1,0.2,0.2,0.3,0.4l0.3,0.4l0.3,0.4c0.2,0.3,0.3,0.5,0.5,0.8s0.3,0.5,0.5,0.8l0,0v0.1l0,0l5.3,2.9l0.1,0.1l0.1-0.1
			L90,69.1L90,69.1z M50.9,96.2l-5.1-2.9c-0.1-0.1-0.1-0.3-0.1-0.4l-0.2-0.5c-0.1-0.3-0.3-0.6-0.4-0.9l-0.3-0.4l-0.3-0.4
			c-0.2-0.3-0.4-0.5-0.6-0.8s-0.4-0.5-0.7-0.7c-0.1-0.1-0.3-0.3-0.4-0.4c-0.1-0.1-0.2-0.2-0.4-0.3c-0.2-0.2-0.4-0.3-0.6-0.4
			c-0.2-0.2-0.5-0.4-0.8-0.6s-0.5-0.3-0.7-0.5l-0.8-0.5c-0.1-0.1-0.3-0.1-0.5-0.2s-0.3-0.1-0.5-0.2l-1-0.4c-0.3-0.1-0.7-0.3-1-0.4
			c-0.3-0.1-0.7-0.2-1-0.3l-0.9-0.3c-0.3-0.1-0.6-0.1-0.8-0.2s-0.5-0.1-0.7-0.1l-0.6-0.1l-0.5-0.1l-0.1,0.4c0.2,0,0.3,0.1,0.5,0.1
			l0.6,0.1c0.2,0.1,0.4,0.1,0.7,0.2s0.5,0.1,0.8,0.3s0.6,0.2,0.9,0.3l1,0.4l1,0.4l1,0.4c0.3,0.1,0.6,0.3,0.9,0.5
			c0.3,0.1,0.6,0.3,0.8,0.4s0.2,0.1,0.4,0.2c-0.5,0.6-1.1,1.3-1.6,1.9l-0.4,0.5l-0.5,0.5l-0.8,1.1l-0.8,1.1l-0.8,1.1
			c-0.5,0.8-1.1,1.5-1.6,2.3l-1.6,2.4c-0.5,0.8-1,1.6-1.4,2.4l-0.7,1.2l-0.7,1.2c-0.4,0.8-0.9,1.6-1.3,2.5l-1.3,2.5l-1.3,2.5
			c-0.4,0.8-0.8,1.7-1.2,2.5l-0.6,1.3l-0.6,1.3l-1.1,2.5c-0.4,0.8-0.8,1.7-1.1,2.6l-1,2.6c-0.3,0.8-0.6,1.6-1,2.5l-2.2-0.4h-0.1
			l-2.6,0.8l-2.4-1.6c0.5-2.7,1-5.4,1.5-8.1s1.1-5.5,1.7-8.2l0.9-4.1l1-4l1.1-4l1.1-4c0.4-1.3,0.8-2.6,1.3-4s0.9-2.6,1.4-3.9
			c0.9-2.6,2-5.2,3.1-7.7s2.4-5,3.7-7.5s2.6-4.9,4-7.3c0.6-1.2,1.4-2.4,2.2-3.5c0.4-0.5,0.8-1,1.3-1.5c0.5-0.4,1-0.8,1.6-1.2
			l0.9-0.6l0.4-0.3l0.2-0.1l0.2-0.1c0.6-0.3,1.2-0.6,1.8-0.8c1.3-0.4,2.6-0.7,4-0.8c2.7-0.3,5.5-0.4,8.2-0.3
			c1.4,0.1,2.8,0.1,4.2,0.2l2.1,0.2l2,0.3c2.7,0.4,5.4,1.1,8,1.9c5.2,1.7,10.1,4.4,14.4,7.8c2.1,1.7,4.1,3.6,5.8,5.7L50.9,96.2z"/>
		<path class="st4" d="M11.5,125.2c0,0-4.4-0.5-4.2,3.1c0,0-4,2.7-5,6.4c0,0-2.6,4.2-1.8,6.2s1.3,4.5,3.8,4.9c0,0,3.1,4.2,4.7,4.2
			s3.5,1,5,0.3s2.2-1.9,3.8-2s2.9-0.4,4.2-4c0.9-0.4,1.6-1.1,2.2-1.9c0.5-1.1,0.3-2.7,1.2-3.7c0.9-0.9,1-2.3,0.3-3.4
			c-0.7-0.7-1.1-1.6-1-2.6c-0.1-1.1-1-1.9-2.1-1.9c-0.1,0-0.2,0-0.2,0c-1.1,0.1-2-0.7-2.1-1.7c0,0,0,0,0,0c-0.2-1.4,0.3-3-3.4-2.9
			c-1.1,0.7-2.6,0.7-3.7,0C12.6,125.8,12.3,125.3,11.5,125.2z"/>
		<path d="M11.5,125.3c-0.5-0.1-1-0.1-1.5,0c-0.5,0.1-0.9,0.2-1.4,0.5c-0.1,0.1-0.2,0.1-0.3,0.2l-0.3,0.2c-0.1,0.1-0.2,0.2-0.2,0.3
			c-0.1,0.1-0.1,0.2-0.2,0.3c0,0.1-0.1,0.2-0.1,0.3l-0.1,0.4c0,0.2,0,0.5,0,0.7v0.1l-0.1,0.1c-0.3,0.2-0.6,0.4-0.8,0.6
			c-0.3,0.2-0.5,0.4-0.8,0.7c-0.1,0.1-0.2,0.2-0.4,0.4l-0.3,0.4c-0.1,0.1-0.2,0.2-0.3,0.4c-0.1,0.1-0.2,0.2-0.3,0.4l-0.3,0.4
			c-0.1,0.1-0.2,0.2-0.3,0.4c-0.1,0.1-0.2,0.3-0.3,0.4l-0.3,0.4L3,133.2c-0.1,0.2-0.1,0.3-0.2,0.5c-0.1,0.2-0.1,0.3-0.2,0.5
			l-0.2,0.5v0.1c-0.6,0.9-1,1.9-1.4,2.9L0.9,138l-0.1,0.4l-0.1,0.4l-0.1,0.4c0,0.1-0.1,0.3-0.1,0.4v0.4v0.4c0,0.1,0.1,0.2,0.1,0.4
			l0.6,1.5c0.1,0.3,0.2,0.5,0.3,0.8s0.2,0.5,0.4,0.7s0.2,0.2,0.2,0.4l0.2,0.3l0.3,0.3l0.3,0.3c0.1,0.1,0.2,0.1,0.3,0.2l0.3,0.2
			c0.1,0,0.2,0.1,0.4,0.1l0.4,0.1h0.1v0.1l0,0c0.6,0.7,1.2,1.4,1.8,2.1c0.3,0.3,0.6,0.6,1,0.9c0.3,0.3,0.7,0.5,1.1,0.8
			c0.2,0.1,0.4,0.2,0.6,0.2h0.7c0.5,0,1,0.1,1.4,0.2c0.4,0.1,0.9,0.2,1.3,0.2c0.4,0,0.8,0,1.2-0.1l0.3-0.1c0,0,0,0,0.1,0h0.1
			l0.2-0.1c0.1-0.1,0.2-0.1,0.3-0.1l0.3-0.2c0.4-0.3,0.7-0.5,1.1-0.8c0.4-0.3,0.9-0.5,1.4-0.7l0.4-0.1h0.4c0.2,0,0.4,0,0.6-0.1
			c0.4-0.1,0.8-0.2,1.1-0.4c0.3-0.2,0.6-0.5,0.8-0.9c0.1-0.2,0.2-0.4,0.3-0.5s0.2-0.4,0.3-0.6l0.3-0.6c0.1-0.2,0.2-0.4,0.3-0.6
			l0.1-0.2h0.1l0,0c0.4-0.2,0.8-0.5,1.2-0.8c0.2-0.2,0.4-0.3,0.5-0.5c0.1-0.1,0.2-0.2,0.2-0.3c0,0,0.1-0.1,0.1-0.1l0.1-0.2
			c0.1-0.5,0.3-1,0.3-1.5c0.1-0.6,0.2-1.1,0.5-1.6c0.1-0.1,0.1-0.3,0.2-0.4l0.3-0.3c0.1-0.2,0.3-0.4,0.3-0.6
			c0.2-0.4,0.2-0.9,0.2-1.3c0-0.2-0.1-0.4-0.2-0.6c-0.1-0.2-0.3-0.4-0.4-0.6c-0.2-0.2-0.3-0.5-0.5-0.7c-0.1-0.3-0.2-0.6-0.2-0.8
			c0-0.3,0-0.5-0.1-0.8c0-0.2-0.1-0.5-0.2-0.7c-0.2-0.4-0.6-0.7-1-0.8c-0.2,0-0.5-0.1-0.7-0.1h-0.2h-0.2c-0.1,0-0.3,0-0.4-0.1
			c-0.6-0.1-1.1-0.5-1.4-1c-0.1-0.3-0.2-0.5-0.3-0.8V129v-0.1v-0.2v-0.4c0-0.2,0-0.5-0.1-0.7c0-0.2-0.1-0.4-0.3-0.6
			c-0.1-0.1-0.1-0.2-0.2-0.2c-0.1-0.1-0.2-0.1-0.3-0.1c-0.2-0.1-0.5-0.1-0.7-0.2c-0.5-0.1-1-0.1-1.5-0.1l0,0l0.2-0.1
			c-0.1,0.1-0.2,0.1-0.3,0.2l-0.3,0.1c-0.2,0.1-0.5,0.1-0.8,0.2c-0.1,0-0.3,0-0.4,0h-0.4c-0.1,0-0.3,0-0.4-0.1l-0.4-0.1l-0.3-0.1
			l-0.3-0.2c-0.1-0.1-0.2-0.1-0.3-0.2c-0.1-0.1-0.2-0.2-0.3-0.2c-0.2-0.2-0.3-0.3-0.6-0.4C11.9,125.5,11.7,125.4,11.5,125.3z
			 M11.5,125c0.3,0,0.5,0.1,0.7,0.3c0.2,0.1,0.4,0.3,0.6,0.5c0.1,0.1,0.2,0.1,0.3,0.2l0.3,0.2c0.1,0.1,0.2,0.1,0.3,0.1
			c0.1,0,0.2,0.1,0.3,0.1c0.1,0,0.2,0,0.3,0.1s0.2,0,0.3,0c0.1,0,0.2,0,0.3,0c0.1,0,0.2,0,0.3-0.1l0.3-0.1c0.1,0,0.2-0.1,0.3-0.1
			c0.1,0,0.2-0.1,0.3-0.1c0.1,0,0.2-0.1,0.3-0.2h0.1h0.1l0,0c0.5,0,1.1,0,1.6,0.1c0.3,0,0.6,0.1,0.8,0.2c0.2,0.1,0.3,0.1,0.4,0.2
			c0.1,0.1,0.2,0.2,0.3,0.3c0.2,0.2,0.3,0.5,0.4,0.8c0.1,0.3,0.1,0.5,0.1,0.8v0.4v0.2v0.1v0.1c0,0.2,0.1,0.4,0.2,0.6
			c0.3,0.4,0.7,0.6,1.1,0.7c0.1,0,0.2,0,0.3,0h0.4c0.3,0,0.6,0,0.8,0.1c0.3,0.1,0.6,0.2,0.8,0.4c0.2,0.2,0.4,0.4,0.6,0.7
			c0.1,0.1,0.1,0.3,0.2,0.4c0,0.2,0,0.3,0.1,0.4s0,0.5,0.1,0.8c0,0.2,0.1,0.5,0.2,0.7c0.1,0.2,0.2,0.4,0.4,0.6
			c0.2,0.2,0.3,0.4,0.5,0.7c0.1,0.3,0.3,0.5,0.3,0.8c0.1,0.6,0.1,1.2-0.2,1.7c-0.1,0.3-0.3,0.5-0.4,0.8l-0.2,0.3
			c-0.1,0.1-0.1,0.2-0.2,0.3c-0.2,0.4-0.3,0.9-0.4,1.4c-0.1,0.6-0.2,1.1-0.3,1.6l-0.1,0.2c0,0.1-0.1,0.1-0.1,0.2
			c-0.1,0.1-0.2,0.3-0.3,0.4c-0.2,0.2-0.4,0.4-0.6,0.6c-0.4,0.4-0.9,0.7-1.4,0.9l0,0l0.2-0.2l-0.2,0.7c-0.1,0.2-0.2,0.5-0.2,0.7
			c-0.2,0.5-0.4,0.9-0.7,1.3c-0.3,0.4-0.7,0.8-1.1,1.1c-0.5,0.3-1,0.5-1.5,0.5c-0.2,0-0.5,0.1-0.7,0.1h-0.3c-0.1,0-0.2,0-0.3,0.1
			c-0.4,0.1-0.8,0.3-1.1,0.5c-0.3,0.2-0.7,0.5-1.1,0.8l-0.3,0.2c-0.1,0.1-0.2,0.1-0.3,0.2c-0.2,0.1-0.5,0.2-0.7,0.3
			c-0.5,0.1-1,0.2-1.5,0.1c-0.5-0.1-1-0.2-1.4-0.3c-0.4-0.1-0.9-0.2-1.3-0.3c-0.1,0-0.2,0-0.3,0H8.9c-0.1,0-0.2,0-0.2,0
			c-0.3,0-0.5-0.1-0.8-0.3c-0.4-0.3-0.8-0.5-1.2-0.9c-0.3-0.3-0.7-0.7-1-1c-0.6-0.7-1.2-1.4-1.8-2.2l0,0l0.1,0.1l-0.4-0.1
			c-0.1,0-0.3-0.1-0.4-0.1l-0.4-0.2c-0.1-0.1-0.2-0.1-0.4-0.2c-0.2-0.2-0.4-0.4-0.6-0.6l-0.3-0.4c-0.1-0.1-0.2-0.2-0.2-0.4
			c-0.1-0.2-0.3-0.5-0.4-0.8c-0.1-0.3-0.2-0.5-0.3-0.8l-0.6-1.6c0-0.1-0.1-0.3-0.1-0.4V140v-0.4c0-0.1,0-0.3,0.1-0.4
			c0-0.1,0.1-0.3,0.1-0.4c0-0.1,0.1-0.3,0.1-0.4l0.1-0.4l0.2-0.4c0.2-0.5,0.4-1,0.7-1.5c0.2-0.5,0.5-1,0.8-1.5v0.1l0.2-0.5
			c0.1-0.2,0.1-0.3,0.2-0.5c0.1-0.1,0.1-0.3,0.2-0.5l0.2-0.5l0.3-0.4c0.1-0.2,0.2-0.3,0.3-0.4c0.1-0.1,0.2-0.3,0.3-0.4l0.3-0.4
			c0.3-0.3,0.4-0.5,0.7-0.8c0.1-0.1,0.2-0.3,0.4-0.4c0.1-0.1,0.2-0.2,0.4-0.4c0.3-0.2,0.5-0.5,0.8-0.7c0.3-0.2,0.5-0.4,0.8-0.6
			L7,128.2c0-0.3,0-0.5,0.1-0.8c0-0.1,0.1-0.3,0.1-0.4c0-0.1,0.1-0.3,0.2-0.4c0.1-0.1,0.1-0.2,0.2-0.4c0.1-0.1,0.2-0.2,0.3-0.3
			c0.1-0.1,0.2-0.2,0.3-0.3l0.3-0.2c0.5-0.3,1-0.4,1.5-0.5l0.8-0.1C10.9,125,11.2,125,11.5,125L11.5,125z"/>
	</g>
	<path class="st4" d="M45.3,93.9c0,0,11.4-18.4,44.5-24.6c1-0.1,2,0.1,2.8,0.6c1.1,0.6,6.1,10.1,6.1,10.1s1.8,3.2-2.1,4.1
		c-4.3,1.1-23.3,8.3-41.5,23.2c-1.3,0.4-2.8,0-3.6-1.1c-1.7-2-7.2-9.5-7.2-9.5C44.3,95.6,44.6,94.6,45.3,93.9z"/>
	<path d="M45.2,93.7c0.6-0.9,1.3-1.8,2-2.6c0.7-0.8,1.4-1.6,2.2-2.4c1.5-1.6,3.1-3,4.8-4.4c1.7-1.4,3.5-2.6,5.3-3.8s3.7-2.3,5.6-3.3
		s3.9-1.9,5.9-2.8s4-1.6,6.1-2.3c4.1-1.4,8.3-2.5,12.6-3.4h0c0.8-0.1,1.6,0,2.3,0.2c0.2,0.1,0.4,0.1,0.6,0.2l0.3,0.2l0.2,0.1
		l0.1,0.1c0.3,0.3,0.5,0.6,0.7,0.9c0.8,1.2,1.5,2.4,2.3,3.7s1.4,2.5,2.1,3.7l0.5,0.9l0.3,0.5l0.1,0.2l0.1,0.3
		c0.2,0.4,0.3,0.7,0.4,1.1c0.1,0.4,0.1,0.9,0,1.3c-0.1,0.4-0.3,0.9-0.6,1.2c-0.2,0.2-0.3,0.3-0.5,0.4c-0.2,0.1-0.4,0.2-0.5,0.3
		l-0.6,0.3L97,84.6l-0.5,0.1L96,84.9c-0.7,0.2-1.3,0.4-2,0.7l-1,0.4l-1,0.4c-2.6,1-5.2,2.2-7.8,3.4c-5.1,2.5-10.1,5.2-14.9,8.2
		c-4.8,3-9.5,6.1-14.1,9.5l0,0l0,0l0,0c-0.7,0.3-1.4,0.4-2.1,0.2c-0.7-0.2-1.3-0.6-1.8-1.2c-0.9-1-1.7-2.1-2.5-3.1s-1.6-2.1-2.3-3.2
		s-1.5-2.2-2.2-3.4l0,0l0,0l0,0c0-0.3,0-0.5,0-0.8c0-0.3,0.1-0.5,0.2-0.8c0.1-0.2,0.2-0.5,0.4-0.7C44.9,94.2,45,93.9,45.2,93.7z
		 M45.5,94c-0.2,0.2-0.3,0.4-0.5,0.6c-0.1,0.2-0.2,0.4-0.3,0.6c-0.1,0.2-0.1,0.5-0.2,0.7c0,0.2,0,0.5,0,0.7v-0.1l0,0
		c0.9,1,1.8,2,2.6,3s1.6,2.1,2.4,3.1s1.6,2.1,2.4,3.2c0.4,0.5,0.8,0.9,1.4,1.1c0.6,0.2,1.2,0.3,1.8,0.1l0,0l0,0
		c4.2-3.8,8.8-7.3,13.6-10.4c4.8-3.1,9.8-5.8,15-8.3c2.6-1.2,5.2-2.4,7.9-3.4l1-0.4l1-0.4c0.7-0.3,1.4-0.5,2.1-0.7l0.5-0.1l0.5-0.1
		l0.4-0.1l0.4-0.2c0.1,0,0.2-0.1,0.3-0.1c0.1-0.1,0.2-0.2,0.3-0.3c0.2-0.2,0.3-0.4,0.4-0.7c0.1-0.6,0-1.1-0.2-1.6l-1-1.9
		c-0.7-1.2-1.4-2.5-2.1-3.7c-0.7-1.2-1.4-2.5-2.2-3.6c-0.2-0.3-0.4-0.5-0.6-0.8l-0.1-0.1l0,0l-0.2-0.1c-0.1-0.1-0.3-0.1-0.4-0.2
		c-0.6-0.2-1.3-0.3-1.9-0.2h0.1c-4.2,0.8-8.4,1.8-12.5,3.1c-2.1,0.6-4.1,1.4-6.1,2.2s-4,1.7-5.9,2.7s-3.8,2-5.6,3.2
		s-3.6,2.4-5.3,3.7c-1.7,1.3-3.3,2.8-4.9,4.3c-0.8,0.8-1.5,1.5-2.2,2.4C46.8,92.2,46.1,93.1,45.5,94z"/>
	<path class="st5" d="M50.3,71.9c0-1.5,1-2.8,2.5-3.2c-1.8-0.5-3.5,0.6-4,2.4c-0.5,1.8,0.6,3.5,2.4,4c0.5,0.1,1.1,0.1,1.6,0
		C51.3,74.7,50.3,73.4,50.3,71.9z"/>
	<path class="st5" d="M61,61c-0.9-1.2-0.9-2.8,0.1-4c-1.7,0.7-2.5,2.6-1.8,4.3c0.7,1.7,2.6,2.5,4.3,1.8c0.5-0.2,1-0.6,1.3-1
		C63.4,62.6,61.9,62.2,61,61z"/>
	<path class="st5" d="M79.5,65.4c-0.6-0.8-0.5-1.8,0.1-2.5c-1.1,0.4-1.6,1.7-1.1,2.7s1.7,1.6,2.7,1.1c0.3-0.1,0.6-0.3,0.8-0.6
		C81,66.5,80,66.2,79.5,65.4z"/>
	<path class="st5" d="M38.9,61c0.4-1.1,1.5-1.9,2.6-1.8c-1.2-0.8-2.9-0.4-3.6,0.8c-0.8,1.2-0.4,2.9,0.8,3.6c0.4,0.2,0.8,0.4,1.3,0.4
		C39,63.4,38.5,62.2,38.9,61z"/>
	<path class="st5" d="M32.3,91.3c0.4-1.4,1.8-2.4,3.3-2.3c-1.5-1-3.6-0.5-4.5,1.1c-1,1.5-0.5,3.6,1.1,4.5c0.5,0.3,1,0.5,1.6,0.5
		C32.4,94.3,31.8,92.7,32.3,91.3z"/>
	<path class="st5" d="M18.9,109.9c0.4-1.4,1.8-2.4,3.3-2.3c-1.5-1-3.6-0.5-4.5,1.1c-1,1.5-0.5,3.6,1.1,4.5c0.5,0.3,1,0.5,1.6,0.5
		C19,112.9,18.5,111.3,18.9,109.9z"/>
	<path class="st5" d="M47.4,82.4c0.6-0.7,1.7-1,2.6-0.6c-0.7-1-2-1.2-3-0.5c-1,0.7-1.2,2-0.5,3c0.2,0.3,0.5,0.5,0.8,0.7
		C46.7,84.2,46.8,83.1,47.4,82.4z"/>
	<path class="st5" d="M35.1,76.3c-1.5-0.3-2.5-1.6-2.6-3.1c-0.8,1.6-0.1,3.6,1.5,4.4c1.6,0.8,3.6,0.1,4.4-1.5c0.2-0.5,0.4-1,0.3-1.6
		C38,75.8,36.6,76.6,35.1,76.3z"/>
	<polygon class="st5" points="25,97.3 25.8,99 27.8,99.3 26.4,100.6 26.7,102.5 25,101.6 23.3,102.5 23.6,100.6 22.2,99.3 24.1,99 	
		"/>
	<polygon class="st5" points="25.6,80.9 26.4,82.6 28.3,82.9 27,84.2 27.3,86.1 25.6,85.2 23.9,86.1 24.2,84.2 22.8,82.9 24.7,82.6 
			"/>
	<polygon class="st5" points="58.9,67.5 59.7,69.3 61.6,69.6 60.2,70.9 60.6,72.8 58.9,71.9 57.1,72.8 57.5,70.9 56.1,69.6 58,69.3 
			"/>
	<polygon class="st5" points="43.2,67.5 44,69.3 45.9,69.6 44.5,70.9 44.9,72.8 43.2,71.9 41.5,72.8 41.8,70.9 40.4,69.6 42.3,69.3 
			"/>
	<polygon class="st5" points="71.3,66.9 71.9,68 73.2,68.2 72.3,69.1 72.5,70.4 71.3,69.8 70.2,70.4 70.4,69.1 69.5,68.2 70.8,68 	
		"/>
	<polygon class="st5" points="22.8,90.6 23.4,91.8 24.7,92 23.7,92.9 24,94.2 22.8,93.6 21.6,94.2 21.9,92.9 20.9,92 22.2,91.8 	"/>
	<polygon class="st5" points="16.9,119.5 17.5,120.7 18.7,120.9 17.8,121.8 18,123 16.9,122.4 15.7,123 15.9,121.8 15,120.9 
		16.3,120.7 	"/>
	<polygon class="st5" points="50,55.4 51.1,57.7 53.7,58.1 51.8,59.9 52.3,62.5 50,61.3 47.6,62.5 48.1,59.9 46.2,58.1 48.8,57.7 	
		"/>
	<path class="st4" d="M180.3,47.6L204.1,13v-0.2h-21.7v-7h32.8v5l-23.5,34.3v0.3h23.8v7h-35.3V47.6z"/>
	<path class="st4" d="M144.8,25.6l14.5-21.1V4.3h-13.2V0h20v3l-14.3,20.9v0.2h14.5v4.3h-21.5V25.6z"/>
	<path class="st4" d="M127.5,39.6l6-8.8v-0.1H128v-1.8h8.3v1.3l-5.9,8.7v0.1h6v1.8h-8.9L127.5,39.6z"/>
</g>
</svg>
