<?xml version="1.0" encoding="UTF-8"?>
<!-- Generator: Adobe Illustrator 21.0.2, SVG Export Plug-In . SVG Version: 6.00 Build 0)  -->
<!DOCTYPE svg PUBLIC "-//W3C//DTD SVG 1.1//EN" "http://www.w3.org/Graphics/SVG/1.1/DTD/svg11.dtd">
<svg version="1.1" id="Layer_1" xmlns="http://www.w3.org/2000/svg" xmlns:xlink="http://www.w3.org/1999/xlink" x="0px" y="0px" viewBox="372.121 375.21 277.034 278.59" enable-background="new 372.121 375.21 277.034 278.59" xml:space="preserve">
<g enable-background="new    ">
	<g>
		<g>
			
				<linearGradient id="SVGID_2_" gradientUnits="userSpaceOnUse" x1="512.0237" y1="631.8568" x2="512.0237" y2="387.8924" gradientTransform="matrix(1 0 0 -1 -0.0225 1022.8746)">
				<stop offset="0" style="stop-color:#61FD7D"/>
				<stop offset="1" style="stop-color:#2BB826"/>
			</linearGradient>
			<path id="SVGID_1_" fill="url(#SVGID_2_)" d="M633.964,573.072c0,1.336-0.041,4.232-0.121,6.471     c-0.196,5.475-0.63,12.54-1.286,15.76c-0.987,4.837-2.477,9.403-4.418,13.204c-2.297,4.496-5.228,8.522-8.71,11.998     c-3.474,3.469-7.497,6.388-11.986,8.676c-3.82,1.947-8.415,3.437-13.28,4.419c-3.188,0.643-10.199,1.069-15.64,1.263     c-2.24,0.08-5.138,0.12-6.468,0.12l-120.125-0.019c-1.336,0-4.232-0.041-6.47-0.121c-5.475-0.197-12.54-0.631-15.76-1.287     c-4.837-0.986-9.404-2.476-13.204-4.417c-4.496-2.298-8.523-5.229-11.999-8.71c-3.469-3.475-6.388-7.498-8.675-11.987     c-1.948-3.82-3.437-8.415-4.42-13.28c-0.643-3.187-1.069-10.199-1.263-15.64c-0.08-2.239-0.12-5.137-0.12-6.468l0.019-120.125     c0-1.336,0.04-4.233,0.121-6.471c0.196-5.476,0.63-12.541,1.287-15.76c0.986-4.837,2.476-9.404,4.418-13.204     c2.297-4.496,5.228-8.523,8.71-11.999c3.475-3.469,7.498-6.388,11.987-8.676c3.821-1.947,8.415-3.437,13.281-4.419     c3.187-0.643,10.199-1.069,15.64-1.263c2.24-0.08,5.138-0.12,6.468-0.12l120.125,0.02c1.336,0,4.233,0.041,6.47,0.121     c5.476,0.197,12.541,0.63,15.761,1.287c4.837,0.986,9.403,2.475,13.204,4.417c4.495,2.297,8.522,5.228,11.998,8.71     c3.469,3.475,6.388,7.498,8.676,11.987c1.947,3.82,3.437,8.415,4.419,13.28c0.643,3.187,1.069,10.199,1.263,15.64     c0.08,2.24,0.12,5.137,0.12,6.468L633.964,573.072z"/>
		</g>
	</g>
</g>
<g id="logo">
	<g>
		<g>
			<path fill="#FFFFFF" d="M576.635,448.735c-16.517-16.531-38.482-25.639-61.885-25.648c-48.22,0-87.464,39.23-87.484,87.45     c-0.006,15.414,4.022,30.46,11.678,43.722l-12.411,45.319l46.376-12.161c12.778,6.967,27.164,10.639,41.806,10.645h0.036     c0.003,0-0.003,0,0,0c48.215,0,87.464-39.234,87.483-87.455C602.243,487.239,593.152,465.265,576.635,448.735z M514.751,583.292     h-0.029c-13.048-0.006-25.845-3.51-37.009-10.133l-2.656-1.575l-27.52,7.217l7.346-26.823l-1.73-2.75     c-7.278-11.573-11.122-24.95-11.117-38.685c0.016-40.079,32.634-72.685,72.743-72.685c19.421,0.008,37.678,7.579,51.406,21.318     c13.729,13.739,21.285,32.003,21.277,51.425C587.447,550.682,554.828,583.292,514.751,583.292z M554.636,528.85     c-2.186-1.094-12.934-6.38-14.936-7.109c-2.004-0.729-3.461-1.094-4.919,1.094c-1.457,2.188-5.645,7.109-6.922,8.568     c-1.274,1.458-2.55,1.641-4.735,0.547c-2.186-1.094-9.229-3.401-17.579-10.846c-6.498-5.794-10.885-12.951-12.161-15.139     c-1.275-2.188-0.135-3.37,0.959-4.46c0.983-0.978,2.185-2.552,3.279-3.828c1.093-1.276,1.457-2.188,2.186-3.646     c0.729-1.458,0.364-2.735-0.183-3.828c-0.546-1.094-4.918-11.85-6.74-16.225c-1.774-4.261-3.576-3.685-4.918-3.751     c-1.274-0.064-2.732-0.077-4.19-0.077c-1.457,0-3.826,0.547-5.829,2.735s-7.65,7.475-7.65,18.23     c0,10.756,7.833,21.147,8.925,22.605c1.093,1.459,15.414,23.531,37.342,32.996c5.215,2.252,9.287,3.597,12.462,4.604     c5.236,1.663,10.001,1.429,13.768,0.866c4.2-0.628,12.933-5.287,14.755-10.392c1.821-5.104,1.821-9.479,1.275-10.391     C558.278,530.492,556.821,529.945,554.636,528.85z"/>
		</g>
	</g>
</g>
</svg>