<?xml version="1.0" encoding="utf-8"?>
<!-- Generator: Adobe Illustrator 16.0.0, SVG Export Plug-In . SVG Version: 6.00 Build 0)  -->
<!DOCTYPE svg PUBLIC "-//W3C//DTD SVG 1.1//EN" "http://www.w3.org/Graphics/SVG/1.1/DTD/svg11.dtd">
<svg version="1.1" id="Layer_1" xmlns="http://www.w3.org/2000/svg" xmlns:xlink="http://www.w3.org/1999/xlink" x="0px" y="0px"
	 width="230.175px" height="290.937px" viewBox="181.013 249.109 230.175 290.937"
	 enable-background="new 181.013 249.109 230.175 290.937" xml:space="preserve">
<g id="Ebene_2">
</g>
<g id="Ebene_3">
	<g>
		<polygon fill="#E6CAD4" points="283.973,368.033 282.612,368.775 283.354,369.146 		"/>
		<path fill="#E6CAD4" d="M260.707,371.25h-1.608l0.618,0.495c0,0,1.114,1.361,0,1.114c-1.113-0.248-2.599,0.989-2.599,0.989
			s1.361-0.123,1.732-0.123c0.372,0,1.609-0.124,3.342,0.123c1.732,0.248,2.599-0.866,2.846-0.989c0.248-0.124,0.372-1.114,0-1.114
			c-0.371,0-0.494-0.618,0-0.866c0.495-0.371,0.619-2.723,0.619-2.723s0-1.361,0.124-1.484c0.123,0,2.104-1.485,1.979-1.609
			c-0.123-0.123-0.99,0-0.99-0.495c0-0.618,1.733-0.989,1.733-0.989c-2.723-0.866-4.332,1.732-4.455,1.732
			c-0.124,0-0.99,4.455-0.99,4.455l-1.732-0.124L260.707,371.25z"/>
		<path fill="#E6CAD4" d="M258.975,370.508c0.99,0,1.114-1.485,2.104-1.732c0.866-0.248,1.361-1.732,1.361-1.732l-1.484-0.371
			l-1.114,0.618l-1.484,0.495c0,0,0.123,1.237-1.114,1.485c-1.361,0.371-1.237,0.99-0.99,1.237
			C256.252,371.003,257.985,370.508,258.975,370.508z"/>
		<path fill="#E6CAD4" d="M307.238,332.145c-57.296,0-103.95,46.653-103.95,103.95c0,57.296,46.654,103.95,103.95,103.95
			s103.95-46.654,103.95-103.95C411.188,378.799,364.533,332.145,307.238,332.145z M307.238,532.62
			c-53.213,0-96.525-43.313-96.525-96.524c0-36.383,20.172-68.063,49.995-84.521l4.455-1.732c0,0,0.99,0.866,3.218,0
			s2.475-0.124,3.465,0c0.99,0.123,3.341-0.248,3.341-0.248l-0.618-0.742l1.361-0.495l-0.248,0.742l3.094-1.732l0.495,0.619
			l0.866-1.361l0.619,1.113c0,0,5.445-1.855,6.683-2.722c1.361-0.866,6.063-1.733,7.301-1.485l-2.228-0.742l1.237-0.743l1.238,0.495
			l0.495-0.618l0.742-0.124c0,0-1.237-0.743-2.476-0.866c-0.123,0-0.123,0-0.247,0c4.455-0.619,9.157-0.99,13.736-0.99
			c8.415,0,16.706,1.113,24.502,3.218c0.371,0.371,0.99,0.495,1.609,0.495c1.855,0.494,3.589,1.113,5.444,1.732
			c1.114,0.618,1.98,0.989,1.98,0.989l-1.114,0.248l-3.712-1.361l-0.743,0.495l1.114,0.866l-1.485,0.124l-0.866,0.742l-1.484,0.124
			l-0.99-1.114c0,0-2.723-0.866-2.97-0.742c-0.248,0.124,0.247,0.99-0.866,0.618c-1.114-0.371-1.733-0.618-1.733-0.618
			s0.866,0.371,0,1.732s-1.36,2.475-1.36,2.475l0.494,0.619l-0.989,0.866l-2.847,0.124l1.114,1.237l0.866,1.856l-1.485-0.866
			l-0.124-0.99l-1.484-0.495l-1.114-0.866l0.124,2.97l2.599,2.104c0,0,0,1.113-1.114,0.494c-1.113-0.618-5.692-1.361-5.692-1.361
			s1.98,0.743,1.732,1.361c-0.247,0.619-1.36,0.124-2.228,0c-0.866-0.123-4.454,1.485-4.454,1.485l-1.98,0.742
			c0,0-1.113-0.123-0.742-0.495c0.247-0.371,0.742-0.123,0.742-0.123l-1.732-0.99l0.124,1.361l-0.743,1.113l-0.989-0.123
			l-1.238,0.618c0,0,0.619,1.114-0.247,1.237c-0.866,0.124-2.104-0.494-2.104-0.494l0.247,1.361c0,0-2.352-0.124-2.104-0.743
			c0.247-0.618-0.742-2.97-0.742-2.97s1.855,0.99,2.97,1.113c0.99,0.248,3.341-0.247,3.218-1.237
			c-0.124-0.99-4.455-2.104-4.455-2.104l-2.599-1.361l1.36-0.247l-1.855-0.866c0,0-5.074,0.866-7.425,1.855
			c-2.476,0.99-7.178,4.208-7.178,4.208l-5.692,1.484l-2.599,2.476l0.123,2.352h1.856l0.866-0.495l1.732-0.866
			c0,0-0.742,1.361-0.866,2.351c-0.123,0.99-0.123,2.228-0.123,2.228l-1.485,0.495l-0.742,0.371l0.989,0.619l0.743-0.495
			l0.866,0.495l0.866-0.866h1.732l1.608-2.971c0,0,2.476,0,2.97-0.742c0.495-0.742-0.371-1.113-0.618-1.608
			c-0.248-0.495-0.248-1.361,2.599-2.847c2.847-1.484,3.713-2.475,3.713-2.475s1.732,0,1.979,0.247
			c0.248,0.248-2.228,1.856-2.228,1.856l-1.856,0.619c0,0,0.495,2.104-1.484,3.094l1.113,0.866c0,0,4.084-0.99,4.95-0.371
			c0.866,0.618,0.247,1.113-0.247,1.113c-0.495,0-1.485,0.248-1.485,0.248s-1.98-0.495-2.228-0.495
			c-0.248,0.123-1.732,0.618-1.856,0.742c0,0,0.99,0.371,0.99,0.866c0.124,0.495-0.371,2.228-1.361,1.485
			c-0.99-0.619-0.247-1.856-0.247-1.856l-2.971,3.465c0,0-1.237,1.237-2.351,0.866c0,0-0.124-0.618-1.485-0.495
			c-1.361,0.124-1.361,0.99-2.847,0.619l-0.371-0.99l-2.104,0.248l-0.866-0.866l0.495-0.867l0.618,0.495l0.372-0.247l0.123-1.608
			h0.99c0,0-0.247-0.99,0.495-1.485c0,0,0.247-0.619-0.619-0.124s-1.361,0.619-1.855,0.495c-0.495-0.124-1.238,1.856-1.238,1.856
			l-0.866,1.856c0,0-3.341-0.124-4.083,0.495c-0.743,0.618-0.99,1.608-1.856,1.732c-0.866,0.123-1.609,0.247-2.847,1.113
			s-3.218,1.485-3.341,0.866c-0.124-0.618-0.619-0.742-0.743-0.495c-0.123,0.248,0.495,1.609-0.989,1.237
			c0,0-0.124-0.989-0.866-0.866c-0.743,0.124-1.732,0.248-1.485,1.114c0,0,0.619,0.247,0.866,0.866s0.742,3.836-2.475,5.939
			c0,0-3.589-0.866-5.074-2.104c-0.495-0.371-1.113-0.247-1.732,0.743c-0.619,0.989-2.104,4.454-3.465,4.949
			c0,0-0.371,0.371-0.495,0.99s-0.371,1.114-0.742,1.361s-0.619,1.485,0.247,1.485c0.742,0,0.866-0.371,1.237-0.248
			c0.371,0.124,0.124,0.99-0.123,1.361c-0.124,0.371-0.124,1.114,0.371,0.99c0.618,0,0.742-0.619,1.484-0.495
			c0.743,0.124,1.114,0.619,1.856,0.495c0.742,0,2.352-1.361,2.723-1.608c0.371-0.248,1.361-0.372,1.361-0.372v-0.989l2.228-2.352
			c0,0,1.608,0,2.104-0.247c0.495-0.248,0.99-0.248,2.104-2.352c0,0,0.619-0.742,1.732-0.124c1.114,0.619,1.485,1.114,1.98,0.866
			c0.495-0.247,2.228-1.361,2.97-1.361c0.619,0,1.114,0.495,1.114,0.866s-0.495,1.237,0,2.104c0.495,0.866,1.484,2.351,1.979,2.599
			c0.371,0.247,1.732,1.732,1.98,2.475c0.247,0.742,0,1.98-0.495,2.104c-0.495,0.124-1.237,0.619-2.228,0.495
			c-0.866-0.247-1.361-0.618-1.732-0.618s-0.99,0.371-0.619,0.989c0.371,0.619,1.98,1.98,2.352,1.856s0.742-0.247,0.742-0.866
			s0-0.99,0.619-0.866c0.618,0.124,0.866-0.247,1.237-0.495c0.371-0.247,0.866-0.742,1.237-0.742s0.371-0.619-0.247-1.609
			c0,0-0.124-0.618,0.618-0.742c0.743-0.247,0.99,0.619,1.114,0.866c0.124,0.124,0.495,0.248,0.618,0
			c0.124-0.247-0.494-1.113-1.608-1.979c-1.113-0.866-1.113-0.99-0.124-0.99c0,0,0.248-0.495-0.247-0.495s-1.485,0-1.732-0.619
			c-0.248-0.494,0.124-1.979-0.371-2.475s-0.743-0.742-0.495-1.361c0.247-0.618,0.618-1.732,1.361-1.608
			c0.742,0.124,0.742,0,0.618,0.371c-0.123,0.371-0.494,1.113-0.494,1.113s0.371,0.372,1.113-0.494c0,0-0.371,2.227,0.247,2.599
			c0.619,0.371,2.352,1.484,2.971,2.599c0.618,1.113,0.371,1.484,0,1.979s0.123,1.98,0.371,2.476
			c0.247,0.495,0.618,0.866,0.371,1.113c-0.247,0.371-0.866,0.866-0.619,1.237c0,0,0.372-0.989,0.99-0.989
			c0.619,0,0.371,0.742,0,1.113s0.495,2.847,1.609,3.218c0,0,0.742-0.742,0-1.98l0.742-0.866l0.99,0.866
			c0,0,0.371-1.484-0.743-2.351c0,0-0.618-0.619,0.248-0.866c0,0-0.495-0.99-0.371-1.361c0.123-0.371,0.494-1.114,1.484,0.371
			c0,0-0.124-1.361,0.619-1.361c0.866,0,1.856-0.124,2.599,0.866c0,0,1.237,0,2.104-0.371s1.732,0,1.732,0.371
			s0.124,0.866-1.856,0.742c-1.979-0.123-2.475,0.248-2.722,0.743h1.237c0,0-0.866,1.979-0.371,3.217c0,0,0.123,0.495,0.495,0.743
			l0.123,0.989c0,0,0.619-0.371,1.114-0.123c0.495,0.247,0.742,0.866,1.361,0.866c0.618,0,0.989-0.99,1.361-0.99
			c0.371,0,1.608,1.361,2.351,1.361c0.743,0,1.609-0.124,2.228-0.866l1.114-0.124c0,0,0,0.495,0.371,0.371
			c0.371-0.123,0.618-0.495,0.618-0.495h0.495c0,0-0.371,7.054-4.083,9.034c0,0-1.361,0.619-3.466-0.866
			c0,0-0.494-0.371-2.104,0.618c-1.608,0.99-3.465-0.247-4.331-0.618c-0.866-0.495-1.856-0.371-1.856-0.371l-0.742-0.866
			l-1.361-0.248c0,0-0.99-1.484-1.732-1.608s-2.723-0.248-3.218,1.113s-0.742,2.476-1.237,2.476
			c-0.371,0.123-1.237,0.618-2.228-1.361l-2.228-0.248c0,0-0.495,0.248-0.495-1.732c0-1.979-1.732-1.855-2.97-1.979
			s-2.104-0.619-1.361-1.856c0,0-1.361,0.247-1.485-0.247c-0.123-0.495,0-0.99,1.114-1.238c1.113-0.247,0.99-1.608,0.99-1.608
			s-0.867-0.371-0.372-0.99c0.495-0.495,1.856-1.361,1.856-1.361s-1.237,0.495-1.361,0.371c-0.247,0,0-1.237,0-1.237
			s-0.371-0.371-1.237,0.619c-0.742,0.866-1.485,0-1.608-0.248c-0.124-0.247-0.495-0.618-0.495-0.618s-0.248,0.618-0.495,0.618
			c-0.248,0-0.248-0.618-0.248-0.618s-0.494-0.371-1.113,0.618c-0.619,0.99-1.485-0.742-1.485-0.742s-4.331-0.619-6.435,0.619
			c0,0-1.237,0.866-2.104,0.495c-0.866-0.372-1.98-1.114-2.599-2.228c0,0-1.609,2.475-2.228,2.599
			c-0.619,0.123-1.98-0.248-2.971,0.618c-0.989,0.866-2.599,4.579-3.465,5.074s-1.979,1.856-3.341,1.361
			c0,0-2.476,2.723-2.847,3.094s-4.084,5.073-4.331,5.444c-0.247,0.372,0,1.609-0.247,2.228c-0.248,0.619-1.485,8.168-3.589,8.663
			c0,0-0.866,4.826-0.372,6.063c0.495,1.238,2.352,4.703,2.476,6.436s0.124,5.816,4.331,9.404c0,0,3.342-0.742,4.579,0
			c1.113,0.743,1.484,1.361,2.351,1.238c0.866-0.124,1.609-0.743,4.95-0.619c3.342,0.248,3.342,0.124,3.713,1.114
			c0.371,0.866,0.618,3.341,1.856,3.588c1.113,0.248,2.846-0.123,3.341,0.248c0.619,0.247,1.98,1.732,1.856,3.218
			c-0.124,1.608-1.609,7.177-1.609,7.177l7.426,12.87l-0.619,1.609c0,0,2.228,2.97,1.98,3.836c-0.124,0.742-2.352,3.96-2.352,5.321
			s0,4.084,1.485,5.444c1.36,1.361,3.836,3.713,4.207,4.827c0.371,1.113,1.361,5.321,2.475,6.559c1.114,1.237,3.96,3.96,3.96,3.96
			l3.094,3.712l-0.989,0.372c0,0,1.608,2.351,3.96,2.351c2.351,0,8.291,0.371,9.157-0.247c0.866-0.619,5.94-5.074,6.063-5.321
			c0.124-0.248,0.124-1.732-0.247-2.476c-0.371-0.742,0.124-1.361,0.495-1.361s4.083-0.123,3.712-1.979
			c-0.495-1.98-1.484-4.702-1.484-4.702s-0.619-0.372,1.732-1.856c2.351-1.485,5.197-2.228,5.568-2.847
			c0.495-0.618,1.856-1.856,1.979-2.723c0-0.866-0.371-0.989-0.371-1.979s-0.123-3.589-1.113-4.95s-1.361-3.341-1.237-3.96
			c0.123-0.619-1.485-1.979-0.99-3.094c0.495-1.113,2.475-4.084,2.475-5.321l1.361-0.124c0,0,1.114-2.722,3.342-4.826
			c2.228-2.104,7.549-6.063,8.786-8.044c1.237-1.979,4.95-7.796,5.197-12.622c0,0-1.732,1.237-3.218,1.237
			c-1.484,0-3.341,0-4.207,0.371s-1.609,0.495-2.228,0.248c-0.619-0.124-1.361,1.361-2.104,0.866
			c-0.743-0.495-1.485-1.98-1.485-1.98l-1.485-0.123l1.114-0.99c0,0,0.742-0.371,0-1.361c-0.866-0.99-5.197-4.702-5.197-4.702
			l-0.124,0.989c0,0-0.619-0.866-0.99-3.712c0,0-0.247-1.361-2.351-2.847c0,0-0.372-3.96-0.619-4.95
			c-0.124-0.989-0.619-1.237-1.608-1.979c-0.99-0.742-0.495-2.476-0.495-2.476s-1.237-2.475-1.361-3.094
			c-0.124-0.618-1.114-2.723-1.237-3.712c0,0-2.104-1.732-1.361-3.713c0,0,1.608,3.836,2.475,4.084c0,0-0.495-2.723,1.732-3.342
			c0,0-0.247,2.228-0.99,2.847c0,0,0.866-0.124,1.361,0.99c0.495,1.113,1.732,3.588,1.732,3.588v1.98c0,0,1.856,0.248,2.352,1.485
			s-0.371,3.218,0.866,4.579s1.732,0.742,2.228,1.855c0.495,1.114,0.371,2.228,1.237,3.342c0.866,0.99,1.608,1.979,1.608,1.979
			s0.372,6.56,1.609,7.178c1.237,0.619,3.341-1.237,3.341-1.237h1.361l2.352-1.361l1.113,0.619l1.361-1.361l4.208-1.485v-1.485
			l2.723-1.361h2.351v-1.608l1.98-0.247l0.371-1.361l1.485-0.371v-2.352l1.237-0.742l1.608-2.723c0,0-0.99-2.104-2.228-2.228
			c-1.237-0.124-3.218-0.619-3.341-1.485c-0.124-0.866-0.248-3.589-0.371-3.342c-0.124,0.124-3.589,3.961-3.589,3.961
			s-3.094,1.113-3.96,0l-0.124-3.342l-0.742,2.352l-0.866-0.743l-0.372-3.094c0,0-3.589-1.979-3.465-3.217
			c0.124-1.238,1.361-1.114,2.104-1.114c0.743,0,0.743-0.742,0.743-0.742s2.351,3.96,2.599,3.96c0.124,0,1.732,0.247,1.732,0.247
			s1.732,2.228,3.218,1.98c1.484-0.371,3.341-1.732,3.341-1.732s0.371,2.723,2.352,2.97c1.979,0.247,4.826,0.371,6.063,0
			s3.96-0.124,3.96-0.124s0.619-1.237,1.98-0.371c1.361,0.742,5.568,6.064,6.683,6.56c0.989,0.494,2.846,1.36,2.846,1.36
			l0.866-0.618l0.248,2.104l2.228,2.723v2.104c0,0,2.599,4.331,2.722,5.816c0,0,1.98,2.228,2.599,3.836
			c0.495,1.609,1.238,3.713,2.6,3.96l0.618-1.855l1.485-0.619l-0.371-0.495l0.371-1.484h0.618l-0.618-2.723l0.618-1.732
			l-0.866-3.589v-1.732l3.218-3.589l4.579-6.559l-0.495-1.485l1.361-0.248l1.484,0.248c0,0,0.372-0.99,0.619-0.99
			s1.361,0.124,1.361,0.124l0.866-1.361l3.341,3.094v1.361l1.238,0.371c0,0-0.372,3.342,0.742,3.589
			c1.113,0.371,2.352,0,2.847-0.619c0.618-0.742,1.979,2.104,2.351,3.218c0.371,1.114,0.495,2.352,0.495,2.352l-0.619,0.124
			l1.361,1.979v5.94c0,0,0.619-1.361,1.114-0.743c0.495,0.619,1.608,2.723,1.856,4.455c0.247,1.732,0.742,4.826,3.341,5.321
			l-0.371-3.341v-2.476l-3.341-2.599l-1.238-4.455l-0.866,0.743l0.124-7.549c0,0,0.619-0.495,0.742,0.494v0.619
			c0,0,0.866-1.237,1.361-0.495c0.495,0.743,1.238,2.352,1.238,2.352l1.855,0.618l0.371,3.342c0,0,3.218-5.321,2.847-8.291
			c-0.247-2.971-3.094-7.302-5.94-9.034l0.248-5.692l1.732-0.866l0.371,1.484l0.619,0.248l-1.114,1.485l0.248,1.484l1.608,0.371
			l-0.124-2.846l-0.742-1.732l0.124-2.599c0,0,1.608-4.579,1.361-8.91c-0.248-4.455-6.683-13.241-6.683-13.241h-1.361l-1.114-2.971
			l0.372-1.979h-1.114l-0.495,0.99c0,0-2.599-2.104-2.599-2.352c0-0.248,0-2.104,0-2.104l1.856,2.104l-0.248-2.228
			c0,0,1.114-0.495,1.485,0.619c0.371,1.113,1.608,1.484,1.608,1.484l2.476,3.094c6.312,9.776,11.014,20.914,13.488,32.67
			c-0.371-0.495-1.237-1.979-1.484-5.444c0,0-0.495-1.856-1.114,0l1.98,7.425h0.989c0.124,0.99,0.372,1.856,0.495,2.847
			l-1.484-1.733l1.732,3.961c0.495,4.083,0.866,8.167,0.866,12.375c0,7.92-0.99,15.592-2.723,23.018l0,0l-1.98,0.371l0.99-1.361
			l-1.979,0.618l-1.114,1.485l-0.866-0.742l-1.485,0.742v1.608c0,0,0.99,0,1.238,0c0.247,0,2.599-0.866,2.599-0.866l2.228-0.495
			C389.779,501.93,352.034,532.62,307.238,532.62z"/>
		<path fill="#E6CAD4" d="M306.247,490.669l-0.371,3.96c0,0,0,0-1.114,3.094c-1.113,3.094,2.228,5.445,4.455,5.074
			s4.331-14.107,4.331-14.107l2.352,1.361v-1.856l-1.608-4.455C309.712,490.422,306.247,490.669,306.247,490.669z"/>
		<path fill="#E6CAD4" d="M362.801,441.046c0,0,0.742,7.425,1.113,7.425C364.162,448.47,368.617,445.624,362.801,441.046z"/>
		<path fill="#E6CAD4" d="M397.203,405.529c1.361,0.618-2.352-8.292-2.104-4.826C395.1,400.826,395.842,404.91,397.203,405.529z"/>
		<path fill="#E6CAD4" d="M401.658,423.968v6.559C401.658,430.526,403.639,424.463,401.658,423.968z"/>
		<path fill="#E6CAD4" d="M393.119,452.802l-0.371-3.836l-2.846-2.352v1.361c0,0-2.476-2.599-2.6-2.847
			c-0.123-0.247-1.237-1.732-1.237-1.732l-0.618,0.866l-1.361-0.495c0,0-0.124,1.609,0,1.856c0.123,0.124,1.979,1.361,1.979,1.361
			s0,1.609,0.619,1.856c0.618,0.247,1.361,0.371,1.361,0.742s-0.124,1.238,0.371,1.856c0.495,0.619,0.99,1.856,0.99,2.599
			c0,0.743,3.094,4.703,3.341,5.074c0.124,0.371,0.371,1.361,0.371,1.361s0.495-0.248,1.114-0.99
			c0.618-0.742,0.618-4.331,0.618-4.331L393.119,452.802z"/>
		<path fill="#E6CAD4" d="M395.719,453.792c-0.124-0.99-1.114-1.609-1.609-0.866c-0.124,0.123,0.619,2.104,0.619,2.104
			S395.842,454.781,395.719,453.792z"/>
		<polygon fill="#E6CAD4" points="396.832,453.173 395.719,453.792 396.461,455.153 		"/>
		<path fill="#E6CAD4" d="M397.327,449.461l0.618,0.866c0,0-0.247,2.228,0,2.351c0.248,0.124,1.114-0.618,1.114-0.618v1.113
			l0.742-1.113h1.361l-0.371,1.113c0,0,1.114-1.608,1.608-5.445c0.495-3.836,0.495-6.063,0.248-8.414
			c-0.248-2.352,0.371-5.198,0.371-5.198s-1.608-1.361-1.608-2.475l-0.743,6.188l-2.104,4.207l0.124,1.485l-1.237,1.237
			L397.327,449.461z"/>
		<path fill="#E6CAD4" d="M281.373,401.94c0,0,0.99-0.495-1.113-0.495c-1.98,0-1.732-0.495-1.732-0.495s-0.619-0.495-0.866,0
			C277.537,401.074,278.528,402.435,281.373,401.94z"/>
		<path fill="#E6CAD4" d="M290.655,403.549c0.99-0.247,2.228-1.608,2.228-1.608s-0.866-0.495-1.608,0.371
			c0,0-1.608-0.495-1.979,0.495C289.294,402.682,289.665,403.797,290.655,403.549z"/>
		<path fill="#E6CAD4" d="M256.129,390.802c0.866-0.247,0.247-1.237-0.495-1.113c-0.743,0.123-0.495,0.618-0.495,0.618
			S255.139,391.05,256.129,390.802z"/>
		<path fill="#E6CAD4" d="M262.069,392.659c1.608-0.495,1.485-1.856,1.485-1.856s0.371,0,0.371-0.619
			c0-0.494-0.866-0.618-0.866-0.618s-0.99-0.124-1.114,0.618c-0.123,0.743-0.866,1.98-0.866,1.98S260.46,393.154,262.069,392.659z"
			/>
		<path fill="#E6CAD4" d="M263.43,389.07c0.247,0,0.495-0.248,0.99-0.866c0.495-0.619,0.99-1.237,0.99-1.237
			s-0.619-0.743-1.98,0.989C263.43,387.956,263.183,389.07,263.43,389.07z"/>
		<path fill="#E6CAD4" d="M311.693,351.45c-1.238,1.856-0.495,2.723,0.371,3.589s2.97,0,1.979-0.619
			c-0.989-0.618-0.866-2.475-0.371-3.341s3.218-2.104,3.218-2.104C316.395,347.985,312.93,349.718,311.693,351.45z"/>
		<path fill="#E6CAD4" d="M267.514,355.781c1.732-0.247,3.341-0.618,3.341-0.618l1.114-1.98c0,0-2.104-0.124-2.352,0
			s-0.619-1.113-0.619-1.113l-3.094,2.599C265.905,354.668,265.781,356.029,267.514,355.781z"/>
		<path fill="#E6CAD4" d="M269.741,358.875l-0.495,1.114c0,0,1.237,0.247,1.361-0.495
			C270.608,358.628,269.741,358.875,269.741,358.875z"/>
		<path fill="#E6CAD4" d="M271.474,361.597c0,0-0.866,0.619-0.99,1.114c-0.124,0.371,1.114-0.248,1.361-0.743
			S271.474,361.597,271.474,361.597z"/>
		<path fill="#E6CAD4" d="M297.461,347.614c0.371-0.124,1.237-0.495,1.237-0.495s0.247,0.371,0,0.618
			c-0.247,0.248,0.124,0.619,0.495,0.495c0.371-0.247,0-1.484,0-1.484s0.99,0,1.608,0c0.619,0,1.237-0.866,1.237-0.866
			s-4.454-0.743-4.949-0.248c-0.124,0.248-0.99,1.485-0.99,1.485s-0.371,1.113,0,1.361
			C296.471,348.727,297.09,347.737,297.461,347.614z"/>
		<path fill="#E6CAD4" d="M319.489,344.272l1.113,0.99c0,0,1.609-0.124,1.856,0c0.248,0.124,1.609,0,1.98,0s0.99,0.495,0.99,0.495
			l0.742-0.619c0,0-1.608-0.618-2.228-0.495C323.324,344.767,319.613,343.53,319.489,344.272z"/>
		<path fill="#E6CAD4" d="M317.88,346.005c0.495-0.742-1.114-0.371-1.485,0C316.519,346.005,317.385,346.748,317.88,346.005z"/>
		<path fill="#E6CAD4" d="M311.073,346.377c0.495-0.124,1.732-0.372,1.98-0.495c0.247-0.124,0.247-0.371,0.247-0.371
			s-0.619,0.247-0.99,0.247s-1.979-0.619-1.979-0.247C310.083,345.51,310.578,346.5,311.073,346.377z"/>
		<path fill="#E6CAD4" d="M309.217,345.882c0,0-1.856-0.495-1.856,0c0,0,0.619,0.495,0.866,0.495
			C308.475,346.377,309.217,345.882,309.217,345.882z"/>
	</g>
	<g display="none">
		<polygon display="inline" fill="#E6CAD4" points="283.23,368.156 281.992,368.899 282.612,369.146 		"/>
		<path display="inline" fill="#E6CAD4" d="M260.089,371.374h-1.609l0.619,0.495c0,0,1.113,1.361,0,1.113
			c-1.114-0.247-2.599,0.99-2.599,0.99s1.361-0.124,1.732-0.124s1.608-0.123,3.341,0.124c1.732,0.248,2.599-0.866,2.847-0.99
			c0.247-0.123,0.371-1.113,0-1.113s-0.495-0.619,0-0.866c0.495-0.371,0.618-2.723,0.618-2.723s0-1.361,0.124-1.485
			c0.124,0,2.104-1.484,1.98-1.608c-0.124,0-0.99,0-0.99-0.495s1.732-0.99,1.732-0.99c-2.723-0.866-4.331,1.732-4.455,1.732
			s-0.99,4.455-0.99,4.455l-1.732-0.123L260.089,371.374z"/>
		<path display="inline" fill="#E6CAD4" d="M258.357,370.632c0.989,0,1.113-1.485,2.104-1.609c0.866-0.247,1.361-1.608,1.361-1.608
			l-1.485-0.371l-1.113,0.618l-1.485,0.495c0,0,0.124,1.237-1.114,1.485c-1.237,0.371-1.237,0.99-0.989,1.237
			C255.634,371.127,257.366,370.632,258.357,370.632z"/>
		<path display="inline" fill="#E6CAD4" d="M378.27,364.073c-19.182-19.182-44.674-29.824-71.898-29.824
			c-27.102,0-52.718,10.519-71.898,29.824c-19.182,19.181-29.824,44.673-29.824,71.898c0,27.102,10.519,52.718,29.824,71.898
			c19.181,19.182,44.673,29.824,71.898,29.824c27.101,0,52.717-10.519,71.898-29.824c19.182-19.181,29.824-44.674,29.824-71.898
			C408.094,408.746,397.574,383.254,378.27,364.073z M364.657,358.257c-0.743-0.248-4.579-3.218-6.931-5.94
			c2.6,1.608,5.198,3.342,7.673,5.197C365.276,358.009,365.153,358.38,364.657,358.257z M283.478,340.56
			c-0.495,0.371-2.599,1.856-4.95,1.856c-2.723,0-4.331,1.979-4.331,1.979l-1.609-0.371l-1.484,0.99l-0.619,0.742l-2.228-0.247
			C273.082,343.53,278.28,341.798,283.478,340.56z M375.795,505.271c-18.563,18.563-43.189,28.71-69.301,28.71
			c-26.234,0-50.86-10.147-69.3-28.71c-18.563-18.563-28.71-43.188-28.71-69.3s10.147-50.861,28.71-69.3
			c8.539-8.539,18.439-15.346,29.205-20.172l-8.91,5.074l-1.608,1.856l8.786-3.466c0,0,0.99,0.866,3.218,0s2.475-0.123,3.465,0
			c0.99,0.124,3.218-0.247,3.218-0.247l-0.619-0.742l1.237-0.495l-0.247,0.742l3.094-1.732l0.495,0.619l0.866-1.361l0.619,1.113
			c0,0,5.444-1.856,6.682-2.723c1.238-0.866,5.94-1.732,7.178-1.484l-2.228-0.743l1.237-0.742l1.238,0.495l0.494-0.619l0.743-0.123
			c0,0-1.237-0.743-2.476-0.866c-1.237-0.124-3.094-1.114-3.094-1.114l-1.979-0.124c0.742-0.123,1.361-0.247,2.104-0.371
			c0.866,0.124,2.847,0.495,4.331,0.495c1.361,0,1.856-0.742,1.98-1.361c3.341-0.371,6.683-0.495,10.147-0.495
			c9.033,0,17.943,1.237,26.358,3.589c-0.742,0.248-2.599,0.742-1.979,1.361c0.618,0.742,2.351,0.619,2.846,0l-1.113-0.495
			l1.361-0.618c0.742,0.247,1.36,0.371,2.104,0.618c-0.248,0.248-0.619,0.495-1.114,0.495c-1.361,0.124,4.95,3.094,4.95,3.094
			l-1.113,0.247l-3.713-1.36l-0.742,0.494l1.113,0.743l-1.484,0.123l-0.867,0.743l-1.484,0.124l-0.99-1.114
			c0,0-2.723-0.742-2.97-0.742c-0.248,0.123,0.247,0.989-0.743,0.618c-1.113-0.371-1.732-0.618-1.732-0.618s0.866,0.371,0,1.732
			s-1.361,2.351-1.361,2.351l0.495,0.619l-0.989,0.742l-2.847,0.124l1.114,1.237l0.866,1.856l-1.485-0.742l-0.124-0.99l-1.484-0.495
			l-1.114-0.742l0.124,2.97l2.599,2.104c0,0,0,1.114-1.114,0.495c-1.113-0.618-5.568-1.361-5.568-1.361s1.98,0.743,1.732,1.361
			c-0.247,0.619-1.361,0.124-2.228,0c-0.866-0.123-4.455,1.485-4.455,1.485l-1.979,0.742c0,0-1.114-0.123-0.743-0.495
			c0.248-0.371,0.743-0.123,0.743-0.123l-1.732-0.99l0.123,1.361l-0.742,1.113l-0.866-0.123l-1.237,0.618
			c0,0,0.618,1.114-0.248,1.237c-0.866,0.124-2.104-0.494-2.104-0.494l0.248,1.36c0,0-2.352-0.123-2.104-0.742
			c0.248-0.618-0.742-2.97-0.742-2.97s1.856,0.99,2.97,1.113c0.99,0.248,3.342-0.247,3.218-1.237s-4.455-2.104-4.455-2.104
			l-2.599-1.361l1.361-0.248l-1.856-0.866c0,0-5.073,0.743-7.425,1.856c-2.352,0.99-7.178,4.208-7.178,4.208l-5.692,1.484
			l-2.599,2.352l0.124,2.352h1.856l0.866-0.495l1.732-0.743c0,0-0.743,1.361-0.743,2.352c-0.123,0.99-0.123,2.228-0.123,2.228
			l-1.485,0.495l-0.742,0.371l0.989,0.619l0.743-0.495l0.742,0.495l0.866-0.866h1.732l1.609-2.971c0,0,2.475,0,2.97-0.742
			s-0.371-1.113-0.619-1.608c-0.247-0.495-0.247-1.361,2.599-2.723c2.847-1.361,3.713-2.352,3.713-2.352s1.732,0,1.98,0.248
			c0.247,0.247-2.228,1.855-2.228,1.855l-1.856,0.619c0,0,0.495,2.104-1.485,3.094l1.114,0.866c0,0,4.083-0.99,4.949-0.371
			s0.248,1.113-0.247,1.113s-1.485,0.248-1.485,0.248s-1.979-0.495-2.228-0.495c-0.247,0.124-1.732,0.619-1.855,0.742
			c0,0,0.989,0.371,0.989,0.866c0.124,0.495-0.371,2.228-1.361,1.485c-0.989-0.619-0.247-1.856-0.247-1.856l-2.97,3.465
			c0,0-1.238,1.238-2.352,0.866c0,0-0.124-0.618-1.485-0.494c-1.361,0.123-1.361,0.989-2.722,0.618l-0.372-0.99l-2.104,0.248
			l-0.866-0.742l0.495-0.743l0.619,0.495l0.371-0.247l0.123-1.609h0.99c0,0-0.247-0.989,0.495-1.484c0,0,0.248-0.619-0.619-0.124
			c-0.866,0.495-1.36,0.619-1.855,0.495s-1.238,1.856-1.238,1.856l-0.866,1.855c0,0-3.341-0.123-4.083,0.495
			c-0.619,0.495-0.99,1.609-1.856,1.732c-0.866,0.124-1.608,0.248-2.847,1.114c-1.237,0.866-3.217,1.484-3.341,0.866
			c-0.124-0.619-0.619-0.742-0.742-0.495c-0.124,0.247,0.371,1.608-0.99,1.237c0,0-0.124-0.99-0.866-0.866
			c-0.743,0.124-1.609,0.248-1.485,1.114c0,0,0.619,0.247,0.866,0.866c0.248,0.618,0.742,3.836-2.475,5.939
			c0,0-3.589-0.866-5.074-2.104c-0.495-0.371-1.113-0.247-1.732,0.742c-0.618,0.99-2.104,4.455-3.465,4.95
			c0,0-0.371,0.371-0.495,0.99c-0.124,0.618-0.371,1.113-0.742,1.361c-0.371,0.247-0.619,1.484,0.247,1.484s0.866-0.371,1.237-0.247
			c0.372,0.124,0.124,0.99-0.123,1.237c-0.124,0.371-0.124,1.114,0.371,0.99c0.618,0,0.742-0.619,1.485-0.495
			c0.742,0.124,1.113,0.619,1.855,0.495c0.743,0,2.352-1.361,2.723-1.608c0.371-0.248,1.237-0.372,1.237-0.372v-0.989l2.228-2.352
			c0,0,1.609,0,2.104-0.247c0.494-0.248,0.989-0.248,2.104-2.352c0,0,0.618-0.742,1.608-0.124c0.99,0.619,1.485,1.114,1.98,0.866
			c0.495-0.247,2.228-1.361,2.846-1.361c0.619,0,1.114,0.495,1.114,0.866c0,0.372-0.495,1.238,0,2.104s1.484,2.351,1.979,2.599
			c0.371,0.247,1.732,1.732,1.98,2.475c0.247,0.742,0,1.98-0.495,2.104c-0.495,0.124-1.237,0.619-2.228,0.495
			c-0.866-0.247-1.361-0.618-1.732-0.618s-0.99,0.371-0.619,0.989c0.371,0.619,1.98,1.98,2.352,1.856
			c0.371,0,0.742-0.247,0.742-0.866c0-0.618,0-0.99,0.619-0.866c0.618,0.124,0.866-0.247,1.237-0.495
			c0.371-0.247,0.866-0.742,1.237-0.742s0.371-0.619-0.247-1.608c0,0-0.124-0.619,0.618-0.743c0.743-0.247,0.99,0.619,1.114,0.866
			c0.124,0.124,0.495,0.248,0.618,0c0.124-0.247-0.494-1.113-1.608-1.979c-1.113-0.866-1.113-0.99-0.124-0.99
			c0,0,0.248-0.495-0.247-0.495s-1.485,0-1.608-0.618c-0.248-0.495,0.123-1.98-0.372-2.476c-0.494-0.495-0.742-0.742-0.494-1.361
			c0.247-0.618,0.618-1.608,1.36-1.608c0.743,0.124,0.743,0,0.619,0.371s-0.495,1.113-0.495,1.113s0.371,0.372,1.114-0.494
			c0,0-0.371,2.104,0.247,2.599c0.619,0.371,2.352,1.484,2.97,2.599c0.619,1.113,0.372,1.484,0,1.979
			c-0.371,0.495,0.124,1.98,0.372,2.476c0.247,0.495,0.618,0.866,0.371,1.113c-0.248,0.371-0.866,0.866-0.619,1.237
			c0,0,0.371-0.989,0.99-0.989c0.618,0,0.371,0.742,0,1.113s0.495,2.847,1.608,3.218c0,0,0.743-0.742,0-1.98l0.743-0.866
			l0.989,0.866c0,0,0.372-1.484-0.742-2.351c0,0-0.619-0.619,0.247-0.866c0,0-0.494-0.99-0.371-1.361
			c0.124-0.371,0.495-1.114,1.485,0.371c0,0-0.124-1.237,0.619-1.361c0.866,0,1.855-0.124,2.599,0.866c0,0,1.237,0,2.104-0.371
			s1.732,0,1.732,0.371s0.124,0.866-1.856,0.742c-1.979-0.123-2.475,0.248-2.723,0.743h1.238c0,0-0.867,1.979-0.372,3.217
			c0,0,0.124,0.495,0.495,0.743l0.124,0.989c0,0,0.619-0.371,1.113-0.123c0.495,0.247,0.743,0.866,1.361,0.866
			c0.619,0,0.99-0.99,1.361-0.99s1.609,1.361,2.352,1.361c0.619,0,1.608-0.124,2.228-0.866l1.113-0.124c0,0,0,0.495,0.372,0.371
			c0.371-0.123,0.618-0.495,0.618-0.495h0.495c0,0-0.371,6.931-4.084,9.034c0,0-1.237,0.619-3.465-0.866
			c0,0-0.495-0.371-2.104,0.619c-1.608,0.989-3.465-0.248-4.331-0.619c-0.866-0.495-1.856-0.371-1.856-0.371l-0.742-0.866
			l-1.361-0.248c0,0-0.99-1.484-1.732-1.608c-0.743-0.124-2.6-0.248-3.218,1.113c-0.619,1.361-0.743,2.476-1.237,2.476
			c-0.495,0-1.238,0.618-2.228-1.361l-2.228-0.248c0,0-0.495,0.248-0.495-1.732c0-1.979-1.732-1.855-2.97-1.979
			c-1.238-0.124-2.104-0.619-1.361-1.856c0,0-1.361,0.247-1.485-0.247c-0.124-0.495,0-0.99,1.113-1.238
			c1.114-0.247,0.99-1.608,0.99-1.608s-0.866-0.371-0.371-0.99c0.495-0.495,1.856-1.361,1.856-1.361s-1.237,0.495-1.361,0.371
			c-0.124-0.123,0-1.237,0-1.237s-0.371-0.371-1.237,0.619s-1.485,0-1.609-0.248c-0.123-0.247-0.495-0.618-0.495-0.618
			s-0.247,0.618-0.494,0.618c-0.248,0-0.248-0.618-0.248-0.618s-0.495-0.371-1.113,0.618c-0.619,0.99-1.485-0.742-1.485-0.742
			s-4.331-0.618-6.435,0.495c0,0-1.238,0.866-2.104,0.495s-1.979-1.114-2.599-2.228c0,0-1.608,2.475-2.228,2.599
			c-0.495,0.124-1.979-0.247-2.97,0.619s-2.599,4.578-3.465,4.949c-0.866,0.372-1.98,1.856-3.342,1.361c0,0-2.475,2.723-2.846,2.971
			c-0.371,0.371-4.084,5.073-4.331,5.444c-0.248,0.371,0,1.609-0.248,2.228c-0.247,0.619-1.484,8.168-3.465,8.663
			c0,0-0.866,4.826-0.371,6.063s2.352,4.703,2.475,6.436c0.124,1.855,0.124,5.815,4.332,9.404c0,0,3.341-0.742,4.578,0
			c1.237,0.743,1.485,1.361,2.352,1.238c0.866-0.124,1.608-0.743,4.95-0.619c3.341,0.247,3.341,0.124,3.712,1.113
			c0.371,0.866,0.619,3.342,1.856,3.589c1.114,0.248,2.723-0.123,3.341,0.248c0.619,0.247,1.98,1.732,1.856,3.217
			c-0.123,1.485-1.608,7.054-1.608,7.054l7.425,12.87l-0.619,1.609c0,0,2.228,2.97,1.98,3.836s-2.352,3.96-2.352,5.321
			s0,4.084,1.485,5.445c1.361,1.361,3.836,3.712,4.207,4.826c0.372,1.113,1.361,5.321,2.476,6.559c1.113,1.237,3.96,3.96,3.96,3.96
			l3.094,3.713l-0.99,0.371c0,0,1.608,2.351,3.96,2.351s8.291,0.371,9.034-0.247c0.866-0.619,5.939-5.074,6.063-5.321
			c0.124-0.248,0.124-1.732-0.247-2.475c-0.372-0.743,0.123-1.361,0.494-1.361c0.372,0,4.084-0.124,3.713-1.98
			c-0.495-1.979-1.485-4.702-1.485-4.702s-0.618-0.371,1.732-1.856c2.352-1.485,5.074-2.228,5.569-2.847
			c0.495-0.618,1.855-1.855,1.979-2.722c0-0.867-0.371-0.99-0.371-1.98s-0.124-3.589-1.113-4.95
			c-0.99-1.361-1.361-3.341-1.237-3.836c0.123-0.495-1.485-1.98-0.99-3.094c0.495-1.114,2.475-4.084,2.475-5.321l1.361-0.124
			c0,0,1.113-2.723,3.341-4.826c2.352-2.104,7.549-6.063,8.786-8.044c1.238-1.979,4.95-7.796,5.074-12.622
			c0,0-1.732,1.237-3.218,1.237c-1.484,0-3.341,0-4.207,0.371c-0.866,0.495-1.609,0.495-2.228,0.248
			c-0.619-0.124-1.361,1.237-2.104,0.866c-0.743-0.371-1.485-1.98-1.485-1.98l-1.485-0.124l1.114-0.989c0,0,0.742-0.371,0-1.361
			c-0.866-0.99-5.197-4.702-5.197-4.702l-0.124,0.989c0,0-0.619-0.866-0.99-3.712c0,0-0.247-1.361-2.351-2.847
			c0,0-0.372-3.96-0.619-4.95c-0.247-0.989-0.619-1.237-1.608-1.979c-0.99-0.743-0.495-2.476-0.495-2.476s-1.237-2.475-1.361-3.094
			c-0.124-0.618-1.114-2.723-1.237-3.712c0,0-2.104-1.733-1.238-3.713c0,0,1.609,3.836,2.476,4.084c0,0-0.495-2.723,1.732-3.342
			c0,0-0.248,2.228-0.99,2.847c0,0,0.866-0.124,1.361,0.99c0.495,1.113,1.732,3.588,1.732,3.588v1.98c0,0,1.856,0.247,2.352,1.485
			c0.618,1.237-0.371,3.218,0.866,4.578c1.237,1.361,1.732,0.743,2.228,1.856c0.494,1.114,0.371,2.228,1.237,3.218
			s1.608,1.979,1.608,1.979s0.371,6.56,1.609,7.055c1.237,0.618,3.341-1.238,3.341-1.238h1.361l2.352-1.361l1.113,0.619l1.361-1.237
			l4.207-1.485v-1.484l2.723-1.361h2.352v-1.609l1.979-0.247l0.372-1.237l1.484-0.372v-2.351l1.237-0.743l1.609-2.722
			c0,0-0.99-2.104-2.228-2.228c-1.237-0.124-3.218-0.619-3.342-1.485c-0.123-0.866-0.247-3.589-0.371-3.342
			c-0.123,0.124-3.589,3.96-3.589,3.96s-3.094,1.114-3.96,0l-0.123-3.341l-0.743,2.352l-0.866-0.743l-0.371-3.094
			c0,0-3.589-1.979-3.465-3.217c0.124-1.238,1.361-1.114,2.104-1.114c0.743,0,0.743-0.742,0.743-0.742s2.351,3.96,2.599,3.96
			c0.123,0,1.732,0.247,1.732,0.247s1.732,2.228,3.217,1.98c1.485-0.248,3.342-1.732,3.342-1.732s0.371,2.723,2.352,2.97
			c1.979,0.247,4.826,0.371,6.063,0s3.836-0.124,3.836-0.124s0.619-1.237,1.98-0.371c1.361,0.742,5.568,6.064,6.559,6.559
			c0.99,0.495,2.846,1.238,2.846,1.238l0.866-0.619l0.248,2.104l2.228,2.723v2.104c0,0,2.599,4.332,2.723,5.816
			c0,0,1.979,2.228,2.599,3.837c0.495,1.608,1.237,3.712,2.599,3.96l0.619-1.856l1.484-0.619l-0.371-0.495l0.371-1.484h0.619
			l-0.619-2.723l0.619-1.732l-0.866-3.589v-1.732l3.217-3.589l4.579-6.435l-0.495-1.485l1.361-0.248l1.485,0.248
			c0,0,0.371-0.99,0.618-0.99c0.248,0,1.238,0.124,1.238,0.124l0.866-1.361l3.341,3.094v1.361l1.237,0.371
			c0,0-0.371,3.218,0.743,3.589c1.113,0.371,2.351,0,2.846-0.619c0.619-0.742,1.98,2.104,2.352,3.218
			c0.371,1.114,0.495,2.352,0.495,2.352l-0.619,0.123l1.361,1.98v5.94c0,0,0.619-1.238,1.113-0.743
			c0.495,0.495,1.609,2.723,1.856,4.455c0.248,1.732,0.743,4.826,3.342,5.321l-1.114-3.589v-2.475l-3.341-2.599l-1.237-4.455
			l-0.866,0.742l0.123-7.549c0,0,0.619-0.495,0.743,0.495v0.619c0,0,0.866-1.237,1.361-0.495c0.494,0.742,1.237,2.352,1.237,2.352
			l1.856,0.618l0.371,3.342c0,0,3.217-5.321,2.846-8.292c-0.247-2.97-3.094-7.178-5.939-9.033l0.247-5.693l1.732-0.866l0.371,1.485
			l0.619,0.247l-1.113,1.485l0.247,1.485l1.608,0.371l-0.123-2.847l-0.743-1.732l0.124-2.599c0,0,1.608-4.455,1.237-8.91
			c-0.247-4.455-6.559-13.117-6.559-13.117h-1.361l-1.113-2.97l0.371-1.98h-1.114l-0.495,0.99c0,0-2.599-2.104-2.599-2.352
			c0-0.247,0-2.104,0-2.104l1.856,2.104l-0.247-2.228c0,0,1.113-0.495,1.484,0.619c0.495,1.237,1.609,1.485,1.609,1.485l3.341,4.207
			c0,0-1.608-4.455-3.712-5.816c-2.104-1.361-3.837-5.568-3.837-5.568s-1.608-1.732-1.361-1.98c0.248-0.247,0.248-0.247,0.248-0.247
			l-9.281-10.147c1.979,1.608,3.836,3.465,5.692,5.197c14.479,14.479,23.884,32.67,27.349,52.47l-2.228-2.351
			c0,0-1.361-0.866-1.732-5.693c0,0-0.495-1.855-1.114,0l1.98,7.426h1.361l0.742,3.465l-1.979-2.352l2.599,5.816l0.742-1.113
			l-0.618,5.692l0.618-0.866l0.99,1.484c0.124,1.856,0.124,3.589,0.124,5.445c0,0.866,0,1.732,0,2.476l-1.609,3.094l-0.742,11.385
			l0.742-5.074l0.495,3.713c-0.371,2.104-0.742,4.084-1.237,6.188l-2.352,1.113l-1.979,0.372l0.99-1.238l-1.98,0.619l-1.113,1.485
			l-0.866-0.743l-1.485,0.743v1.608c0,0,0.99,0,1.237,0c0.248,0,2.599-0.866,2.599-0.866l2.599-0.495l2.104-2.104
			C397.946,475.819,388.912,492.154,375.795,505.271z"/>
		<path display="inline" fill="#E6CAD4" d="M305.505,490.174l-0.372,3.96c0,0,0,0-1.113,3.094s2.228,5.445,4.455,5.074
			s4.331-14.107,4.331-14.107l2.352,1.361v-1.856l-1.609-4.455C308.846,490.051,305.505,490.174,305.505,490.174z"/>
		<path display="inline" fill="#E6CAD4" d="M362.801,448.222c0.371,0,4.702-2.846-1.113-7.425
			C361.688,440.798,362.43,448.222,362.801,448.222z"/>
		<path display="inline" fill="#E6CAD4" d="M396.09,405.529c1.361,0.618-2.352-8.292-2.104-4.826
			C393.863,400.703,394.729,404.91,396.09,405.529z"/>
		<path display="inline" fill="#E6CAD4" d="M400.421,423.844v6.436C400.421,430.403,402.401,424.339,400.421,423.844z"/>
		<path display="inline" fill="#E6CAD4" d="M392.006,452.554l-0.371-3.837l-2.847-2.351v1.36c0,0-2.475-2.599-2.599-2.846
			c-0.124-0.248-1.237-1.732-1.237-1.732l-0.619,0.866l-1.237-0.495c0,0-0.124,1.608,0,1.856c0.124,0.124,1.98,1.361,1.98,1.361
			s0,1.608,0.618,1.856c0.619,0.247,1.361,0.371,1.361,0.742s-0.124,1.237,0.371,1.856c0.495,0.618,0.99,1.855,0.99,2.599
			c0,0.742,3.094,4.578,3.218,5.073c0.123,0.371,0.371,1.361,0.371,1.361s0.495-0.247,1.113-0.989
			c0.619-0.743,0.619-4.332,0.619-4.332L392.006,452.554z"/>
		<path display="inline" fill="#E6CAD4" d="M394.605,453.544c-0.124-0.989-1.113-1.608-1.485-0.866
			c-0.123,0.124,0.619,2.104,0.619,2.104S394.729,454.534,394.605,453.544z"/>
		<polygon display="inline" fill="#E6CAD4" points="395.719,452.926 394.605,453.544 395.347,454.905 		"/>
		<path display="inline" fill="#E6CAD4" d="M396.09,449.213l0.618,0.866c0,0-0.247,2.228,0,2.352
			c0.248,0.124,1.114-0.619,1.114-0.619v1.114l0.742-1.114h1.361l-0.371,1.114c0,0,1.113-1.609,1.608-5.445s0.495-6.063,0.248-8.291
			c-0.248-2.352,0.371-5.197,0.371-5.197s-1.609-1.361-1.609-2.476l-0.742,6.188l-1.856,4.084l0.124,1.485l-1.237,1.237
			L396.09,449.213z"/>
		<path display="inline" fill="#E6CAD4" d="M280.631,401.94c0,0,0.99-0.495-1.113-0.495c-1.98,0-1.732-0.495-1.732-0.495
			s-0.619-0.495-0.866,0C276.795,401.074,277.785,402.311,280.631,401.94z"/>
		<path display="inline" fill="#E6CAD4" d="M289.912,403.425c0.99-0.247,2.228-1.608,2.228-1.608s-0.866-0.495-1.608,0.371
			c0,0-1.609-0.495-1.98,0.495C288.551,402.682,288.922,403.673,289.912,403.425z"/>
		<path display="inline" fill="#E6CAD4" d="M255.51,390.802c0.866-0.247,0.247-1.237-0.495-1.113
			c-0.742,0.123-0.495,0.618-0.495,0.618S254.644,391.05,255.51,390.802z"/>
		<path display="inline" fill="#E6CAD4" d="M261.45,392.659c1.608-0.495,1.484-1.856,1.484-1.856s0.371,0,0.371-0.619
			c0-0.494-0.866-0.618-0.866-0.618s-0.989-0.124-1.113,0.618c-0.124,0.743-0.866,1.98-0.866,1.98S259.841,393.154,261.45,392.659z"
			/>
		<path display="inline" fill="#E6CAD4" d="M262.811,389.07c0.248,0,0.495-0.248,0.99-0.866c0.495-0.619,0.99-1.237,0.99-1.237
			s-0.619-0.743-1.98,0.989C262.811,387.956,262.564,389.07,262.811,389.07z"/>
		<path display="inline" fill="#E6CAD4" d="M310.949,351.698c-1.237,1.855-0.495,2.722,0.371,3.588c0.867,0.866,2.971,0,1.98-0.618
			c-0.99-0.619-0.866-2.476-0.371-3.342s3.218-2.104,3.218-2.104C315.529,348.232,312.188,349.842,310.949,351.698z"/>
		<path display="inline" fill="#E6CAD4" d="M266.895,355.905c1.732-0.247,3.342-0.619,3.342-0.619l1.113-1.979
			c0,0-2.104-0.124-2.352,0c-0.247,0.124-0.618-1.114-0.618-1.114l-3.094,2.6C265.286,354.792,265.038,356.152,266.895,355.905z"/>
		<path display="inline" fill="#E6CAD4" d="M268.998,358.999l-0.494,1.113c0,0,1.237,0.248,1.361-0.494
			C269.989,358.752,268.998,358.999,268.998,358.999z"/>
		<path display="inline" fill="#E6CAD4" d="M270.855,361.721c0,0-0.866,0.618-0.99,1.113c-0.123,0.495,1.114-0.247,1.361-0.742
			C271.598,361.597,270.855,361.721,270.855,361.721z"/>
		<path display="inline" fill="#E6CAD4" d="M296.719,347.737c0.371-0.123,1.237-0.494,1.237-0.494s0.247,0.371,0,0.618
			c-0.248,0.248,0.123,0.619,0.495,0.495c0.371-0.247,0-1.485,0-1.485s0.989,0,1.608,0s1.237-0.866,1.237-0.866
			s-4.455-0.742-4.826-0.247c-0.123,0.247-0.989,1.485-0.989,1.485s-0.372,1.113,0,1.36
			C295.729,348.851,296.348,347.861,296.719,347.737z"/>
		<path display="inline" fill="#E6CAD4" d="M323.077,344.767c-0.619,0.124-4.208-1.113-4.331-0.371l1.113,0.99
			c0,0,1.609-0.124,1.856,0s1.485,0,1.979,0c0.372,0,0.99,0.495,0.99,0.495l0.743-0.619
			C325.305,345.386,323.696,344.767,323.077,344.767z"/>
		<path display="inline" fill="#E6CAD4" d="M317.014,346.129c0.494-0.742-1.114-0.371-1.485,0
			C315.653,346.129,316.642,346.871,317.014,346.129z"/>
		<path display="inline" fill="#E6CAD4" d="M310.207,346.624c0.495-0.124,1.732-0.371,1.98-0.495
			c0.123-0.124,0.247-0.371,0.247-0.371s-0.619,0.247-0.99,0.247s-1.979-0.618-1.979-0.247
			C309.341,345.634,309.712,346.624,310.207,346.624z"/>
		<path display="inline" fill="#E6CAD4" d="M308.351,346.129c0,0-1.856-0.495-1.856,0c0,0,0.619,0.495,0.866,0.495
			C307.609,346.624,308.351,346.129,308.351,346.129z"/>
	</g>
	<g>
		<polygon fill="#666666" points="285.705,297.124 268.875,381.15 307.361,320.636 304.02,297.248 		"/>
		<g>
			<rect x="287.311" y="250.74" fill="#FFFFFF" width="116.2" height="69.671"/>
			<rect x="287.311" y="297.181" fill="#CC2026" width="116.2" height="23.266"/>
			<rect x="287.311" y="250.564" fill="#CC2026" width="116.2" height="23.265"/>
		</g>
		<g>
			<path fill="#666666" d="M404.876,321.627H285.828v-72.518h119.048V321.627z M288.304,319.151h114.097v-67.567H288.304V319.151z"
				/>
		</g>
	</g>
	<g>
		<polygon fill="#C8C8C8" points="252.416,326.576 264.296,372.982 239.175,341.922 241.155,327.814 		"/>
		<g>
			<rect x="183.735" y="300.342" fill="#213067" width="67.815" height="40.714"/>
			<polygon fill="#FFFFFF" points="191.407,300.342 211.95,312.717 211.95,300.342 223.335,300.342 223.335,312.717 
				243.877,300.342 251.55,300.342 251.55,304.92 236.576,313.954 251.55,313.954 251.55,327.566 236.7,327.566 251.55,336.476 
				251.55,341.055 243.63,341.055 223.335,328.68 223.335,341.055 212.073,341.055 212.073,328.803 191.655,341.055 
				183.735,341.055 183.735,336.723 198.832,327.442 183.735,327.442 183.735,313.954 198.709,313.954 183.735,304.92 
				183.735,300.342 			"/>
			<polygon fill="#CC2026" points="251.55,316.677 220.984,316.677 220.984,300.342 214.301,300.342 214.301,316.677 
				183.735,316.677 183.735,324.72 214.301,324.72 214.301,341.055 220.984,341.055 220.984,324.72 251.55,324.72 			"/>
			<polygon fill="#CC2026" points="224.077,313.83 229.152,313.83 251.55,300.342 246.476,300.342 			"/>
			<polygon fill="#CC2026" points="229.028,327.566 234.101,327.566 251.55,338.085 251.55,341.055 			"/>
			<polygon fill="#CC2026" points="206.257,327.566 211.331,327.566 188.809,341.055 183.735,341.055 			"/>
			<polygon fill="#CC2026" points="201.06,313.83 206.134,313.83 183.735,300.342 183.735,303.435 			"/>
		</g>
		<g>
			<path fill="#C8C8C8" d="M253.654,343.035h-72.641v-44.674h72.641V343.035z M183.488,340.56h67.691v-39.724h-67.691V340.56z"/>
		</g>
		<rect x="183.466" y="300.874" opacity="0.5" fill="#FFFFFF" enable-background="new    " width="67.814" height="39.724"/>
	</g>
</g>
</svg>
