<?xml version="1.0" encoding="utf-8"?>
<!-- Generator: Adobe Illustrator 21.0.0, SVG Export Plug-In . SVG Version: 6.00 Build 0)  -->
<svg version="1.1" id="Ebene_1" xmlns="http://www.w3.org/2000/svg" xmlns:xlink="http://www.w3.org/1999/xlink" x="0px" y="0px"
	 viewBox="0 0 424.5 424.4" style="enable-background:new 0 0 424.5 424.4;" xml:space="preserve">
<style type="text/css">
	.st0{fill:#DEC0CA;stroke:#CDA5B4;stroke-width:1.034;stroke-miterlimit:10;}
	.st1{fill:#CDA5B4;}
</style>
<g>
	<path class="st0" d="M422,164.8c-3.7-17.1-22-91.2-96.7-86.9c0,0-41,2.4-60,17.1c-14.7,4.9-30,8.6-45.3,9.8c-15.9,0-41,0-53.2-8
		c-12.2-8-61.2-27.5-103.4-0.6C20.6,122.6-5.1,177.1,1.6,209.5C8.3,242,31,289.1,70.1,297s90.6-17.7,108.9-27.5
		c18.4-9.8,53.9-8.6,76.5,4.3c21.4,13.5,90.6,43.5,132.2-2.4C428.8,225.4,425.7,182,422,164.8z M210.3,249.9
		c-42.8,0-77.1-26.3-77.1-59.4s34.3-59.4,77.1-59.4s77.1,26.3,77.1,59.4S253.1,249.9,210.3,249.9z"/>
	<path class="st1" d="M287.4,184.4c0,1.8,0.6,4.3,0.6,6.1c0,6.1-1.2,12.2-3.7,18.4c15.9,12.2,25.7,28.8,25.7,47.1
		c0,39.2-44.1,69.8-98.5,69.8S113,294.6,113,256c0-17.7,9.2-34.3,24.5-46.5c-2.4-6.1-4.3-12.2-4.3-19.6c0-1.8,0-3.7,0.6-4.9
		c-30,16.5-49,41.6-49,71c0,49.6,56.9,90.6,126.7,90.6s126.7-41,126.7-90.6C338.2,226.7,318,200.9,287.4,184.4z"/>
</g>
</svg>
