<?xml version="1.0" encoding="UTF-8" standalone="no"?>
<!-- Generator: Adobe Illustrator 19.2.1, SVG Export Plug-In . SVG Version: 6.00 Build 0)  -->
<svg id="Ebene_1" xmlns:rdf="http://www.w3.org/1999/02/22-rdf-syntax-ns#" xmlns="http://www.w3.org/2000/svg" xml:space="preserve" viewBox="0 0 119.89142 129.84" height="129.84" width="119.89" version="1.1" y="0px" x="0px" xmlns:cc="http://creativecommons.org/ns#" xmlns:xlink="http://www.w3.org/1999/xlink" xmlns:dc="http://purl.org/dc/elements/1.1/"><defs><clipPath id="SVGID_2_"><use id="use11" xlink:href="#SVGID_1_" height="100%" width="100%" y="0" x="0"/></clipPath><rect id="SVGID_1_" y=".2" width="346.4" x="0.7" height="213.8"/></defs><metadata id="metadata95"><rdf:RDF><cc:Work rdf:about=""><dc:format>image/svg+xml</dc:format><dc:type rdf:resource="http://purl.org/dc/dcmitype/StillImage"/><dc:title/></cc:Work></rdf:RDF></metadata><style id="style3" type="text/css">
	.st0{clip-path:url(#SVGID_2_);fill:#FFFFFF;}
	.st1{clip-path:url(#SVGID_2_);fill:#111516;}
	.st2{clip-path:url(#SVGID_2_);fill:#BCBEBE;}
	.st3{clip-path:url(#SVGID_2_);fill:#DEC0CA;}
</style><g id="g3466" transform="translate(-37.106 1.022e-7)"><path id="path13" d="m200.2 119.2c-23.8 9.5-51.1-2.5-61-26.9-9.8-24.4 1.5-52 25.4-61.6 14.3-5.7 30.6-3.9 43.3 4.9-23.9-19.5-59.1-15.9-78.6 8s-15.9 59.1 8 78.6 59.1 15.9 78.6-8c6.9-8.4 11.1-18.6 12.3-29.4-2.9 15.5-13.5 28.5-28 34.4" clip-path="url(#SVGID_2_)" class="st0" transform="translate(-79 -12.689)" fill="#fff"/><path id="path15" d="m199.7 118.4c-23.4 8.9-49.7-2.3-59.6-25.3-9.6-22.3-0.1-49.4 21.9-60.2 14.8-7.1 32.4-5.8 46 3.5 0.8 0.6 0.5-1.1 0.1-1.4-24-19.7-59.5-16.3-79.2 7.7-7 8.5-11.3 18.8-12.5 29.7-1.9 18.8 5.5 37.3 19.8 49.6 23.6 20.3 59.1 17.6 79.4-6 7.4-8.7 12.1-19.4 13.3-30.7 0-0.6-1.1-2-1.3-1.1-3 15.4-13.5 28.2-27.9 34.2-0.6 0.3 0.3 1.9 1 1.6 14.6-6.1 25.2-19.1 28.2-34.6l-1.3-1c-3.2 30.5-30.6 52.6-61.1 49.4-7.9-0.8-15.5-3.4-22.4-7.4-16.6-10-26.8-28-26.7-47.3 0.3-30.7 25.4-55.3 56-55 12.5 0.1 24.7 4.5 34.4 12.4l0.1-1.4c-12.6-8.6-28.5-10.6-42.8-5.3-11.8 4.5-21.3 13.7-26.2 25.3-9.7 23.1 0.4 51 22.4 62.8 12.2 6.5 26.6 7.3 39.4 2.3 0.6-0.5-0.3-2.1-1-1.8" clip-path="url(#SVGID_2_)" class="st1" transform="translate(-79 -12.689)" fill="#111516"/><path id="path17" d="m149.2 69.5c-6 7.5-9 16.9-8.5 26.4 1 15.6 6.9 18.5 15.8 23.4 0 0 4.4 8.2 12.8 8.3 3.8 0 8.3-2.2 9.6-4.2 0 0 4.2 3.3 6.7 3.1 4.1-0.2 7.9-2.2 10.3-5.6 0.8 1 2.3 1.2 3.3 0.4 0.4-0.3 0.7-0.7 0.8-1.2 0 0 1.7 2.8 3.7 1.3 1.3-1 2-2.4 2.2-4 0 0 1.2 2.1 1.7 2 0.6-0.1 3-0.2 3.5-5.2s-6.5-5.4-7.1-5.2c1.5-4.8 1.8-9.9 0.9-14.8 1.9 0.6 4-0.6 4.5-2.5 0-0.2 0.1-0.3 0.1-0.5 0.9-7.3 1-14.7 0.3-22.1-0.9-6.1-3.2-17.8-9.4-21s-12.1-5.6-15.1-4.7-4.9 3-7.1 6.1c-2.1 3.2-5.7 7.2-6.3 11.2-3-0.6-6.1-0.7-9.1-0.3 0 0-4.6-20.7-14.5-31.5-10-10.8-18.7-16.5-24-16.2-5.3 0.2-5.3 3.6-5.2 4.6 0.1 1.1 4.3 19.1 10.4 30.1 6.1 11.1 7.7 13.2 9.4 15.1 1.5 1.9 8.7 7.5 10.3 7" clip-path="url(#SVGID_2_)" class="st2" transform="translate(-79 -12.689)" fill="#bcbebe"/><g fill="#111516"><path id="path19" d="m156.3 89.8c-2-2.1-5.2-2.8-7.9-1.7-0.9 0.3-1.7 0.8-2.4 1.4-0.5 0.4-0.3 0 0.1 0h-1.4c-0.5 0-0.9 0.4-0.9 0.9s0.4 0.9 0.9 0.9c0.9 0.1 1.9-0.1 2.6-0.7 2.3-1.8 5.6-1.6 7.7 0.5 0.4 0.3 0.9 0.2 1.2-0.2s0.3-0.8 0.1-1.1" clip-path="url(#SVGID_2_)" class="st1" transform="translate(-79 -12.689)"/><path id="path21" d="m183 85.6c0.9-1.3 2.3-2.2 3.9-2.4 2-0.3 3.2 0.7 4.8 1.6 0.7 0.3 1.5 0.5 2.3 0.4 0.5 0 0.9-0.4 0.9-0.9s-0.4-0.9-0.9-0.9c-0.6 0.1-1.2-0.1-1.7-0.4-0.7-0.5-1.5-0.9-2.3-1.2-1.4-0.5-2.9-0.5-4.3-0.1-1.7 0.6-3.1 1.6-4.1 3.1-0.7 0.8 0.8 1.7 1.4 0.8z" clip-path="url(#SVGID_2_)" class="st1" transform="translate(-79 -12.689)"/><path id="path23" d="m166.6 113.6c0.3 0 0.5 0.2 0.5 0.5s-0.2 0.5-0.5 0.5-0.5-0.2-0.5-0.5 0.2-0.5 0.5-0.5" clip-path="url(#SVGID_2_)" class="st1" transform="translate(-79 -12.689)"/><path id="path25" d="m165.8 117.1c0.3 0 0.5 0.2 0.5 0.5s-0.2 0.5-0.5 0.5-0.5-0.2-0.5-0.5 0.2-0.5 0.5-0.5" clip-path="url(#SVGID_2_)" class="st1" transform="translate(-79 -12.689)"/><path id="path27" d="m167.8 119.8c0.3 0 0.5 0.2 0.5 0.5s-0.2 0.5-0.5 0.5-0.5-0.2-0.5-0.5 0.2-0.5 0.5-0.5" clip-path="url(#SVGID_2_)" class="st1" transform="translate(-79 -12.689)"/><path id="path29" d="m187.2 111.9c0.3 0 0.5 0.2 0.5 0.5s-0.2 0.5-0.5 0.5-0.5-0.2-0.5-0.5c0.1-0.3 0.3-0.5 0.5-0.5" clip-path="url(#SVGID_2_)" class="st1" transform="translate(-79 -12.689)"/><path id="path31" d="m188.5 114.4c0.3 0 0.5 0.2 0.5 0.5s-0.2 0.5-0.5 0.5-0.5-0.2-0.5-0.5 0.2-0.5 0.5-0.5" clip-path="url(#SVGID_2_)" class="st1" transform="translate(-79 -12.689)"/><path id="path33" d="m186.8 117.4c0.3 0 0.5 0.2 0.5 0.5s-0.2 0.5-0.5 0.5-0.5-0.2-0.5-0.5 0.2-0.5 0.5-0.5" clip-path="url(#SVGID_2_)" class="st1" transform="translate(-79 -12.689)"/></g><path id="path69" d="m171.4 112.7c0.2 0.9 0.5 1.8 0.8 2.6 1.8 0.8 3.6 1.4 5.4 1.9 0 0 4.5-2.8 4.7-3.6-0.1-0.9-0.3-1.9-0.7-2.7-1.6-1.7-3.9-2.6-6.3-2.2-2.1 0-3.9 1.8-3.9 4" clip-path="url(#SVGID_2_)" class="st3" transform="translate(-79 -12.689)" fill="#dec0ca"/><path id="path71" d="m151.3 68.7c1.3-1.9 3-3.4 5.1-4.3-0.9-2-1.7-4.1-2.2-6.2-0.9-3.9-6.8-21.6-14.7-30.8s-9.9-10.4-16.9-11c0 0 1 12.3 4.3 18.7 3.4 6.4 6.8 17.5 10.8 21.9 4.3 4.2 8.9 8.2 13.6 11.7" clip-path="url(#SVGID_2_)" class="st3" transform="translate(-79 -12.689)" fill="#dec0ca"/><path id="path73" d="m157.2 64.2c-2.3-3.1-2.4-7.9-3.6-11.6-1.8-5.2-4-10.2-6.6-15-4.8-9.1-12.5-21.6-24.2-21.8-0.4 0-0.8 0.2-1 0.5 0 11.3 5.2 22.2 10 32.2 2.1 4.6 5 8.8 8.7 12.4 3.2 2.8 7.1 4.9 10.1 8 0.4 0.4 2-0.1 1.6-0.5-2.8-2.9-6.5-4.9-9.5-7.6-4-3.7-7.1-8.2-9.3-13.2-4.6-9.9-9.7-20.5-9.7-31.6l-1 0.5c5.8 0 10.6 4.2 14.2 8.4 4 4.7 7.4 10 10 15.6 2.2 4.4 4.1 8.9 5.6 13.5 1.1 3.4 1.1 7.6 3.3 10.5 0.3 0.4 2 0 1.6-0.5l-0.2 0.2z" clip-path="url(#SVGID_2_)" class="st1" transform="translate(-79 -12.689)" fill="#111516"/><path id="path75" d="m175.5 59s12.8 3.6 14.7 6.4l-2.8-14.4-0.5-4.7s-1.2-1-3.8 1.1c-2.5 2.2-7.6 11.6-7.6 11.6" clip-path="url(#SVGID_2_)" class="st3" transform="translate(-79 -12.689)" fill="#dec0ca"/><path id="path77" d="m235.9 118.5c-7.8-2.6-16-4.1-24.2-4.4-0.2-0.9-0.5-1.7-1.1-2.4-0.2-0.3-0.4-0.5-0.6-0.7-1.4-1.3-3.1-2-5-2 0.6-2 0.9-4.1 1-6.3 4.7-1.8 9.5-3.1 14.4-4.1 0.6-0.1 0.5-0.7-0.2-0.6-4.9 1-9.6 2.3-14.3 4.1 0.1-2-0.1-4-0.4-6 3.9 0.2 4.6-3.8 4.8-7.2 0.7-6.6 0.6-13.2-0.2-19.7-1-6-2.3-12.8-6.1-17.7-2.1-2.7-5.2-4-8.3-5.4s-6.5-3-9.9-2.8c-3.3 0.2-6.2 3.1-8.1 5.8-2.6 3.6-5.8 7.2-6.9 11.6-1.4-0.3-2.9-0.4-4.3-0.4-1.2-0.1-2.4 0-3.6 0.1-1.8-7.7-4.6-15.2-8.4-22.1-3.1-5.5-7.2-10.5-11.9-14.7-4.3-4-9.1-8.2-14.8-10.1-3-1-7.9-1.5-9.7 1.9-1.1 2.1 0 4.8 0.5 6.9 2.9 11.8 7.5 23.1 13.6 33.6 1.5 2.9 3.4 5.6 5.5 8.1 1.9 1.9 4.1 3.5 6.3 5 1 0.8 2.1 1.4 3.2 1.9-7.3 9.1-9.4 22.3-6.7 33.5 0.4 1.5 0.9 2.9 1.5 4.3-7.9-0.4-15.8-0.1-23.7 0.9-0.6 0-0.8 0.8 0 0.7 8-1 16.2-1.3 24.2-0.9 1.3 2.4 3.1 4.6 5.2 6.4-1.8 0.2-3.5 0.6-5.2 1.1-0.6 0.2-0.4 0.9 0.2 0.7 1.9-0.5 3.9-0.9 5.8-1.2 0.4 0.3 0.8 0.6 1.3 0.9 1.4 0.9 3.5 1.7 4.9 2.7-11.1 3.9-21.8 11.5-26.7 22.1-0.2 0.5 0.8 0.6 1 0.1 4.9-10.4 15.5-17.9 26.4-21.7v0.3c1.4 1.4 2.3 3.1 3.7 4.5 5.2 4.6 14.4 5.8 19.3 0.1 2 1.8 4.5 2.7 7.1 2.8 3.9-0.3 7.5-2.2 9.9-5.2 1.3 0.9 3.1 0.7 4-0.6 2.3 2.3 4.9 0.5 6.1-2.2 0.6 0.7 1.5 0.9 2.4 0.7 2.2-0.6 3-3.2 3.2-5.2v-1.2c8 0.3 15.8 1.8 23.4 4.3 0.9 0.2 1.8-0.2 1.4-0.3m-29.9-7.5c1 0.2 3.2 0.7 3.5 2 0.1 0.3 0.3 0.5 0.6 0.6v0.5c-5-0.1-10.1 0.4-15 1.3 0.5-1 1.3-2 2.2-2.7 1.5-0.1 3 0.2 4.4 0.7 0.3 0.1 1.2-0.3 0.8-0.5-1.4-0.5-2.8-0.8-4.3-0.8 2.4-1.3 5.2-1.7 7.8-1.1zm-10.4-2.7c2.7-1.9 5.6-3.5 8.7-4.8-0.2 1.9-0.5 3.8-1.1 5.6-2.4 0-4.7 0.6-6.7 2l-0.2 0.2c-0.1-1-0.3-2-0.7-3zm-45.5 7.3c-1.9-1.3-3.5-2.8-4.8-4.7-0.3-0.4-0.6-0.9-0.8-1.3 2.4 0.2 4.8 0.5 7.2 1 1.1 0.2 2.3 0.4 3.5 0.7-0.2 1.4-0.2 2.7-0.1 4.1-1.7 0-3.4 0.1-5 0.2m2.1 1.4-1.1-0.7c1.3-0.1 2.6-0.1 4-0.1 0.1 0.9 0.3 1.9 0.6 2.8-1.1-0.8-2.3-1.3-3.5-2m33.6 9.6c-2.4-0.2-4.7-1.2-6.5-2.8l-1-5.4c0.3-0.2 0.6-0.4 1-0.7 1.1-0.7 3.1-1.7 3.6-3 1.1-2.6-2.1-4.9-4.1-5.5-3.1-0.9-8.4 0.4-7.9 4.6 0.1 1.2 0.6 2.4 1.5 3.2 1.5 0.8 3.1 1.4 4.8 1.6l1 5.2c-3.2 4.2-10.1 4.8-14.6 2.5-2.5-1.5-4.6-3.5-6.2-5.9l-0.1-0.1c1.4-0.5 2.8-0.8 4.2-1.2 0.6-0.1 0.4-0.9-0.2-0.7-1.4 0.3-2.8 0.7-4.2 1.2-0.4-1-0.7-2.1-0.9-3.3 1 0 2.1 0.2 3.1 0.3 0.5 0 1-0.7 0.3-0.8-1.2-0.2-2.3-0.3-3.5-0.3-0.1-1.3-0.1-2.6 0-3.9 1.7 0.4 3.3 1.1 4.8 2 0.4 0.2 1.3-0.3 0.8-0.6-1.7-1-3.6-1.8-5.5-2.2v-0.3c0.6-4.9 1.4-9.8 1.9-14.7 0.8-4.6-0.1-9.3-2.4-13.3-1.4-2.3-3-4.4-4.9-6.3-0.2-0.2-1.1 0.2-1 0.3 2 2.1 3.8 4.4 5.2 6.9 2.5 4.5 2.5 8.5 1.9 13.5-0.5 4.5-1.2 9-1.7 13.6-1-0.2-1.9-0.4-2.8-0.6-2.8-0.6-5.6-0.9-8.5-1.2-3.7-7.2-3.5-17-1.2-24.4 1.3-4.9 3.7-9.5 6.9-13.5 0.2-0.3 0.2-0.7 0-0.9-0.1-0.3-0.5-0.5-0.8-0.5-1.6 0.2-4.1-2-5.2-2.8-1.6-1.1-3.1-2.3-4.6-3.7-1.6-1.8-3-3.7-4.2-5.8-5.7-9.5-10.2-19.7-13.1-30.3-1-2.8-1.7-5.7-2.2-8.7-0.4-4.9 6.2-4.2 9.2-2.9 5 2.3 9.5 5.5 13.3 9.5 4.6 4.1 8.5 8.9 11.5 14.3 3.7 7 6.5 14.4 8.2 22.1 0.1 0.5 0.5 0.8 0.9 0.8 2.2-0.3 4.4-0.3 6.6 0 0.7 0.1 1.5 0.2 2.2 0.3 3.2 0.8 6.4 1.9 9.5 3.1 1.1 0.4 1.1-1.1 0.3-1.5-2.8-1.2-5.7-2.1-8.7-2.9 1.1-3.9 4-7.2 6.3-10.5 2.7-3.9 5.8-6.4 10.7-5.2 3.9 1 9.2 2.9 12.1 5.6 2.5 2.7 4.2 6 5 9.6 1.8 6.2 2.6 12.6 2.5 19 0 3.3-0.2 6.6-0.5 9.8-0.2 2.5-0.8 5.4-3.9 4.9-0.6-0.7-1.2-1.4-1.6-2.2-1.7-2.6-3.2-5.4-4.6-8.1-4.4-8.4-7.7-17.4-9.9-26.6-0.5-2.5-1-5-1.3-7.5-0.1-0.7 0-2.7-0.5-3.2-0.6-0.2-1.3-0.2-1.9 0-5.2 1.4-8.3 9.1-10.4 13.2-0.2 0.5 0.8 0.4 1 0 1.7-4.1 4.1-7.8 7.1-11 0.6-0.5 2.3-2.2 3.2-1.7 0.4 0.2 0.7 6.1 0.8 6.9 0.5 2.6 1.1 5.2 1.7 7.8 1.3 4.8 3 9.6 5 14.2 2.5 6.1 5.7 12 9.3 17.6 0.2 0.4 0.5 0.7 0.8 1v0.3c0.5 2.5 0.7 5 0.5 7.6-3.2 1.3-6.2 2.9-9 4.8-2-6.5-5.7-12.3-10.7-16.9-0.2-0.2-1.1 0.2-1 0.3 5.1 4.6 8.8 10.6 10.7 17.2-1.2 0.8-2.2 1.8-3.3 2.8-0.4 0.4 0.5 0.5 0.8 0.2 0.8-0.8 1.7-1.6 2.6-2.3 0.3 1 0.5 2.1 0.7 3.1l-0.3 0.3c-1.2 0.2-2.5 0.6-3.6 1.1-0.6 0.3 0 0.7 0.4 0.4 0.9-0.4 1.8-0.7 2.7-0.9-0.6 0.9-1.1 1.8-1.4 2.9l-2.4 0.6c-0.8 0.2-0.5 0.6 0.1 0.4s1.5-0.4 2.2-0.5c-0.5 2 0.1 4.2 1.6 5.6-1.5 3.1-4.7 4.8-8.2 5.1zm-5.4-15c0.5 0.3 0.8 0.8 1 1.3 0.7 1.7-0.3 2.3-1.7 3.3-0.7 0.5-1.3 1-2 1.4h-0.1c-0.4-0.2-0.9-0.3-1.3-0.4-1.1-0.2-2.1-0.6-3-1-0.7-0.7-1.1-1.6-1.2-2.6-0.6-4.5 6.2-3.7 8.3-2zm26.1 6.4c-0.3-0.4-1.3-1-1.5-0.1-0.4 2.1-2.6 5.5-4.5 2.6-0.2-0.4-0.7-0.5-1.1-0.3-0.1 0-0.1 0.1-0.2 0.1-0.4 1-1.6 1.5-2.5 1-0.1-0.1-0.3-0.1-0.4-0.2-1.7-1.3-2.2-3.5-1.3-5.4 5-1 10.1-1.4 15.3-1.3-0.1 3-2 6.9-3.8 3.6z" clip-path="url(#SVGID_2_)" class="st1" transform="translate(-79 -12.689)" fill="#111516"/></g></svg>
