<?xml version="1.0" encoding="utf-8"?>
<!-- Generator: Adobe Illustrator 21.0.0, SVG Export Plug-In . SVG Version: 6.00 Build 0)  -->
<svg version="1.1" id="Ebene_1" xmlns="http://www.w3.org/2000/svg" xmlns:xlink="http://www.w3.org/1999/xlink" x="0px" y="0px"
	 viewBox="0 0 218.4 188.6" style="enable-background:new 0 0 218.4 188.6;" xml:space="preserve">
<style type="text/css">
	.st0{fill:none;}
	.st1{fill:#E6CAD4;}
	.st2{fill:#1D1D1B;}
	.st3{fill:#C8C8C8;}
	.st4{fill:#1A2233;}
	.st5{fill:#FFFFFF;}
</style>
<title>gonimo-gutenacht-tag-06</title>
<g id="Ebene_5">
	<path class="st0" d="M56.4,108.5c0.1,0.3,0.3,0.6,0.4,0.9c0-7.8,2.6-15.3,7.4-21.4c-1.4,0.4-7.6-4.5-9.1-6.1l-0.4-0.4
		C52.2,90.4,52.8,100,56.4,108.5z"/>
	<path class="st1" d="M115,131.4c-0.5,0.1-1.5-1.7-1.5-1.7l0,0c-0.1,1.4-0.8,2.7-1.9,3.5c-1.7,1.3-3.2-1.1-3.2-1.1
		c-0.1,0.4-0.4,0.7-0.7,1c-0.7,0.6-1.8,0.6-2.6,0l-0.8,0.2c-2.1,2.6-5.2,4.2-8.5,4.3c-2.2,0.2-5.8-2.7-5.8-2.7
		c-1.1,1.7-5,3.6-8.4,3.6c-7.3-0.1-11.1-7.2-11.1-7.2c-7.6-4.2-12.7-6.7-13.7-19.9c-4.9-9.6-6.1-20.8-3.3-31.3
		c-2.4-3.6-4.7-7.4-6.7-11.2c-0.2-0.4-0.4-0.8-0.7-1.3c-15.8,21.2-11.5,51.2,9.7,67c21.2,15.8,51.2,11.5,67-9.7
		c2.5-3.4,4.6-7.1,6.1-11c-2.8,5-6.5,9.3-11.1,12.8c0,0.1,0,0.1,0,0.2C117.6,131.3,115.5,131.3,115,131.4z"/>
	<path class="st1" d="M105.8,53.1c-13.3-6.4-28.8-6.4-42,0.1c1.6,1.8,2.9,3.7,4.1,5.8c3.1-2.4,6.6-4.3,10.2-5.7
		C87,50,96.8,50,105.8,53.1z"/>
	<path class="st2" d="M104.8,132.8c-0.1,0.2-0.3,0.4-0.4,0.5l0.8-0.2C105,133,104.9,132.9,104.8,132.8z"/>
	<polygon class="st2" points="113.5,129.7 113.5,129.7 113.5,129.7 	"/>
	<path class="st2" d="M56.9,111.4c0-0.1,0-0.3,0-0.4c0-0.5,0-1.1,0-1.6c-0.1-0.3-0.3-0.6-0.4-0.9c-3.6-8.5-4.2-18.1-1.7-27
		c-0.4-0.4-0.8-0.9-1.1-1.4C50.8,90.6,52,101.8,56.9,111.4z"/>
	<path class="st3" d="M64.3,88c-5.2,6.5-7.8,14.7-7.4,23c0.9,13.6,6,16.1,13.7,20.3c0,0,3.8,7.1,11.1,7.2c3.3,0,7.3-1.9,8.4-3.6
		c0,0,3.6,2.9,5.8,2.7c3.6-0.1,6.9-1.9,8.9-4.9c0.7,0.9,1.9,1.1,2.8,0.4c0,0,0.1,0,0.1-0.1c0.3-0.3,0.6-0.6,0.7-1
		c0,0,1.5,2.4,3.2,1.1c1.1-0.8,1.8-2.1,1.9-3.5c0,0,1,1.8,1.5,1.7s2.6-0.1,3-4.5s-5.6-4.7-6.2-4.5c1.3-4.2,1.6-8.6,0.8-12.8
		c1.7,0.5,3.5-0.5,3.9-2.2c0,0,0,0,0,0l0.1-0.4c0.8-6.4,0.8-12.8,0.3-19.2c-0.8-5.3-2.8-15.5-8.2-18.3s-10.5-4.8-13.2-4.1
		s-4.3,2.6-6.1,5.3s-5,6.3-5.5,9.7c-2.6-0.5-5.3-0.6-7.9-0.3c0,0-4-18-12.6-27.4S47.1,38.5,42.4,38.7s-4.6,3.1-4.5,4
		s3.8,16.6,9,26.2c5.3,9.6,6.6,11.5,8.2,13.1S62.9,88.4,64.3,88z"/>
	<path class="st2" d="M70.5,105.6c-1.8-1.9-4.5-2.4-6.9-1.5c-0.8,0.3-1.5,0.7-2.1,1.2c-0.4,0.4-0.3,0,0.1,0h-1.2
		c-0.4,0-0.7,0.4-0.7,0.8c0,0.4,0.3,0.6,0.7,0.7c0.8,0.1,1.6-0.1,2.3-0.6c2-1.6,4.9-1.4,6.7,0.4c0.3,0.2,0.8,0.1,1-0.2
		C70.6,106.2,70.6,105.9,70.5,105.6L70.5,105.6z"/>
	<path class="st2" d="M93.6,102c0.8-1.1,2-1.9,3.4-2.1c1.7-0.3,2.8,0.6,4.2,1.4c0.6,0.3,1.3,0.4,2,0.3c0.4,0,0.7-0.4,0.7-0.8
		c0-0.4-0.3-0.6-0.7-0.7c-0.5,0.1-1.1-0.1-1.5-0.3c-0.6-0.4-1.3-0.8-2-1.1c-1.2-0.4-2.5-0.4-3.7-0.1c-1.4,0.5-2.7,1.4-3.6,2.7
		C91.8,102,93.1,102.8,93.6,102L93.6,102L93.6,102z"/>
	<circle class="st2" cx="79.4" cy="126.8" r="0.4"/>
	<circle class="st2" cx="78.7" cy="129.8" r="0.4"/>
	<circle class="st2" cx="80.4" cy="132.2" r="0.4"/>
	<circle class="st2" cx="97.4" cy="125.3" r="0.4"/>
	<circle class="st2" cx="98.4" cy="127.4" r="0.4"/>
	<circle class="st2" cx="96.9" cy="130" r="0.4"/>
	<path class="st1" d="M83.6,125.6c0.2,0.8,0.4,1.5,0.7,2.3c1.5,0.7,3.1,1.2,4.7,1.7c0,0,3.9-2.4,4.1-3.1c-0.1-0.8-0.3-1.6-0.6-2.4
		c-1.4-1.5-3.4-2.2-5.4-2C85.2,122.1,83.6,123.7,83.6,125.6C83.6,125.6,83.6,125.6,83.6,125.6L83.6,125.6z"/>
	<path class="st1" d="M66.1,87.4c1.1-1.6,2.6-2.9,4.4-3.8c-0.8-1.7-1.5-3.6-1.9-5.4c-0.8-3.4-5.9-18.8-12.8-26.8s-8.6-9-14.7-9.6
		c0,0,0.8,10.7,3.8,16.3s5.9,15.2,9.4,19.1C58,80.8,62,84.2,66.1,87.4z"/>
	<path class="st2" d="M71.3,83.4c-2-2.7-2-6.9-3.1-10.1c-1.6-4.5-3.5-8.8-5.7-13c-4.2-7.9-10.9-18.8-21.1-18.9
		c-0.4,0-0.7,0.1-0.9,0.5c0,9.8,4.5,19.3,8.7,28c1.8,4,4.4,7.7,7.5,10.8c2.8,2.4,6.2,4.3,8.7,7c0.3,0.3,1.7-0.1,1.4-0.4
		c-2.4-2.5-5.7-4.3-8.3-6.6c-3.4-3.3-6.2-7.2-8.1-11.5c-4-8.6-8.4-17.8-8.4-27.5l-0.9,0.5c5,0,9.2,3.7,12.3,7.3
		c3.5,4.1,6.4,8.7,8.7,13.6c1.9,3.8,3.5,7.7,4.9,11.8c0.9,2.9,1,6.6,2.9,9.1C70.1,84.1,71.6,83.8,71.3,83.4L71.3,83.4L71.3,83.4z"/>
	<path class="st1" d="M87.1,78.9c0,0,11.1,3.1,12.8,5.6L97.5,72l-0.4-4.1c0,0-1.1-0.9-3.3,1S87.1,78.9,87.1,78.9z"/>
	<path class="st2" d="M139.7,130.6c-5.4-1.8-10.9-3-16.6-3.5c5.8-7.2,9.3-15.9,10.4-25.1c0-0.1,0-0.1,0-0.2l0,0
		c-0.1-0.5-0.9-1.6-1.1-0.9l0,0l0,0c0,0.1,0,0.2,0,0.3c-1.9,9.4-7.1,17.8-14.7,23.7l-0.1-0.1c-0.2-0.2-0.3-0.4-0.6-0.6
		c-1.2-1.1-2.7-1.7-4.3-1.7c0.5-1.8,0.8-3.6,0.9-5.5c4.1-1.5,8.3-2.7,12.6-3.6c0.6-0.1,0.4-0.6-0.1-0.5c-4.2,0.8-8.4,2-12.4,3.5
		c0.1-1.7-0.1-3.5-0.3-5.2c3.4,0.2,4-3.3,4.2-6.2c0.6-5.7,0.6-11.5-0.2-17.1c-0.8-5.2-2-11.1-5.3-15.4c-1.9-2.4-4.5-3.5-7.2-4.7
		s-5.7-2.6-8.6-2.4s-5.4,2.7-7,5c-2.2,3.1-5.1,6.3-6,10.1c-1.2-0.2-2.5-0.4-3.8-0.4c-1,0-2.1,0-3.1,0.1c-1.6-6.7-4-13.2-7.3-19.3
		l-0.4-0.6c2.1-1.6,4.3-3,6.6-4.1c12.7-6.1,27.7-5.1,39.4,2.7l0.4,0.3l0,0l0.2,0.1c0.7,0.5,0.4-0.9,0.1-1.2
		c-14.9-12.2-35.6-14.6-52.8-6c-1.2-1.3-2.5-2.6-3.9-3.8c-3.7-3.5-8-7.1-12.8-8.8c-2.6-0.9-6.9-1.3-8.4,1.7c-1,1.9,0,4.2,0.4,6
		c1.7,6.8,4,13.5,7,19.9c-5.1,6.9-8.3,15.1-9.2,23.7c-1.1,11.1,1.5,22.3,7.4,31.7c-1.8,0.1-3.6,0.3-5.4,0.5c-0.5,0-0.7,0.7,0,0.6
		c1.9-0.2,3.9-0.4,5.8-0.6c2.6,4,5.8,7.7,9.4,10.8c1.7,1.4,3.4,2.7,5.3,3.9c-5.1,3.4-9.2,8-11.9,13.5c-0.2,0.5,0.7,0.5,0.8,0.1
		c2.7-5.4,6.7-9.9,11.7-13.2c20.5,12.8,47.3,8.7,63.1-9.6c0.3-0.4,0.6-0.8,0.9-1.1c5.4,0.5,10.8,1.7,16,3.4
		C139.3,131.1,140,130.7,139.7,130.6z M113.7,124.1c0.9,0.2,2.7,0.6,3,1.7c0.1,0.2,0.2,0.4,0.5,0.5v0.4c-4.4-0.1-8.7,0.3-13,1.1
		c0.5-0.9,1.1-1.7,1.9-2.3c1.3-0.1,2.6,0.1,3.9,0.6c0.3,0.1,1.1-0.3,0.7-0.4c-1.2-0.4-2.5-0.7-3.8-0.7
		C109,123.9,111.4,123.6,113.7,124.1z M104.7,121.7c2.3-1.7,4.9-3.1,7.5-4.2c-0.2,1.7-0.5,3.3-1,4.9c-2.1,0-4.1,0.6-5.8,1.7
		l-0.2,0.2C105.1,123.5,104.9,122.6,104.7,121.7L104.7,121.7z M85.3,48.3c7.1,0.1,14.1,1.7,20.5,4.8c-9-3.1-18.7-3.1-27.7,0.2
		c-3.6,1.4-7,3.3-10.1,5.7c-1.3-2-2.7-3.9-4.2-5.7C70.5,49.9,77.8,48.3,85.3,48.3L85.3,48.3z M40.6,51.1c-0.9-2.4-1.5-5-1.9-7.5
		c-0.4-4.3,5.4-3.6,8-2.6c4.3,2,8.2,4.8,11.6,8.2c4,3.6,7.4,7.8,10,12.4c3.2,6.1,5.6,12.5,7.1,19.3c0.1,0.4,0.4,0.7,0.8,0.7
		c1.9-0.2,3.8-0.2,5.8,0c0.6,0.1,1.3,0.1,1.9,0.3c2.8,0.7,5.6,1.6,8.3,2.7c0.9,0.4,1-1,0.3-1.3c-2.4-1-5-1.8-7.5-2.5
		c1-3.4,3.5-6.2,5.5-9.1c2.4-3.4,5.1-5.6,9.3-4.5c3.4,0.9,8,2.5,10.5,4.9c2.2,2.4,3.7,5.2,4.4,8.3c1.6,5.4,2.3,10.9,2.1,16.5
		c0,2.9-0.1,5.7-0.4,8.5c-0.2,2.2-0.7,4.7-3.4,4.2c-0.5-0.6-1-1.2-1.4-1.9c-1.5-2.3-2.8-4.6-4-7.1c-3.8-7.3-6.7-15.1-8.6-23.1
		c-0.5-2.1-0.8-4.3-1.1-6.5c-0.1-0.6,0-2.4-0.4-2.8c-0.5-0.2-1.1-0.2-1.6,0c-4.5,1.3-7.2,7.9-9,11.4c-0.2,0.4,0.7,0.3,0.9,0
		c1.5-3.5,3.6-6.8,6.2-9.6c0.5-0.5,2-1.9,2.8-1.5c0.4,0.2,0.6,5.3,0.7,6c0.4,2.3,0.9,4.5,1.5,6.8c1.2,4.2,2.6,8.4,4.4,12.4
		c2.2,5.3,4.9,10.5,8.1,15.3c0.2,0.3,0.5,0.6,0.7,0.9c0,0.1,0,0.2,0,0.3c0.4,2.2,0.6,4.4,0.4,6.6c-2.7,1.1-5.4,2.5-7.8,4.2
		c-1.7-5.6-4.9-10.7-9.3-14.7c-0.2-0.1-1,0.2-0.8,0.3c4.4,4,7.6,9.2,9.3,14.9c-1,0.7-1.9,1.5-2.9,2.4c-0.4,0.4,0.5,0.4,0.7,0.2
		c0.7-0.7,1.5-1.4,2.3-2c0.2,0.9,0.4,1.8,0.6,2.7l-0.3,0.3c-1.1,0.2-2.2,0.5-3.2,1c-0.6,0.2,0,0.6,0.4,0.4c0.7-0.3,1.5-0.6,2.3-0.8
		c-0.5,0.8-0.9,1.6-1.2,2.5c-0.7,0.2-1.4,0.3-2.1,0.5s-0.4,0.5,0.1,0.4s1.3-0.3,1.9-0.5c-0.4,1.8,0.1,3.6,1.4,4.9
		c-1.9,2.4-4.7,3.9-7.7,4.1c-2.1-0.1-4.1-1-5.7-2.5l-0.9-4.7c0.3-0.1,0.6-0.4,0.9-0.6c0.9-0.6,2.7-1.5,3.1-2.6
		c0.9-2.3-1.8-4.2-3.6-4.8c-2.7-0.8-7.3,0.4-6.9,4c0.1,1.1,0.5,2.1,1.3,2.8c1.3,0.7,2.7,1.2,4.2,1.4l0.8,4.5
		c-2.8,3.7-8.8,4.2-12.7,2.1c-2.1-1.3-4-3.1-5.4-5.1l-0.1-0.1c1.2-0.4,2.4-0.7,3.7-1c0.6-0.1,0.4-0.8-0.2-0.6
		c-1.2,0.3-2.4,0.6-3.6,1c-0.4-0.9-0.6-1.8-0.8-2.8c0.9,0,1.8,0.1,2.7,0.3c0.5,0,0.9-0.6,0.3-0.7c-1-0.1-2-0.2-3-0.3
		c-0.1-1.1-0.1-2.2,0-3.4c1.5,0.3,2.9,0.9,4.2,1.7c0.3,0.2,1.1-0.2,0.7-0.5c-1.5-0.9-3.1-1.5-4.8-1.9v-0.3c0.6-4.2,1.2-8.5,1.7-12.8
		c0.7-4-0.1-8.1-2.1-11.6c-1.2-2-2.6-3.8-4.2-5.5c-0.2-0.2-1,0.2-0.8,0.3c1.8,1.8,3.3,3.8,4.5,6c2.2,3.9,2.2,7.4,1.7,11.7
		c-0.5,4-1,7.9-1.5,11.8c-0.8-0.2-1.7-0.4-2.4-0.5c-2.4-0.5-4.9-0.8-7.4-1c-3.2-6.3-3-14.8-1.1-21.2c1.1-4.3,3.2-8.3,6-11.7
		c0.2-0.2,0.2-0.6,0-0.8c-0.1-0.3-0.4-0.4-0.7-0.4c-1.4,0.2-3.6-1.7-4.5-2.4c-1.4-1-2.7-2-3.9-3.2c-1.4-1.5-2.6-3.2-3.6-5
		C47,69.3,43.1,60.4,40.6,51.1L40.6,51.1z M89.1,129.7H89c-0.4-0.1-0.8-0.3-1.2-0.4c-0.9-0.2-1.8-0.5-2.6-0.9c-0.6-0.6-1-1.4-1-2.3
		c-0.4-3.8,5.5-3.1,7.3-1.6c0.4,0.3,0.7,0.7,0.9,1.2c0.6,1.5-0.3,2-1.5,2.9C90.2,128.9,89.6,129.4,89.1,129.7L89.1,129.7z M69.4,128
		c-1.4-0.1-2.9,0-4.3,0.1c-1.6-1.1-3-2.4-4.2-4c-0.3-0.4-0.5-0.7-0.7-1.1c2.1,0.2,4.2,0.4,6.2,0.8c1,0.2,2,0.4,3,0.6
		C69.3,125.6,69.3,126.8,69.4,128L69.4,128z M69.5,128.6c0.1,0.8,0.3,1.6,0.6,2.4c-1-0.6-2.1-1.1-3.1-1.7l-0.9-0.6
		C67.2,128.6,68.3,128.6,69.5,128.6L69.5,128.6z M36.6,96.2c0.1-10,3.2-19.7,9-27.7c1.3,2.7,2.6,5.3,4.1,7.8c1.3,2.5,2.9,4.9,4.8,7
		c1.7,1.6,3.5,3.1,5.5,4.3c0.9,0.7,1.8,1.2,2.8,1.7c-6.4,8-8.2,19.4-5.8,29.1c0.3,1.3,0.8,2.5,1.3,3.7c-4.7-0.2-9.5-0.1-14.2,0.2
		C39.2,114.5,36.6,105.4,36.6,96.2z M44.6,122.8c4.7-0.3,9.5-0.4,14.3-0.1c1.1,2.1,2.7,4,4.5,5.5c-1.5,0.2-3,0.5-4.5,0.9
		c-0.6,0.1-0.4,0.8,0.2,0.6c1.7-0.5,3.4-0.8,5.1-1c0.4,0.3,0.7,0.5,1.1,0.8c1.3,0.8,3,1.5,4.3,2.4c-3.6,1.3-7,2.9-10.3,5
		C53.4,133.4,48.4,128.6,44.6,122.8L44.6,122.8z M79.3,143.8c-6.8-0.7-13.4-2.9-19.3-6.4c3.2-2.1,6.6-3.7,10.2-5v0.2
		c1.2,1.2,1.9,2.7,3.2,3.9c4.5,4,12.5,5,16.8,0.1c1.7,1.5,3.9,2.4,6.2,2.4c3.4-0.3,6.5-1.9,8.6-4.5c1.1,0.8,2.7,0.6,3.5-0.5l0,0
		c2,2,4.3,0.5,5.3-2c0.4,0.5,1.1,0.7,1.8,0.6C105.5,141.2,92.4,145.2,79.3,143.8L79.3,143.8z M114.1,130.3L114.1,130.3
		c-0.2-0.4-1.1-0.8-1.3-0.1c-0.4,1.9-2.3,4.8-3.9,2.3c-0.2-0.3-0.6-0.4-0.9-0.2c-0.1,0-0.1,0.1-0.1,0.1c-0.4,0.9-1.3,1.3-2.2,0.9
		c0,0,0,0,0,0c-0.1-0.1-0.2-0.1-0.3-0.2c-1.4-1.1-1.9-3.1-1.2-4.7c4.4-0.8,8.8-1.2,13.3-1.1C117.3,129.6,115.6,133,114.1,130.3
		L114.1,130.3z M118.1,130.3c0.3-0.7,0.4-1.4,0.5-2.2c0-0.3,0-0.7,0-1c0.8,0,1.6,0.1,2.4,0.1C120.1,128.3,119.1,129.3,118.1,130.3
		L118.1,130.3z M121.2,126.9c-0.9-0.1-1.7-0.1-2.6-0.1c0-0.2-0.1-0.3-0.1-0.5c4.3-3.4,7.9-7.6,10.6-12.4
		C127.2,118.6,124.5,123,121.2,126.9L121.2,126.9z"/>
	<path class="st1" d="M26.6,177.2c0,1.6-0.3,3.2-0.9,4.6c-1.2,2.8-3.4,4.9-6.3,5.9c-1.6,0.6-3.3,0.9-5,0.8c-2,0-4-0.3-5.8-0.9
		c-1.9-0.7-3.6-1.7-5-3.1l2.8-3.5c1,1.1,2.2,2,3.5,2.7c1.4,0.6,2.9,0.9,4.4,0.9c1.3,0,2.7-0.2,3.9-0.7c1.8-0.8,3.2-2.3,3.8-4.2
		c0.3-0.9,0.4-1.8,0.4-2.8v-3.3h-0.2c-0.8,1.3-1.9,2.4-3.3,3c-1.4,0.7-2.9,1-4.4,1c-1.6,0-3.1-0.3-4.5-0.9c-1.3-0.6-2.5-1.4-3.6-2.4
		c-1-1-1.8-2.3-2.3-3.6c-0.6-1.4-0.9-3-0.8-4.5c0-1.5,0.3-3.1,0.8-4.5c0.5-1.4,1.3-2.6,2.3-3.7c1-1.1,2.2-1.9,3.5-2.5
		c1.5-0.6,3.1-0.9,4.7-0.9c1.5,0,3,0.4,4.4,1c1.3,0.6,2.5,1.5,3.3,2.8h0.1v-3.2h4.2v22L26.6,177.2z M15,158.6c-1,0-2,0.2-3,0.6
		c-0.9,0.4-1.6,0.9-2.3,1.6c-0.7,0.7-1.2,1.5-1.5,2.4c-0.3,1-0.5,2.1-0.5,3.1c-0.1,2,0.6,3.9,2,5.4c3,2.7,7.6,2.7,10.7,0
		c1.3-1.5,2.1-3.4,2-5.4c0-1.1-0.2-2.1-0.5-3.1c-0.3-0.9-0.8-1.7-1.5-2.4c-0.6-0.7-1.4-1.2-2.3-1.6C17.1,158.8,16.1,158.6,15,158.6z
		"/>
	<path class="st1" d="M31.8,166.3c0-1.6,0.3-3.1,0.9-4.5c2.5-6,9.5-8.8,15.5-6.3c1.4,0.6,2.7,1.5,3.8,2.6c4.6,4.6,4.6,11.9,0,16.5
		c0,0,0,0,0,0c-1.1,1.1-2.4,1.9-3.8,2.5c-4.4,1.8-9.6,0.9-13-2.5C33,172.4,31.8,169.4,31.8,166.3z M36.3,166.3
		c0,1.1,0.2,2.1,0.5,3.1c0.3,0.9,0.8,1.8,1.5,2.5c0.6,0.7,1.4,1.2,2.2,1.6c1.9,0.8,4.1,0.8,6,0c0.9-0.4,1.7-0.9,2.4-1.6
		c0.7-0.7,1.2-1.5,1.5-2.4c0.7-2,0.7-4.2,0-6.2c-0.6-1.8-2.1-3.3-3.9-4c-1.9-0.8-4.1-0.8-6,0c-0.9,0.4-1.6,0.9-2.3,1.6
		c-0.7,0.7-1.2,1.5-1.5,2.4C36.4,164.3,36.3,165.3,36.3,166.3L36.3,166.3z"/>
	<path class="st1" d="M60.6,155.3h4.2v3.4h0.1c0.6-1.3,1.5-2.3,2.8-3c1.4-0.8,3-1.1,4.5-1.1c1,0,2,0.2,3,0.5c1,0.3,1.8,0.8,2.6,1.5
		c0.8,0.7,1.4,1.6,1.8,2.6c0.5,1.2,0.7,2.5,0.7,3.8v14.3H76v-13c0-0.9-0.1-1.8-0.4-2.6c-0.2-0.7-0.6-1.3-1.1-1.8
		c-0.5-0.4-1-0.8-1.6-1c-0.6-0.2-1.2-0.3-1.9-0.3c-0.8,0-1.7,0.1-2.4,0.4c-0.8,0.3-1.4,0.7-2,1.3c-0.6,0.7-1.1,1.5-1.3,2.3
		c-0.3,1.1-0.5,2.2-0.5,3.3v11.4h-4.2L60.6,155.3z"/>
	<path class="st1" d="M86.6,155.3h4.2v22.2h-4.2V155.3z"/>
	<path class="st1" d="M97.4,155.3h3.9v3.5h0.1c0.2-0.4,0.4-0.8,0.7-1.2c0.4-0.5,0.9-1,1.5-1.3c0.7-0.5,1.4-0.8,2.1-1.1
		c0.9-0.3,1.8-0.5,2.7-0.5c1.5-0.1,2.9,0.3,4.2,1c1.2,0.8,2.1,1.8,2.8,3.1c0.7-1.3,1.7-2.4,3-3.1c1.2-0.7,2.6-1,4-1
		c1.5-0.1,2.9,0.2,4.2,0.8c1,0.5,1.9,1.3,2.6,2.2c0.6,1,1.1,2,1.3,3.1c0.2,1.2,0.4,2.4,0.4,3.6v12.9h-4.3v-12.4
		c0-0.8-0.1-1.6-0.2-2.4c-0.1-0.7-0.3-1.4-0.7-2.1c-0.4-0.6-0.9-1.1-1.5-1.4c-2.3-1.1-5.1-0.5-6.8,1.3c-0.9,1.4-1.4,3.1-1.3,4.8
		v12.1h-4.2v-11.6c0-1-0.1-1.9-0.2-2.9c-0.1-0.8-0.3-1.6-0.7-2.3c-0.3-0.6-0.8-1.2-1.4-1.5c-0.8-0.4-1.6-0.6-2.4-0.5
		c-0.8,0-1.5,0.1-2.2,0.5c-0.7,0.3-1.3,0.8-1.9,1.3c-0.6,0.7-1,1.4-1.3,2.3c-0.3,1.1-0.5,2.1-0.5,3.3v11.5h-4.2v-22.2L97.4,155.3
		L97.4,155.3z"/>
	<path class="st1" d="M135.9,166.3c0-1.6,0.3-3.1,0.9-4.5c2.5-6,9.5-8.8,15.5-6.3c1.4,0.6,2.7,1.5,3.8,2.6c4.6,4.6,4.6,11.9,0,16.5
		c0,0,0,0,0,0c-1.1,1.1-2.4,1.9-3.8,2.5c-4.4,1.8-9.6,0.9-13-2.5C137.2,172.4,135.9,169.4,135.9,166.3z M140.5,166.3
		c0,1.1,0.2,2.1,0.5,3.1c0.3,0.9,0.8,1.7,1.5,2.4c0.6,0.7,1.4,1.2,2.3,1.6c1.9,0.8,4.1,0.8,6,0c0.9-0.4,1.6-0.9,2.3-1.6
		c0.7-0.7,1.2-1.5,1.5-2.4c0.7-2,0.7-4.2,0-6.2c-0.3-0.9-0.8-1.7-1.5-2.4c-0.6-0.7-1.4-1.2-2.3-1.6c-1.9-0.8-4.1-0.8-6,0
		c-0.9,0.4-1.6,0.9-2.3,1.6c-0.7,0.7-1.2,1.5-1.5,2.4C140.6,164.2,140.5,165.3,140.5,166.3L140.5,166.3z"/>
	<g id="Ebene_4">
		<path class="st4" d="M89.5,69c0,0-10.1-15.1-32.3-16.5c-5.5-0.4-14.4-0.8-18.8,1.9s-4.5,3-10.3,13.9
			c-5.8,10.8-11.6,24.9-16.7,56.6l2.6,1.7l2.3,2l2.7-2.4c0,0,10.2-25.2,21.5-38.6c0,0,3,1.3,5,5.7l5.8-6.5l11.1-8l14.4-6.4L89.5,69z
			"/>
		<path class="st5" d="M11.4,124.8c0,0-4.4-0.5-4.2,3.1c0,0-4,2.7-5,6.3c0,0-2.6,4.2-1.8,6.2s1.3,4.5,3.8,4.9c0,0,3.1,4.2,4.7,4.1
			s3.5,1,5,0.3s2.2-1.9,3.8-2s2.9-0.4,4.2-4c0.9-0.4,1.6-1.1,2.2-1.9c0.5-1.1,0.3-2.7,1.2-3.7c0.9-0.9,1-2.3,0.3-3.4
			c-0.7-0.7-1.1-1.6-1-2.6c-0.1-1.1-1-1.9-2.1-1.9c-0.1,0-0.1,0-0.2,0c-1.1,0.1-2-0.7-2.1-1.7c0,0,0,0,0,0c-0.2-1.4,0.3-3-3.4-2.9
			c-1.1,0.7-2.6,0.7-3.7,0C12.5,125.5,12.2,125,11.4,124.8z"/>
	</g>
	<path class="st5" d="M45.2,93.6c0,0,11.3-18.3,44.4-24.6c1-0.1,2,0.1,2.8,0.6c1.1,0.7,6.1,10.1,6.1,10.1s1.8,3.2-2.1,4.1
		C92,84.9,73,92.2,55,107c-1.3,0.4-2.8,0-3.6-1.1c-1.7-2-7.2-9.5-7.2-9.5C44.1,95.3,44.4,94.3,45.2,93.6z"/>
	<path d="M99.4,80.7c-0.1-0.4-0.2-0.8-0.4-1.2l-0.1-0.3L98.8,79l-0.3-0.5L98,77.6c-0.7-1.2-1.4-2.5-2.1-3.7
		c-0.7-1.2-1.4-2.5-2.3-3.6c-0.2-0.3-0.5-0.6-0.7-0.9l-0.1-0.1l-0.2-0.1l-0.3-0.2c-0.2-0.1-0.4-0.2-0.6-0.2
		c-0.8-0.2-1.5-0.3-2.3-0.2h-0.1c-0.7-1-1.5-2-2.3-2.9c-0.9-1.1-1.9-2.1-3-3c-2.1-1.9-4.4-3.5-6.8-4.9c-1.2-0.7-2.5-1.3-3.8-1.9
		c-1.3-0.6-2.6-1.1-3.9-1.5c-2.7-0.9-5.4-1.6-8.2-2l-2.1-0.3l-2.1-0.2c-1.4-0.1-2.8-0.2-4.2-0.2c-2.8-0.1-5.6,0-8.4,0.3
		c-1.4,0.2-2.8,0.5-4.2,0.9c-0.7,0.2-1.4,0.5-2,0.9l-0.3,0.1l-0.2,0.1l-0.4,0.3c-0.3,0.2-0.6,0.4-0.9,0.6c-0.6,0.4-1.2,0.9-1.7,1.3
		c-0.5,0.5-1,1.1-1.4,1.7c-0.8,1.2-1.6,2.4-2.2,3.6c-0.7,1.2-1.3,2.4-2,3.7s-1.3,2.4-1.9,3.7c-1.3,2.5-2.5,5-3.6,7.6s-2.1,5.2-3,7.8
		c-0.5,1.3-0.9,2.6-1.3,4s-0.8,2.7-1.2,4s-0.8,2.7-1.1,4s-0.7,2.7-1,4.1l-0.9,4.1l-0.8,4c-0.5,2.7-1.1,5.5-1.5,8.2s-0.9,5.4-1.3,8.1
		c-0.2,0-0.4,0-0.6-0.1l-0.8,0.1c-0.5,0.1-1,0.3-1.5,0.5l-0.3,0.2c-0.1,0.1-0.2,0.2-0.3,0.3c-0.1,0.1-0.2,0.2-0.3,0.3
		c-0.1,0.1-0.1,0.2-0.2,0.4c-0.1,0.1-0.1,0.2-0.2,0.4c0,0.1-0.1,0.2-0.1,0.4c0,0.2-0.1,0.5-0.1,0.7c-0.3,0.2-0.5,0.4-0.8,0.6
		c-0.3,0.2-0.5,0.4-0.8,0.7c-0.1,0.1-0.3,0.2-0.4,0.4c-0.1,0.1-0.3,0.2-0.4,0.4c-0.2,0.3-0.5,0.5-0.7,0.8l-0.4,0.5
		c-0.1,0.1-0.2,0.3-0.3,0.4c-0.1,0.1-0.2,0.3-0.3,0.4l-0.3,0.4l-0.2,0.5c-0.1,0.1-0.1,0.3-0.2,0.5c-0.1,0.2-0.1,0.3-0.2,0.5L2,134.1
		c-0.3,0.5-0.5,0.9-0.8,1.4c-0.3,0.5-0.5,1-0.7,1.5l-0.2,0.4l-0.1,0.4c-0.1,0.1-0.1,0.3-0.1,0.4c0,0.1-0.1,0.3-0.1,0.4
		c0,0.1-0.1,0.3-0.1,0.4v0.4v0.4c0,0.1,0.1,0.3,0.1,0.4l0.6,1.6c0.1,0.3,0.2,0.5,0.3,0.8c0.1,0.3,0.2,0.5,0.4,0.8
		c0.1,0.1,0.2,0.2,0.2,0.4l0.3,0.4c0.2,0.2,0.4,0.4,0.6,0.6c0.2,0.1,0.3,0.2,0.4,0.2l0.4,0.2c0.1,0.1,0.3,0.1,0.4,0.1l0.3,0.1
		c0.5,0.7,1.1,1.5,1.7,2.1c0.3,0.4,0.6,0.7,1,1c0.4,0.3,0.7,0.6,1.2,0.9c0.2,0.1,0.5,0.2,0.8,0.3c0.1,0,0.2,0,0.2,0h0.2
		c0.1,0,0.2,0,0.3,0c0.4,0.1,0.9,0.1,1.3,0.3c0.4,0.1,0.9,0.2,1.4,0.3c0.5,0.1,1,0,1.5-0.1c0.3-0.1,0.5-0.2,0.7-0.3
		c0.1-0.1,0.2-0.1,0.3-0.2l0.3-0.2c0.4-0.3,0.8-0.6,1.1-0.8c0.3-0.2,0.7-0.4,1.1-0.5c0.1,0,0.2,0,0.3-0.1h0.3c0.2,0,0.5,0,0.7-0.1
		c0.5-0.1,1-0.2,1.5-0.5c0.4-0.3,0.8-0.7,1.1-1.1c0.3-0.4,0.5-0.8,0.7-1.3c0.1-0.2,0.2-0.4,0.2-0.7l0.1-0.6c0.4-0.2,0.9-0.5,1.3-0.8
		c0.2-0.2,0.4-0.4,0.6-0.6c0.1-0.1,0.2-0.2,0.3-0.4c0-0.1,0.1-0.1,0.1-0.2l0.1-0.2c0.2-0.5,0.3-1.1,0.3-1.6c0.1-0.5,0.2-0.9,0.4-1.4
		c0.1-0.1,0.1-0.2,0.2-0.3l0.2-0.3c0.2-0.2,0.3-0.5,0.4-0.8c0.2-0.5,0.3-1.1,0.2-1.7c-0.1-0.3-0.2-0.6-0.3-0.8
		c-0.1-0.2-0.3-0.5-0.5-0.7c-0.2-0.2-0.3-0.4-0.4-0.6c-0.1-0.2-0.1-0.4-0.2-0.7c0-0.3,0-0.5-0.1-0.8s0-0.2-0.1-0.4
		c0-0.2-0.1-0.3-0.2-0.4c-0.1-0.3-0.3-0.5-0.6-0.7c-0.2-0.2-0.5-0.3-0.8-0.4c-0.3-0.1-0.6-0.1-0.8-0.1H22c-0.1,0-0.2,0-0.3,0
		c-0.5-0.1-0.9-0.3-1.1-0.7c-0.1-0.2-0.2-0.4-0.2-0.6v-0.1v-0.1v-0.2V128c0-0.3,0-0.5-0.1-0.8c-0.1-0.3-0.2-0.6-0.4-0.8
		c-0.1-0.1-0.2-0.2-0.3-0.3l-0.2-0.1c0.7-1.6,1.5-3.2,2.2-4.8c0.4-0.8,0.8-1.7,1.2-2.5l1.2-2.5l1.2-2.5c0.4-0.8,0.8-1.7,1.3-2.5
		l1.3-2.5l1.3-2.4l1.3-2.4l0.7-1.2l0.7-1.2c0.5-0.8,0.9-1.6,1.4-2.4l1.4-2.4c0.5-0.8,1-1.5,1.5-2.3l0.8-1.2l0.8-1.1l0.8-1.1l0.4-0.6
		c0.1-0.2,0.3-0.4,0.4-0.5c0.5-0.7,1-1.3,1.5-2c0,0,0,0,0.1,0c0.2,0.1,0.4,0.2,0.6,0.4l0.2,0.1c0.2,0.1,0.4,0.3,0.6,0.5
		c0.3,0.3,0.7,0.7,1,1l0.3,0.4l0.3,0.4c0.1,0.1,0.2,0.2,0.3,0.4l0.3,0.4l0.3,0.4c0.2,0.3,0.3,0.5,0.5,0.8s0.3,0.5,0.4,0.7l-0.2,0.3
		c-0.2,0.2-0.3,0.4-0.5,0.6c-0.1,0.2-0.3,0.5-0.4,0.7c-0.1,0.2-0.2,0.5-0.2,0.8c0,0.3,0,0.5,0,0.8l0,0l0,0l0,0
		c0.7,1.1,1.4,2.3,2.2,3.4s1.5,2.2,2.3,3.2s1.6,2.1,2.5,3.1c0.5,0.6,1.1,1,1.8,1.2c0.7,0.2,1.5,0.1,2.1-0.2l0,0l0,0l0,0
		c4.6-3.4,9.2-6.5,14-9.5c4.8-3,9.7-5.7,14.8-8.1c2.6-1.2,5.1-2.4,7.8-3.4l1-0.4l1-0.4c0.7-0.2,1.3-0.5,2-0.7l0.5-0.1l0.5-0.1
		l0.6-0.2l0.6-0.3c0.2-0.1,0.4-0.2,0.5-0.3c0.2-0.1,0.3-0.3,0.5-0.4c0.3-0.3,0.5-0.8,0.6-1.2C99.5,81.6,99.5,81.1,99.4,80.7z
		 M19.6,127.3c0,0.2,0.1,0.5,0.1,0.7v0.4v0.2v0.1v0.1c0.1,0.3,0.2,0.6,0.3,0.8c0.3,0.5,0.8,0.9,1.4,1c0.1,0,0.3,0.1,0.4,0.1h0.2h0.2
		c0.2,0,0.5,0,0.7,0.1c0.4,0.1,0.8,0.4,1,0.8c0.1,0.2,0.1,0.4,0.2,0.7c0,0.2,0,0.5,0.1,0.8c0,0.3,0.1,0.6,0.2,0.8
		c0.1,0.3,0.3,0.5,0.5,0.7c0.2,0.2,0.3,0.4,0.4,0.6c0.1,0.2,0.2,0.4,0.2,0.6c0.1,0.5,0,0.9-0.2,1.3c-0.1,0.2-0.2,0.4-0.3,0.6
		l-0.3,0.3c-0.1,0.1-0.2,0.2-0.2,0.4c-0.3,0.5-0.4,1-0.5,1.6c-0.1,0.5-0.2,1-0.3,1.5l-0.1,0.2c0,0.1,0,0.1-0.1,0.1
		c0,0.1-0.1,0.2-0.2,0.3c-0.1,0.2-0.3,0.4-0.5,0.5c-0.4,0.3-0.8,0.6-1.2,0.8h-0.1l-0.1,0.2c-0.1,0.2-0.2,0.4-0.3,0.6l-0.3,0.6
		c-0.1,0.2-0.2,0.4-0.3,0.6s-0.2,0.4-0.3,0.5c-0.2,0.3-0.5,0.6-0.8,0.9c-0.3,0.2-0.7,0.4-1.1,0.4c-0.2,0-0.4,0-0.6,0.1h-0.4
		l-0.4,0.1c-0.5,0.1-1,0.4-1.4,0.7c-0.4,0.3-0.7,0.5-1.1,0.8l-0.3,0.2c-0.1,0-0.2,0.1-0.3,0.1l-0.2,0.1h-0.1c0,0,0,0-0.1,0l-0.3,0.1
		c-0.4,0.1-0.8,0.1-1.2,0.1c-0.5,0-0.9-0.1-1.3-0.2c-0.5-0.1-0.9-0.2-1.4-0.2H8.7c-0.2,0-0.4-0.1-0.6-0.2c-0.4-0.2-0.7-0.5-1.1-0.8
		c-0.3-0.3-0.7-0.6-1-0.9c-0.6-0.7-1.3-1.4-1.8-2.1v-0.1H4.1l-0.4-0.1c-0.2,0-0.3-0.1-0.4-0.1L3,144.8c-0.1-0.1-0.2-0.1-0.3-0.2
		l-0.3-0.3l-0.3-0.3l-0.2-0.3c-0.1-0.1-0.2-0.2-0.2-0.4s-0.3-0.5-0.4-0.7s-0.2-0.5-0.3-0.8l-0.6-1.5c0-0.1-0.1-0.3-0.1-0.4v-0.4
		v-0.4c0-0.1,0-0.3,0.1-0.4l0.1-0.4l0.1-0.4l0.1-0.4l0.2-0.4c0.4-1,0.9-2,1.4-2.9v-0.1l0.2-0.5c0-0.2,0.1-0.3,0.2-0.5
		c0.1-0.2,0.1-0.3,0.2-0.5l0.2-0.4l0.3-0.4c0.1-0.1,0.2-0.3,0.3-0.4c0.1-0.1,0.2-0.3,0.3-0.4l0.3-0.4c0.1-0.1,0.2-0.3,0.3-0.4
		c0.1-0.1,0.2-0.3,0.3-0.4l0.3-0.4c0.1-0.1,0.3-0.2,0.4-0.4c0.2-0.2,0.5-0.5,0.8-0.7c0.3-0.2,0.6-0.4,0.8-0.6l0.1-0.1v0
		c0-0.2,0-0.5,0-0.7l0.1-0.4c0-0.1,0.1-0.2,0.1-0.3c0.1-0.1,0.1-0.2,0.2-0.3c0.1-0.1,0.2-0.2,0.2-0.3l0.3-0.2
		c0.1-0.1,0.2-0.1,0.3-0.2c0.4-0.2,0.9-0.4,1.4-0.5c0.2,0,0.5-0.1,0.7-0.1c0.2,0,0.5,0,0.7,0c0.7,0.5,1.5,0.9,2.3,1.3
		c0.4,0.1,0.7,0.2,1.1,0.2h0.3c0.1,0,0.3,0,0.4,0c0.3,0,0.5-0.1,0.8-0.2l0.3-0.1l0.3-0.1c0.7,0,1.4,0.1,2.1,0.2l0,0
		c0.1,0,0.2,0.1,0.3,0.1c0.1,0.1,0.2,0.1,0.2,0.2C19.4,126.8,19.6,127,19.6,127.3z M44.8,91.4l-0.3-0.4l-0.3-0.4
		c-0.2-0.3-0.4-0.5-0.6-0.8S43.2,89.3,43,89c-0.1-0.1-0.2-0.2-0.4-0.4c-0.1-0.1-0.2-0.2-0.4-0.3c-0.2-0.2-0.4-0.3-0.6-0.4
		c-0.2-0.2-0.5-0.4-0.8-0.6s-0.5-0.3-0.7-0.5l-0.8-0.5c-0.1-0.1-0.3-0.1-0.5-0.2s-0.3-0.1-0.5-0.2l-1-0.4c-0.3-0.1-0.7-0.3-1-0.4
		c-0.3-0.1-0.7-0.2-1-0.3l-0.9-0.3c-0.3-0.1-0.6-0.1-0.8-0.2s-0.5-0.1-0.7-0.1L32.2,84L31.7,84l-0.1,0.4c0.2,0,0.3,0.1,0.5,0.1
		l0.6,0.1c0.2,0.1,0.4,0.1,0.7,0.2s0.5,0.1,0.8,0.3s0.6,0.2,0.9,0.3l1,0.4l1,0.4l1,0.4c0.3,0.1,0.6,0.3,0.9,0.5l0.8,0.4
		c0.1,0.1,0.2,0.1,0.4,0.2c-0.5,0.6-1.1,1.3-1.6,1.9l-0.4,0.5l-0.5,0.5l-0.8,1.1L36,92.8L35.2,94c-0.5,0.8-1.1,1.5-1.6,2.3l-1.5,2.4
		c-0.5,0.8-1,1.6-1.4,2.4l-0.7,1.2l-0.7,1.2c-0.4,0.8-0.9,1.6-1.3,2.4l-1.3,2.5l-1.3,2.5c-0.4,0.8-0.8,1.7-1.2,2.5l-0.6,1.3
		l-0.6,1.3l-1.1,2.5c-0.4,0.8-0.8,1.7-1.1,2.6s-0.7,1.7-1,2.6s-0.6,1.5-0.9,2.4c-0.2-0.1-0.4-0.1-0.6-0.2c-0.5-0.1-1.1-0.1-1.6-0.1
		l-0.5,0.2l-1.4,0.4h-0.2c-0.1,0-0.2,0-0.3,0s-0.2,0-0.3-0.1c-0.1,0-0.3-0.1-0.4-0.1c-0.1,0-0.2-0.1-0.3-0.1l-0.3-0.2
		c-0.1-0.1-0.2-0.1-0.3-0.2c-0.2-0.2-0.4-0.3-0.6-0.5c-0.2-0.1-0.3-0.2-0.5-0.2h-0.1c0.5-2.7,1-5.4,1.5-8.1s1.1-5.5,1.7-8.2l0.9-4.1
		l1-4l1.1-4l1.1-4c0.4-1.3,0.8-2.6,1.3-4s0.9-2.6,1.4-3.9c0.9-2.6,2-5.2,3.1-7.7s2.3-5,3.7-7.5s2.6-4.9,4-7.3
		c0.6-1.2,1.4-2.4,2.2-3.5c0.4-0.5,0.8-1,1.3-1.4c0.5-0.4,1-0.8,1.6-1.2l0.9-0.6l0.4-0.3l0.2-0.1l0.2-0.1c0.6-0.3,1.2-0.6,1.8-0.8
		c1.3-0.4,2.6-0.7,3.9-0.8c2.7-0.3,5.5-0.4,8.2-0.3c1.4,0.1,2.8,0.1,4.1,0.2l2.1,0.2l2,0.3c2.7,0.4,5.4,1.1,8,1.9
		c5.2,1.7,10.1,4.3,14.4,7.7c2,1.6,3.8,3.4,5.5,5.4c-4.2,0.8-8.2,1.9-12.3,3.3c-2.1,0.7-4.1,1.5-6.1,2.3s-4,1.8-5.9,2.8
		s-3.8,2.1-5.6,3.3s-3.6,2.5-5.3,3.8c-1.7,1.4-3.3,2.8-4.8,4.4c-0.8,0.8-1.5,1.6-2.2,2.4c-0.5,0.6-1,1.3-1.5,2c0,0,0-0.1,0-0.1
		l-0.2-0.5C45.1,92,45,91.6,44.8,91.4L44.8,91.4z M98.1,81.7c-0.1,0.2-0.2,0.5-0.4,0.6c-0.1,0.1-0.2,0.2-0.3,0.3
		c-0.1,0.1-0.2,0.2-0.4,0.2L96.7,83l-0.4,0.1l-0.5,0.1l-0.5,0.1c-0.7,0.2-1.4,0.4-2,0.7l-1,0.4l-1,0.4c-2.7,1-5.3,2.2-7.9,3.4
		c-5.2,2.4-10.1,5.2-14.9,8.3c-4.8,3.1-9.3,6.5-13.5,10.3c-0.6,0.1-1.2,0.1-1.8-0.1c-0.5-0.2-1-0.6-1.4-1.1c-0.8-1-1.6-2.1-2.4-3.2
		s-1.6-2.1-2.4-3.1s-1.7-2-2.6-3c0-0.2,0-0.4,0-0.7c0-0.2,0.1-0.5,0.2-0.7c0.1-0.2,0.2-0.4,0.3-0.6c0.1-0.2,0.3-0.4,0.5-0.6
		c0.6-0.9,1.3-1.7,2-2.6c0.7-0.8,1.4-1.6,2.2-2.4c1.5-1.5,3.1-2.9,4.8-4.3c1.7-1.3,3.5-2.6,5.3-3.7s3.7-2.2,5.6-3.2s3.9-1.9,5.9-2.7
		s4-1.6,6.1-2.2c4.1-1.3,8.3-2.4,12.5-3.2c0.6,0,1.3,0,1.9,0.2c0.1,0,0.3,0.1,0.4,0.2l0.2,0.1l0,0l0.1,0.1c0.2,0.2,0.4,0.5,0.6,0.8
		c0.8,1.1,1.5,2.4,2.2,3.6s1.4,2.5,2,3.7l1,1.9C98.2,80.6,98.3,81.2,98.1,81.7L98.1,81.7z"/>
	<path class="st1" d="M50.1,71.7c0-1.5,1-2.8,2.5-3.2c-1.7-0.5-3.5,0.6-4,2.3c-0.5,1.7,0.6,3.5,2.3,4c0.5,0.1,1.1,0.1,1.6,0
		C51.1,74.5,50.1,73.2,50.1,71.7z"/>
	<path class="st1" d="M60.7,60.8c-0.9-1.2-0.9-2.8,0.1-4c-1.6,0.7-2.4,2.7-1.7,4.3c0.7,1.6,2.7,2.4,4.3,1.7c0.4-0.2,0.8-0.5,1.2-0.9
		C63.2,62.5,61.6,62,60.7,60.8z"/>
	<path class="st1" d="M79.2,65.3c-0.6-0.8-0.5-1.8,0.1-2.5c-1.1,0.4-1.6,1.6-1.2,2.7s1.6,1.6,2.7,1.2c0.4-0.1,0.7-0.4,0.9-0.7
		C80.8,66.3,79.8,66,79.2,65.3z"/>
	<path class="st1" d="M38.7,60.8c0.4-1.1,1.4-1.9,2.6-1.8c-1.2-0.8-2.8-0.4-3.6,0.8s-0.4,2.8,0.8,3.6c0.4,0.2,0.8,0.4,1.3,0.4
		C38.8,63.2,38.4,62,38.7,60.8z"/>
	<path class="st1" d="M32.1,91c0.4-1.4,1.8-2.4,3.3-2.3c-1.5-1-3.5-0.6-4.5,0.9c-1,1.5-0.6,3.5,0.9,4.5c0.5,0.3,1.1,0.5,1.7,0.5
		C32.3,94,31.7,92.4,32.1,91z"/>
	<path class="st1" d="M18.8,109.6c0.4-1.4,1.8-2.4,3.3-2.3c-1.5-1-3.5-0.6-4.5,0.9c-1,1.5-0.6,3.5,0.9,4.5c0.5,0.3,1.1,0.5,1.7,0.5
		C19,112.5,18.4,111,18.8,109.6z"/>
	<path class="st1" d="M47.2,82.2c0.6-0.7,1.7-1,2.6-0.6c-0.7-1-2-1.2-3-0.5c-1,0.7-1.2,2-0.5,3c0.2,0.3,0.5,0.5,0.8,0.7
		C46.6,84,46.6,82.9,47.2,82.2z"/>
	<path class="st1" d="M34.9,76c-1.5-0.3-2.5-1.6-2.6-3.1c-0.8,1.6-0.1,3.6,1.5,4.4s3.6,0.1,4.4-1.5c0.2-0.5,0.4-1,0.3-1.6
		C37.9,75.6,36.4,76.4,34.9,76z"/>
	<polygon class="st1" points="24.9,97 25.7,98.7 27.6,99 26.2,100.4 26.6,102.3 24.9,101.4 23.2,102.3 23.5,100.4 22.1,99 24,98.7 	
		"/>
	<polygon class="st1" points="25.4,80.6 26.3,82.4 28.2,82.6 26.8,84 27.1,85.9 25.4,85 23.7,85.9 24.1,84 22.7,82.6 24.6,82.4 	"/>
	<polygon class="st1" points="58.6,67.3 59.5,69.1 61.4,69.4 60,70.7 60.3,72.6 58.6,71.7 56.9,72.6 57.3,70.7 55.9,69.4 57.8,69.1 
			"/>
	<polygon class="st1" points="43,67.3 43.8,69.1 45.8,69.4 44.4,70.7 44.7,72.6 43,71.7 41.3,72.6 41.6,70.7 40.2,69.4 42.1,69.1 	
		"/>
	<polygon class="st1" points="71.1,66.7 71.7,67.8 72.9,68 72,68.9 72.2,70.2 71.1,69.6 69.9,70.2 70.2,68.9 69.2,68 70.5,67.8 	"/>
	<polygon class="st1" points="22.7,90.4 23.3,91.5 24.5,91.7 23.6,92.6 23.8,93.9 22.7,93.3 21.5,93.9 21.8,92.6 20.8,91.7 
		22.1,91.5 	"/>
	<polygon class="st1" points="16.8,119.2 17.3,120.3 18.6,120.5 17.7,121.4 17.9,122.7 16.8,122.1 15.6,122.7 15.8,121.4 
		14.9,120.5 16.2,120.3 	"/>
	<polygon class="st1" points="49.8,55.2 50.9,57.5 53.5,57.9 51.6,59.7 52.1,62.3 49.8,61.1 47.5,62.3 47.9,59.7 46,57.9 48.6,57.5 
			"/>
	<path class="st4" d="M183.3,47.5L207.1,13v-0.2h-21.6v-7h32.7v5l-23.4,34.1v0.3h23.8v7h-35.1V47.5z"/>
	<path class="st4" d="M147.9,25.5l14.5-21.1V4.3h-13.2V0h19.9v3l-14.3,20.9v0.2h14.5v4.3h-21.4V25.5z"/>
	<path class="st4" d="M130.6,39.5l6-8.7v-0.1h-5.5V29h8.3v1.3l-5.9,8.7l0,0h6v1.8h-8.9V39.5z"/>
</g>
</svg>
