<?xml version="1.0" encoding="utf-8"?>
<!-- Generator: Adobe Illustrator 16.0.0, SVG Export Plug-In . SVG Version: 6.00 Build 0)  -->
<!DOCTYPE svg PUBLIC "-//W3C//DTD SVG 1.1//EN" "http://www.w3.org/Graphics/SVG/1.1/DTD/svg11.dtd">
<svg version="1.1" id="Layer_1" xmlns="http://www.w3.org/2000/svg" xmlns:xlink="http://www.w3.org/1999/xlink" x="0px" y="0px"
	 width="284.501px" height="289.823px" viewBox="126.439 250.222 284.501 289.823"
	 enable-background="new 126.439 250.222 284.501 289.823" xml:space="preserve">
<g id="Ebene_2">
</g>
<g id="Ebene_3">
	<g>
		<polygon fill="#E6CAD4" points="283.725,368.033 282.364,368.775 282.983,369.146 		"/>
		<path fill="#E6CAD4" d="M260.46,371.25h-1.609l0.619,0.495c0,0,1.113,1.361,0,1.114c-1.113-0.248-2.599,0.989-2.599,0.989
			s1.361-0.123,1.732-0.123s1.608-0.124,3.341,0.123c1.732,0.248,2.6-0.866,2.847-0.989c0.247-0.124,0.371-1.114,0-1.114
			s-0.495-0.618,0-0.866c0.495-0.371,0.619-2.723,0.619-2.723s0-1.361,0.123-1.484c0.124,0,2.104-1.485,1.98-1.609
			c-0.124-0.123-0.99,0-0.99-0.495c0-0.618,1.732-0.989,1.732-0.989c-2.723-0.866-4.331,1.732-4.455,1.732s-0.99,4.455-0.99,4.455
			l-1.732-0.124L260.46,371.25z"/>
		<path fill="#E6CAD4" d="M258.728,370.508c0.989,0,1.113-1.485,2.104-1.732c0.866-0.248,1.361-1.732,1.361-1.732l-1.485-0.371
			l-1.113,0.618l-1.485,0.495c0,0,0.124,1.237-1.113,1.485c-1.361,0.371-1.238,0.99-0.99,1.237
			C256.005,371.003,257.738,370.508,258.728,370.508z"/>
		<path fill="#E6CAD4" d="M306.99,332.145c-57.296,0-103.949,46.653-103.949,103.95c0,57.296,46.653,103.95,103.949,103.95
			c57.297,0,103.95-46.654,103.95-103.95C410.94,378.799,364.286,332.145,306.99,332.145z M306.99,532.62
			c-53.212,0-96.524-43.313-96.524-96.524c0-36.383,20.171-68.063,49.995-84.521l4.455-1.732c0,0,0.989,0.866,3.217,0
			s2.476-0.124,3.466,0c0.989,0.123,3.341-0.248,3.341-0.248l-0.619-0.742l1.361-0.495l-0.247,0.742l3.094-1.732l0.495,0.619
			l0.866-1.361l0.618,1.113c0,0,5.445-1.855,6.683-2.722c1.361-0.866,6.064-1.733,7.302-1.485l-2.228-0.742l1.237-0.743l1.237,0.495
			l0.495-0.618l0.742-0.124c0,0-1.237-0.743-2.475-0.866c-0.124,0-0.124,0-0.247,0c4.454-0.619,9.157-0.99,13.735-0.99
			c8.415,0,16.706,1.113,24.503,3.218c0.371,0.371,0.99,0.495,1.608,0.495c1.856,0.494,3.589,1.113,5.445,1.732
			c1.113,0.618,1.979,0.989,1.979,0.989l-1.113,0.248l-3.713-1.361l-0.742,0.495l1.113,0.866l-1.484,0.124l-0.866,0.742
			l-1.485,0.124l-0.99-1.114c0,0-2.722-0.866-2.97-0.742c-0.247,0.124,0.248,0.99-0.866,0.618c-1.113-0.371-1.732-0.618-1.732-0.618
			s0.866,0.371,0,1.732s-1.361,2.475-1.361,2.475l0.495,0.619l-0.99,0.866l-2.846,0.124l1.113,1.237l0.866,1.856l-1.484-0.866
			l-0.124-0.99l-1.485-0.495l-1.113-0.866l0.123,2.97l2.6,2.104c0,0,0,1.113-1.114,0.494c-1.113-0.618-5.692-1.361-5.692-1.361
			s1.979,0.743,1.732,1.361c-0.247,0.619-1.361,0.124-2.228,0c-0.866-0.123-4.455,1.485-4.455,1.485l-1.979,0.742
			c0,0-1.114-0.123-0.743-0.495c0.248-0.371,0.743-0.123,0.743-0.123l-1.732-0.99l0.123,1.361l-0.742,1.113l-0.99-0.123
			l-1.237,0.618c0,0,0.619,1.114-0.247,1.237c-0.867,0.124-2.104-0.494-2.104-0.494l0.248,1.361c0,0-2.352-0.124-2.104-0.743
			c0.248-0.618-0.742-2.97-0.742-2.97s1.856,0.99,2.97,1.113c0.99,0.248,3.342-0.247,3.218-1.237s-4.455-2.104-4.455-2.104
			l-2.599-1.361l1.361-0.247l-1.856-0.866c0,0-5.073,0.866-7.425,1.855c-2.475,0.99-7.178,4.208-7.178,4.208l-5.692,1.484
			l-2.599,2.476l0.124,2.352h1.856l0.866-0.495l1.732-0.866c0,0-0.742,1.361-0.866,2.351c-0.124,0.99-0.124,2.228-0.124,2.228
			l-1.485,0.495l-0.742,0.371l0.99,0.619l0.742-0.495l0.866,0.495l0.866-0.866h1.732l1.609-2.971c0,0,2.475,0,2.97-0.742
			s-0.371-1.113-0.619-1.608c-0.247-0.495-0.247-1.361,2.6-2.847c2.846-1.484,3.712-2.475,3.712-2.475s1.732,0,1.98,0.247
			c0.247,0.248-2.228,1.856-2.228,1.856l-1.856,0.619c0,0,0.495,2.104-1.485,3.094l1.114,0.866c0,0,4.084-0.99,4.95-0.371
			c0.866,0.618,0.247,1.113-0.248,1.113s-1.485,0.248-1.485,0.248s-1.979-0.495-2.227-0.495c-0.248,0.123-1.733,0.618-1.856,0.742
			c0,0,0.989,0.371,0.989,0.866c0.124,0.495-0.371,2.228-1.36,1.485c-0.99-0.619-0.248-1.856-0.248-1.856l-2.97,3.465
			c0,0-1.237,1.237-2.352,0.866c0,0-0.124-0.618-1.484-0.495c-1.361,0.124-1.361,0.99-2.847,0.619l-0.371-0.99l-2.104,0.248
			l-0.866-0.866l0.494-0.867l0.619,0.495l0.371-0.247l0.124-1.608h0.99c0,0-0.248-0.99,0.495-1.485c0,0,0.247-0.619-0.619-0.124
			s-1.361,0.619-1.856,0.495s-1.237,1.856-1.237,1.856l-0.866,1.856c0,0-3.342-0.124-4.084,0.495
			c-0.742,0.618-0.99,1.608-1.856,1.732c-0.866,0.123-1.608,0.247-2.846,1.113s-3.218,1.485-3.342,0.866
			c-0.123-0.618-0.618-0.742-0.742-0.495c-0.124,0.248,0.495,1.609-0.99,1.237c0,0-0.123-0.989-0.866-0.866
			c-0.742,0.124-1.732,0.248-1.484,1.114c0,0,0.618,0.247,0.866,0.866c0.247,0.619,0.742,3.836-2.476,5.939
			c0,0-3.589-0.866-5.073-2.104c-0.495-0.371-1.114-0.247-1.732,0.743c-0.619,0.989-2.104,4.454-3.466,4.949
			c0,0-0.371,0.371-0.494,0.99c-0.124,0.619-0.372,1.114-0.743,1.361s-0.618,1.485,0.248,1.485c0.742,0,0.866-0.371,1.237-0.248
			c0.371,0.124,0.124,0.99-0.124,1.361c-0.124,0.371-0.124,1.114,0.371,0.99c0.619,0,0.743-0.619,1.485-0.495
			s1.113,0.619,1.856,0.495c0.742,0,2.351-1.361,2.723-1.608c0.371-0.248,1.361-0.372,1.361-0.372v-0.989l2.227-2.352
			c0,0,1.609,0,2.104-0.247c0.495-0.248,0.989-0.248,2.104-2.352c0,0,0.619-0.742,1.732-0.124c1.113,0.619,1.485,1.114,1.98,0.866
			c0.494-0.247,2.228-1.361,2.97-1.361c0.618,0,1.113,0.495,1.113,0.866s-0.495,1.237,0,2.104c0.495,0.866,1.485,2.351,1.98,2.599
			c0.371,0.247,1.732,1.732,1.979,2.475c0.248,0.742,0,1.98-0.495,2.104c-0.494,0.124-1.237,0.619-2.227,0.495
			c-0.867-0.247-1.361-0.618-1.733-0.618c-0.371,0-0.989,0.371-0.618,0.989c0.371,0.619,1.979,1.98,2.352,1.856
			c0.371-0.124,0.742-0.247,0.742-0.866s0-0.99,0.618-0.866c0.619,0.124,0.866-0.247,1.238-0.495
			c0.371-0.247,0.866-0.742,1.237-0.742s0.371-0.619-0.248-1.609c0,0-0.123-0.618,0.619-0.742c0.742-0.247,0.99,0.619,1.113,0.866
			c0.124,0.124,0.495,0.248,0.619,0c0.124-0.247-0.495-1.113-1.608-1.979c-1.114-0.866-1.114-0.99-0.124-0.99
			c0,0,0.247-0.495-0.247-0.495c-0.495,0-1.485,0-1.733-0.619c-0.247-0.494,0.124-1.979-0.371-2.475s-0.742-0.742-0.495-1.361
			c0.248-0.618,0.619-1.732,1.361-1.608c0.743,0.124,0.743,0,0.619,0.371s-0.495,1.113-0.495,1.113s0.371,0.372,1.114-0.494
			c0,0-0.372,2.227,0.247,2.599c0.619,0.371,2.352,1.484,2.97,2.599c0.619,1.113,0.371,1.484,0,1.979s0.124,1.98,0.371,2.476
			c0.248,0.495,0.619,0.866,0.372,1.113c-0.248,0.371-0.866,0.866-0.619,1.237c0,0,0.371-0.989,0.99-0.989
			c0.618,0,0.371,0.742,0,1.113s0.495,2.847,1.608,3.218c0,0,0.742-0.742,0-1.98l0.742-0.866l0.99,0.866
			c0,0,0.371-1.484-0.742-2.351c0,0-0.619-0.619,0.247-0.866c0,0-0.495-0.99-0.371-1.361s0.495-1.114,1.485,0.371
			c0,0-0.124-1.361,0.618-1.361c0.866,0,1.856-0.124,2.6,0.866c0,0,1.237,0,2.104-0.371s1.732,0,1.732,0.371
			s0.124,0.866-1.856,0.742c-1.979-0.123-2.475,0.248-2.723,0.743h1.237c0,0-0.866,1.979-0.371,3.217c0,0,0.124,0.495,0.495,0.743
			l0.124,0.989c0,0,0.618-0.371,1.113-0.123c0.495,0.247,0.743,0.866,1.361,0.866c0.619,0,0.99-0.99,1.361-0.99
			s1.609,1.361,2.352,1.361s1.608-0.124,2.228-0.866l1.113-0.124c0,0,0,0.495,0.371,0.371c0.372-0.123,0.619-0.495,0.619-0.495
			h0.495c0,0-0.371,7.054-4.084,9.034c0,0-1.361,0.619-3.465-0.866c0,0-0.495-0.371-2.104,0.618
			c-1.609,0.99-3.465-0.247-4.331-0.618c-0.866-0.495-1.856-0.371-1.856-0.371l-0.743-0.866l-1.361-0.248
			c0,0-0.989-1.484-1.732-1.608c-0.742-0.124-2.722-0.248-3.217,1.113s-0.743,2.476-1.238,2.476
			c-0.371,0.123-1.237,0.618-2.227-1.361l-2.228-0.248c0,0-0.495,0.248-0.495-1.732c0-1.979-1.732-1.855-2.971-1.979
			c-1.237-0.124-2.104-0.619-1.361-1.856c0,0-1.36,0.247-1.484-0.247c-0.124-0.495,0-0.99,1.113-1.238
			c1.114-0.247,0.99-1.608,0.99-1.608s-0.866-0.371-0.371-0.99c0.495-0.495,1.856-1.361,1.856-1.361s-1.237,0.495-1.361,0.371
			c-0.248,0,0-1.237,0-1.237s-0.371-0.371-1.237,0.619c-0.743,0.866-1.485,0-1.609-0.248c-0.123-0.247-0.495-0.618-0.495-0.618
			s-0.247,0.618-0.495,0.618c-0.247,0-0.247-0.618-0.247-0.618s-0.495-0.371-1.113,0.618c-0.619,0.99-1.485-0.742-1.485-0.742
			s-4.331-0.619-6.435,0.619c0,0-1.238,0.866-2.104,0.495c-0.866-0.372-1.979-1.114-2.599-2.228c0,0-1.608,2.475-2.228,2.599
			c-0.618,0.123-1.979-0.248-2.97,0.618s-2.599,4.579-3.465,5.074s-1.98,1.856-3.342,1.361c0,0-2.475,2.723-2.846,3.094
			s-4.084,5.073-4.331,5.444c-0.248,0.372,0,1.609-0.248,2.228c-0.247,0.619-1.485,8.168-3.589,8.663c0,0-0.866,4.826-0.371,6.063
			c0.495,1.238,2.352,4.703,2.475,6.436c0.124,1.732,0.124,5.816,4.332,9.404c0,0,3.341-0.742,4.578,0
			c1.114,0.743,1.485,1.361,2.352,1.238c0.866-0.124,1.608-0.743,4.95-0.619c3.341,0.248,3.341,0.124,3.712,1.114
			c0.372,0.866,0.619,3.341,1.856,3.588c1.114,0.248,2.847-0.123,3.342,0.248c0.618,0.247,1.979,1.732,1.855,3.218
			c-0.123,1.608-1.608,7.177-1.608,7.177l7.425,12.87l-0.618,1.609c0,0,2.228,2.97,1.979,3.836c-0.124,0.742-2.352,3.96-2.352,5.321
			s0,4.084,1.485,5.444c1.361,1.361,3.836,3.713,4.208,4.827c0.371,1.113,1.361,5.321,2.475,6.559s3.96,3.96,3.96,3.96l3.094,3.712
			l-0.99,0.372c0,0,1.609,2.351,3.96,2.351c2.352,0,8.292,0.371,9.158-0.247c0.866-0.619,5.939-5.074,6.063-5.321
			c0.124-0.248,0.124-1.732-0.248-2.476c-0.371-0.742,0.124-1.361,0.495-1.361s4.084-0.123,3.713-1.979
			c-0.495-1.98-1.485-4.702-1.485-4.702s-0.618-0.372,1.732-1.856c2.352-1.485,5.197-2.228,5.569-2.847
			c0.494-0.618,1.855-1.856,1.979-2.723c0-0.866-0.371-0.989-0.371-1.979s-0.124-3.589-1.114-4.95
			c-0.989-1.361-1.36-3.341-1.237-3.96c0.124-0.619-1.484-1.979-0.989-3.094c0.495-1.113,2.475-4.084,2.475-5.321l1.361-0.124
			c0,0,1.113-2.722,3.341-4.826c2.228-2.104,7.549-6.063,8.786-8.044c1.238-1.979,4.95-7.796,5.198-12.622
			c0,0-1.733,1.237-3.218,1.237c-1.485,0-3.342,0-4.208,0.371s-1.608,0.495-2.228,0.248c-0.618-0.124-1.361,1.361-2.104,0.866
			s-1.484-1.98-1.484-1.98l-1.485-0.123l1.113-0.99c0,0,0.743-0.371,0-1.361c-0.866-0.99-5.197-4.702-5.197-4.702l-0.124,0.989
			c0,0-0.618-0.866-0.989-3.712c0,0-0.248-1.361-2.352-2.847c0,0-0.371-3.96-0.618-4.95c-0.124-0.989-0.619-1.237-1.609-1.979
			s-0.495-2.476-0.495-2.476s-1.237-2.475-1.361-3.094c-0.123-0.618-1.113-2.723-1.237-3.712c0,0-2.104-1.732-1.361-3.713
			c0,0,1.609,3.836,2.476,4.084c0,0-0.495-2.723,1.732-3.342c0,0-0.248,2.228-0.99,2.847c0,0,0.866-0.124,1.361,0.99
			c0.495,1.113,1.732,3.588,1.732,3.588v1.98c0,0,1.856,0.248,2.352,1.485c0.494,1.237-0.371,3.218,0.866,4.579
			s1.732,0.742,2.227,1.855c0.495,1.114,0.372,2.228,1.238,3.342c0.866,0.99,1.608,1.979,1.608,1.979s0.371,6.56,1.608,7.178
			c1.238,0.619,3.342-1.237,3.342-1.237h1.361l2.351-1.361l1.114,0.619l1.361-1.361l4.207-1.485v-1.485l2.723-1.361h2.352v-1.608
			l1.979-0.247l0.372-1.361l1.484-0.371v-2.352l1.237-0.742l1.609-2.723c0,0-0.99-2.104-2.228-2.228
			c-1.238-0.124-3.218-0.619-3.342-1.485c-0.123-0.866-0.247-3.589-0.371-3.342c-0.124,0.124-3.589,3.961-3.589,3.961
			s-3.094,1.113-3.96,0l-0.123-3.342l-0.743,2.352l-0.866-0.743l-0.371-3.094c0,0-3.589-1.979-3.465-3.217
			c0.123-1.238,1.361-1.114,2.104-1.114s0.742-0.742,0.742-0.742s2.352,3.96,2.6,3.96c0.123,0,1.732,0.247,1.732,0.247
			s1.732,2.228,3.217,1.98c1.485-0.371,3.342-1.732,3.342-1.732s0.371,2.723,2.351,2.97c1.98,0.247,4.826,0.371,6.064,0
			c1.237-0.371,3.96-0.124,3.96-0.124s0.618-1.237,1.979-0.371c1.361,0.742,5.569,6.064,6.683,6.56
			c0.99,0.494,2.847,1.36,2.847,1.36l0.866-0.618l0.247,2.104l2.228,2.723v2.104c0,0,2.599,4.331,2.723,5.816
			c0,0,1.979,2.228,2.599,3.836c0.495,1.609,1.237,3.713,2.599,3.96l0.619-1.855l1.484-0.619l-0.371-0.495l0.371-1.484h0.619
			l-0.619-2.723l0.619-1.732l-0.866-3.589v-1.732l3.218-3.589l4.578-6.559l-0.494-1.485l1.36-0.248l1.485,0.248
			c0,0,0.371-0.99,0.619-0.99c0.247,0,1.361,0.124,1.361,0.124l0.866-1.361l3.341,3.094v1.361l1.237,0.371
			c0,0-0.371,3.342,0.743,3.589c1.113,0.371,2.351,0,2.846-0.619c0.619-0.742,1.98,2.104,2.352,3.218
			c0.371,1.114,0.495,2.352,0.495,2.352l-0.619,0.124l1.361,1.979v5.94c0,0,0.619-1.361,1.114-0.743
			c0.494,0.619,1.608,2.723,1.855,4.455c0.248,1.732,0.743,4.826,3.342,5.321l-0.371-3.341v-2.476l-3.342-2.599l-1.237-4.455
			l-0.866,0.743l0.124-7.549c0,0,0.618-0.495,0.742,0.494v0.619c0,0,0.866-1.237,1.361-0.495c0.495,0.743,1.237,2.352,1.237,2.352
			l1.856,0.618l0.371,3.342c0,0,3.218-5.321,2.847-8.291c-0.248-2.971-3.094-7.302-5.94-9.034l0.247-5.692l1.733-0.866l0.371,1.484
			l0.618,0.248l-1.732,1.237l0.248,1.485l1.608,0.371l-0.124-2.846l-0.742-1.733l0.124-2.599c0,0,1.608-4.578,1.361-8.91
			c-0.248-4.454-6.683-13.241-6.683-13.241h-1.361l-1.114-2.97l0.372-1.979h-1.114l-0.495,0.989c0,0-2.599-2.104-2.599-2.351
			c0-0.248,0-2.104,0-2.104l1.856,2.104l-0.248-2.228c0,0,1.114-0.495,1.485,0.618c0.371,1.114,1.608,1.485,1.608,1.485l2.476,3.094
			c6.312,9.776,11.014,20.914,13.488,32.67c-0.371-0.495-1.237-1.979-1.484-5.445c0,0-0.495-1.855-1.114,0l1.98,7.426h0.99
			c0.123,0.989,0.371,1.855,0.494,2.846l-1.484-1.732l1.732,3.96c0.495,4.084,0.866,8.168,0.866,12.375
			c0,7.92-0.99,15.593-2.723,23.018l0,0l-1.98,0.371l0.99-1.361l-1.979,0.619l-1.114,1.485l-0.866-0.743l-1.484,0.743v1.608
			c0,0,0.989,0,1.237,0c0.247,0,2.599-0.866,2.599-0.866l2.228-0.495C389.531,501.93,351.787,532.62,306.99,532.62z"/>
		<path fill="#E6CAD4" d="M306,490.669l-0.372,3.96c0,0,0,0-1.113,3.094c-1.114,3.094,2.228,5.445,4.455,5.074
			s4.331-14.107,4.331-14.107l2.352,1.361v-1.856l-1.609-4.455C309.465,490.422,306,490.669,306,490.669z"/>
		<path fill="#E6CAD4" d="M362.43,441.046c0,0,0.742,7.425,1.113,7.425S368.369,445.624,362.43,441.046z"/>
		<path fill="#E6CAD4" d="M396.956,405.529c1.361,0.618-2.352-8.292-2.104-4.826C394.729,400.826,395.595,404.91,396.956,405.529z"
			/>
		<path fill="#E6CAD4" d="M401.287,423.968v6.559C401.287,430.526,403.267,424.463,401.287,423.968z"/>
		<path fill="#E6CAD4" d="M392.872,452.802l-0.371-3.836l-2.847-2.352v1.361c0,0-2.475-2.599-2.599-2.847
			c-0.124-0.247-1.237-1.732-1.237-1.732l-0.619,0.866l-1.361-0.495c0,0-0.123,1.609,0,1.856c0.124,0.124,1.98,1.361,1.98,1.361
			s0,1.609,0.619,1.856c0.618,0.247,1.36,0.371,1.36,0.742s-0.123,1.238,0.372,1.856c0.494,0.619,0.989,1.856,0.989,2.599
			c0,0.743,3.094,4.703,3.342,5.074c0.124,0.371,0.371,1.361,0.371,1.361s0.495-0.248,1.113-0.99
			c0.619-0.742,0.619-4.331,0.619-4.331L392.872,452.802z"/>
		<path fill="#E6CAD4" d="M395.471,453.792c-0.124-0.99-1.113-1.609-1.608-0.866c-0.124,0.123,0.618,2.104,0.618,2.104
			S395.595,454.781,395.471,453.792z"/>
		<polygon fill="#E6CAD4" points="396.585,453.173 395.471,453.792 396.213,455.153 		"/>
		<path fill="#E6CAD4" d="M397.079,449.461l0.619,0.866c0,0-0.247,2.228,0,2.351c0.247,0.124,1.114-0.618,1.114-0.618v1.113
			l0.742-1.113h1.361l-0.371,1.113c0,0,1.113-1.608,1.608-5.445c0.495-3.836,0.495-6.063,0.247-8.414
			c-0.247-2.352,0.372-5.198,0.372-5.198s-1.609-1.361-1.609-2.475l-0.742,6.188l-2.104,4.207l0.123,1.485l-1.237,1.237
			L397.079,449.461z"/>
		<path fill="#E6CAD4" d="M281.002,401.94c0,0,0.99-0.495-1.113-0.495c-1.98,0-1.732-0.495-1.732-0.495s-0.619-0.495-0.866,0
			C277.29,401.074,278.28,402.435,281.002,401.94z"/>
		<path fill="#E6CAD4" d="M290.283,403.549c0.99-0.247,2.228-1.608,2.228-1.608s-0.866-0.495-1.608,0.371
			c0,0-1.608-0.495-1.98,0.495C289.046,402.682,289.417,403.797,290.283,403.549z"/>
		<path fill="#E6CAD4" d="M255.881,390.802c0.866-0.247,0.248-1.237-0.495-1.113c-0.742,0.123-0.495,0.618-0.495,0.618
			S254.891,391.05,255.881,390.802z"/>
		<path fill="#E6CAD4" d="M261.822,392.659c1.608-0.495,1.484-1.856,1.484-1.856s0.371,0,0.371-0.619
			c0-0.494-0.866-0.618-0.866-0.618s-0.989-0.124-1.113,0.618c-0.124,0.743-0.866,1.98-0.866,1.98S260.212,393.154,261.822,392.659z
			"/>
		<path fill="#E6CAD4" d="M263.183,389.07c0.247,0,0.494-0.248,0.989-0.866c0.495-0.619,0.99-1.237,0.99-1.237
			s-0.618-0.743-1.979,0.989C263.183,387.956,262.935,389.07,263.183,389.07z"/>
		<path fill="#E6CAD4" d="M311.445,351.45c-1.237,1.856-0.495,2.723,0.371,3.589s2.971,0,1.98-0.619
			c-0.99-0.618-0.866-2.475-0.371-3.341s3.217-2.104,3.217-2.104C316.148,347.985,312.682,349.718,311.445,351.45z"/>
		<path fill="#E6CAD4" d="M267.266,355.781c1.732-0.247,3.342-0.618,3.342-0.618l1.113-1.98c0,0-2.104-0.124-2.351,0
			c-0.248,0.124-0.619-1.113-0.619-1.113l-3.094,2.599C265.657,354.668,265.41,356.029,267.266,355.781z"/>
		<path fill="#E6CAD4" d="M269.37,358.875l-0.495,1.114c0,0,1.237,0.247,1.361-0.495C270.36,358.628,269.37,358.875,269.37,358.875z
			"/>
		<path fill="#E6CAD4" d="M271.226,361.597c0,0-0.866,0.619-0.989,1.114c-0.124,0.371,1.113-0.248,1.361-0.743
			C271.845,361.473,271.226,361.597,271.226,361.597z"/>
		<path fill="#E6CAD4" d="M297.214,347.614c0.371-0.124,1.237-0.495,1.237-0.495s0.247,0.371,0,0.618
			c-0.248,0.248,0.123,0.619,0.494,0.495c0.372-0.247,0-1.484,0-1.484s0.99,0,1.609,0c0.618,0,1.237-0.866,1.237-0.866
			s-4.455-0.743-4.95-0.248c-0.123,0.248-0.989,1.485-0.989,1.485s-0.371,1.113,0,1.361
			C296.224,348.727,296.842,347.737,297.214,347.614z"/>
		<path fill="#E6CAD4" d="M319.241,344.272l1.113,0.99c0,0,1.608-0.124,1.856,0c0.247,0.124,1.608,0,1.979,0
			c0.372,0,0.99,0.495,0.99,0.495l0.742-0.619c0,0-1.608-0.618-2.228-0.495C323.077,344.767,319.365,343.53,319.241,344.272z"/>
		<path fill="#E6CAD4" d="M317.632,346.005c0.495-0.742-1.113-0.371-1.484,0C316.271,346.005,317.137,346.748,317.632,346.005z"/>
		<path fill="#E6CAD4" d="M310.826,346.377c0.494-0.124,1.732-0.372,1.979-0.495c0.248-0.124,0.248-0.371,0.248-0.371
			s-0.619,0.247-0.99,0.247s-1.98-0.619-1.98-0.247C309.836,345.51,310.331,346.5,310.826,346.377z"/>
		<path fill="#E6CAD4" d="M308.846,345.882c0,0-1.856-0.495-1.856,0c0,0,0.619,0.495,0.866,0.495
			C308.104,346.377,308.846,345.882,308.846,345.882z"/>
	</g>
	<g>
		<polygon fill="#666666" points="245.487,298.114 264.049,373.354 223.953,321.627 227.295,298.361 		"/>
		<g>
			<rect x="127.698" y="251.331" fill="#213067" width="116.573" height="69.919"/>
			<polygon fill="#FFFFFF" points="231.007,251.46 195.739,272.621 195.739,251.46 176.186,251.46 176.186,272.621 140.917,251.46 
				127.676,251.46 127.676,259.133 153.416,274.601 127.676,274.601 127.676,298.114 153.169,298.114 127.676,313.583 
				127.676,321.255 141.165,321.255 176.186,300.094 176.186,321.255 195.615,321.255 195.615,300.218 230.513,321.255 
				244.248,321.255 244.248,313.83 218.138,297.99 244.248,297.99 244.248,274.725 218.509,274.725 244.248,259.133 244.248,251.46 
							"/>
			<polygon fill="#CC2026" points="244.248,279.427 191.655,279.427 191.655,251.46 180.27,251.46 180.27,279.427 127.676,279.427 
				127.676,293.288 180.27,293.288 180.27,321.255 191.655,321.255 191.655,293.288 244.248,293.288 			"/>
			<polygon fill="#CC2026" points="174.948,274.601 166.162,274.601 127.676,251.46 136.339,251.46 			"/>
			<polygon fill="#CC2026" points="166.41,298.114 157.747,298.114 127.676,316.305 127.676,321.255 			"/>
			<polygon fill="#CC2026" points="205.639,298.114 196.853,298.114 235.462,321.255 244.248,321.255 			"/>
			<polygon fill="#CC2026" points="214.301,274.601 205.763,274.601 244.248,251.46 244.248,256.658 			"/>
		</g>
		<g>
			<path fill="#666666" d="M245.487,322.74H126.439v-72.518h119.048V322.74z M128.913,320.265h114.098v-67.568H128.913V320.265z"/>
		</g>
	</g>
	<g>
		<polygon fill="#C8C8C8" points="281.621,326.329 268.998,380.408 294.615,340.436 292.635,326.453 		"/>
		<rect x="281.373" y="298.237" fill="#FFFFFF" width="70.166" height="42.075"/>
		<rect x="281.373" y="326.329" fill="#CC2026" width="70.166" height="13.983"/>
		<rect x="281.373" y="298.114" fill="#CC2026" width="70.166" height="13.983"/>
		<g>
			<path fill="#C8C8C8" d="M352.778,341.55h-72.642v-44.673h72.642V341.55z M282.612,339.075h67.69v-39.724h-67.69V339.075z"/>
		</g>
		<rect x="282.488" y="299.475" opacity="0.5" fill="#FFFFFF" enable-background="new    " width="67.814" height="39.724"/>
	</g>
</g>
</svg>
