<?xml version="1.0" encoding="utf-8"?>
<!-- Generator: Adobe Illustrator 16.0.0, SVG Export Plug-In . SVG Version: 6.00 Build 0)  -->
<!DOCTYPE svg PUBLIC "-//W3C//DTD SVG 1.1//EN" "http://www.w3.org/Graphics/SVG/1.1/DTD/svg11.dtd">
<svg version="1.1" id="Layer_1" xmlns="http://www.w3.org/2000/svg" xmlns:xlink="http://www.w3.org/1999/xlink" x="0px" y="0px"
	 width="207.899px" height="207.9px" viewBox="205.639 220.893 207.899 207.9"
	 enable-background="new 205.639 220.893 207.899 207.9" xml:space="preserve">
<g id="Ebene_2">
</g>
<g id="Ebene_3">
	<g>
		<polygon fill="#E6CAD4" points="286.2,256.781 284.962,257.524 285.581,257.771 		"/>
		<path fill="#E6CAD4" d="M263.059,259.999h-1.608l0.618,0.495c0,0,1.114,1.361,0,1.113c-1.113-0.247-2.599,0.99-2.599,0.99
			s1.361-0.124,1.732-0.124s1.608-0.123,3.342,0.124c1.732,0.248,2.599-0.866,2.846-0.99c0.248-0.123,0.371-1.113,0-1.113
			s-0.495-0.619,0-0.866c0.495-0.371,0.619-2.723,0.619-2.723s0-1.361,0.123-1.485c0.124,0,2.104-1.484,1.98-1.608
			s-0.99,0-0.99-0.495c0-0.618,1.732-0.99,1.732-0.99c-2.723-0.866-4.331,1.732-4.455,1.732c-0.123,0-0.989,4.455-0.989,4.455
			l-1.733-0.123L263.059,259.999z"/>
		<path fill="#E6CAD4" d="M261.326,259.133c0.99,0,1.113-1.485,2.104-1.732c0.866-0.248,1.361-1.732,1.361-1.732l-1.485-0.371
			l-1.113,0.618l-1.485,0.495c0,0,0.124,1.237-1.113,1.485c-1.361,0.371-1.237,0.99-0.99,1.237
			C258.48,259.628,260.336,259.257,261.326,259.133z"/>
		<path fill="#E6CAD4" d="M309.588,220.893c-57.296,0-103.949,46.654-103.949,103.95c0,57.297,46.653,103.95,103.949,103.95
			c57.297,0,103.95-46.653,103.95-103.95C413.538,267.548,366.885,220.893,309.588,220.893z M309.588,421.369
			c-53.212,0-96.524-43.313-96.524-96.525c0-36.382,20.171-68.063,49.995-84.521l4.455-1.733c0,0,0.99,0.866,3.218,0
			c2.227-0.866,2.475-0.123,3.465,0c0.989,0.124,3.341-0.247,3.341-0.247l-0.618-0.742l1.36-0.495l-0.247,0.742l3.094-1.732
			l0.495,0.619l0.866-1.361l0.619,1.113c0,0,5.444-1.856,6.682-2.723c1.361-0.866,6.064-1.732,7.302-1.484l-2.228-0.743l1.237-0.742
			l1.237,0.495l0.495-0.619l0.742-0.123c0,0-1.237-0.743-2.475-0.866c-0.124,0-0.124,0-0.247,0c4.454-0.619,9.157-0.99,13.735-0.99
			c8.415,0,16.707,1.113,24.503,3.218c0.371,0.371,0.99,0.494,1.608,0.494c1.856,0.495,3.589,1.114,5.445,1.732
			c1.113,0.619,1.98,0.99,1.98,0.99l-1.114,0.248l-3.713-1.361l-0.742,0.495l1.114,0.866l-1.485,0.123l-0.866,0.743l-1.485,0.123
			l-0.989-1.113c0,0-2.723-0.866-2.971-0.742c-0.247,0.123,0.248,0.989-0.866,0.618c-1.113-0.371-1.732-0.618-1.732-0.618
			s0.866,0.371,0,1.732s-1.361,2.475-1.361,2.475l0.495,0.619l-0.99,0.866l-2.846,0.123l1.113,1.238l0.866,1.855l-1.484-0.866
			l-0.124-0.989l-1.485-0.495l-1.113-0.866l0.124,2.97l2.599,2.104c0,0,0,1.114-1.114,0.495c-1.113-0.618-5.692-1.361-5.692-1.361
			s1.98,0.743,1.732,1.361c-0.247,0.619-1.361,0.124-2.228,0s-4.455,1.485-4.455,1.485l-1.979,0.742c0,0-1.114-0.124-0.743-0.495
			c0.248-0.371,0.743-0.123,0.743-0.123l-1.732-0.99l0.123,1.361l-0.742,1.113l-0.99-0.124l-1.237,0.619
			c0,0,0.619,1.114-0.247,1.237c-0.866,0.124-2.104-0.495-2.104-0.495l0.248,1.361c0,0-2.352-0.123-2.104-0.742
			c0.247-0.619-0.743-2.97-0.743-2.97s1.856,0.989,2.971,1.113c0.989,0.248,3.341-0.247,3.217-1.237
			c-0.123-0.99-4.455-2.104-4.455-2.104l-2.599-1.361l1.361-0.248l-1.856-0.866c0,0-5.073,0.866-7.425,1.856
			c-2.475,0.99-7.177,4.208-7.177,4.208l-5.693,1.484l-2.599,2.476l0.124,2.351h1.856l0.866-0.495l1.732-0.866
			c0,0-0.742,1.361-0.866,2.352s-0.124,2.228-0.124,2.228l-1.484,0.495l-0.743,0.371l0.99,0.619l0.742-0.495l0.866,0.495
			l0.866-0.866h1.732l1.609-2.971c0,0,2.475,0,2.97-0.742s-0.371-1.113-0.618-1.608c-0.248-0.495-0.248-1.361,2.599-2.847
			c2.846-1.485,3.712-2.475,3.712-2.475s1.732,0,1.98,0.247c0.247,0.248-2.228,1.856-2.228,1.856l-1.856,0.619
			c0,0,0.495,2.104-1.485,3.094l1.114,0.866c0,0,4.084-0.99,4.95-0.372c0.866,0.619,0.247,1.114-0.248,1.114
			s-1.484,0.247-1.484,0.247s-1.98-0.495-2.228-0.495c-0.248,0.124-1.732,0.619-1.856,0.743c0,0,0.99,0.371,0.99,0.866
			c0.123,0.495-0.372,2.228-1.361,1.484c-0.99-0.618-0.248-1.855-0.248-1.855l-2.97,3.465c0,0-1.237,1.237-2.352,0.866
			c0,0-0.123-0.619-1.484-0.495s-1.361,0.99-2.847,0.619l-0.371-0.99l-2.104,0.247l-0.99-0.866l0.495-0.866l0.618,0.495l0.372-0.247
			l0.123-1.609h0.99c0,0-0.247-0.989,0.495-1.484c0,0,0.247-0.619-0.619-0.124s-1.361,0.619-1.855,0.495
			c-0.495-0.124-1.238,1.856-1.238,1.856l-0.866,1.855c0,0-3.341-0.123-4.083,0.495c-0.743,0.619-0.99,1.609-1.856,1.732
			c-0.866,0.124-1.609,0.248-2.847,1.114s-3.218,1.484-3.341,0.866c-0.124-0.619-0.619-0.742-0.743-0.495
			c-0.123,0.247,0.495,1.608-0.989,1.237c0,0-0.124-0.99-0.866-0.866c-0.743,0.124-1.732,0.248-1.485,1.114
			c0,0,0.619,0.247,0.866,0.866c0.247,0.618,0.742,3.836-2.475,5.939c0,0-3.589-0.866-5.074-2.104
			c-0.495-0.371-1.113-0.247-1.732,0.742c-0.619,0.99-2.104,4.455-3.465,4.95c0,0-0.371,0.371-0.495,0.99s-0.371,1.113-0.742,1.361
			c-0.372,0.247-0.619,1.484,0.247,1.484c0.742,0,0.866-0.371,1.237-0.247s0.124,0.99-0.123,1.361
			c-0.124,0.371-0.124,1.113,0.371,0.99c0.618,0,0.742-0.619,1.484-0.495c0.743,0.124,1.114,0.618,1.856,0.495
			c0.742,0,2.352-1.361,2.723-1.609c0.371-0.247,1.361-0.371,1.361-0.371v-0.99l2.228-2.351c0,0,1.608,0,2.104-0.248
			c0.495-0.247,0.99-0.247,2.104-2.351c0,0,0.619-0.743,1.732-0.124c1.114,0.619,1.485,1.113,1.98,0.866s2.228-1.361,2.97-1.361
			c0.619,0,1.114,0.495,1.114,0.866s-0.495,1.237,0,2.104s1.484,2.352,1.979,2.599c0.371,0.248,1.732,1.733,1.98,2.476
			c0.247,0.742,0,1.979-0.495,2.104s-1.237,0.619-2.228,0.495c-0.866-0.247-1.361-0.619-1.732-0.619s-0.99,0.372-0.619,0.99
			c0.371,0.619,1.98,1.98,2.352,1.856s0.742-0.248,0.742-0.866c0-0.619,0-0.99,0.619-0.866c0.618,0.124,0.866-0.248,1.237-0.495
			s0.866-0.742,1.237-0.742s0.371-0.619-0.247-1.609c0,0-0.124-0.618,0.618-0.742c0.743-0.247,0.99,0.619,1.114,0.866
			c0.124,0.124,0.495,0.247,0.618,0c0.124-0.247-0.494-1.113-1.608-1.98c-1.113-0.866-1.113-0.989-0.124-0.989
			c0,0,0.248-0.495-0.247-0.495s-1.485,0-1.732-0.619c-0.248-0.495,0.124-1.979-0.371-2.475s-0.743-0.743-0.495-1.361
			c0.247-0.619,0.618-1.732,1.361-1.608c0.742,0.123,0.742,0,0.618,0.371c-0.123,0.371-0.495,1.113-0.495,1.113
			s0.372,0.371,1.114-0.495c0,0-0.371,2.228,0.247,2.599c0.619,0.372,2.352,1.485,2.971,2.6c0.618,1.113,0.371,1.484,0,1.979
			s0.123,1.98,0.371,2.475c0.247,0.495,0.618,0.867,0.371,1.114c-0.247,0.371-0.866,0.866-0.619,1.237c0,0,0.372-0.99,0.99-0.99
			c0.619,0,0.371,0.743,0,1.114s0.495,2.846,1.609,3.218c0,0,0.742-0.743,0-1.98l0.742-0.866l0.99,0.866
			c0,0,0.371-1.485-0.743-2.352c0,0-0.618-0.618,0.248-0.866c0,0-0.495-0.989-0.371-1.361c0.123-0.371,0.494-1.113,1.484,0.372
			c0,0-0.124-1.361,0.619-1.361c0.866,0,1.856-0.124,2.599,0.866c0,0,1.237,0,2.104-0.371c0.866-0.372,1.732,0,1.732,0.371
			s0.124,0.866-1.856,0.742c-1.979-0.124-2.475,0.247-2.722,0.742h1.237c0,0-0.866,1.98-0.371,3.218c0,0,0.123,0.495,0.495,0.742
			l0.123,0.99c0,0,0.619-0.371,1.114-0.124c0.495,0.248,0.742,0.866,1.361,0.866c0.618,0,0.989-0.989,1.361-0.989
			c0.371,0,1.608,1.361,2.351,1.361c0.743,0,1.609-0.124,2.228-0.866l1.114-0.124c0,0,0,0.495,0.371,0.371s0.618-0.495,0.618-0.495
			h0.495c0,0-0.371,7.054-4.083,9.034c0,0-1.361,0.618-3.466-0.866c0,0-0.494-0.371-2.104,0.618
			c-1.608,0.99-3.465-0.247-4.331-0.618c-0.866-0.495-1.856-0.371-1.856-0.371l-0.742-0.867l-1.361-0.247
			c0,0-0.99-1.485-1.732-1.608c-0.743-0.124-2.723-0.248-3.218,1.113s-0.742,2.476-1.237,2.476
			c-0.371,0.123-1.237,0.618-2.228-1.361l-2.228-0.248c0,0-0.495,0.248-0.495-1.732c0-1.979-1.732-1.856-2.97-1.979
			c-1.237-0.124-2.104-0.619-1.361-1.856c0,0-1.361,0.247-1.485-0.248c-0.123-0.495,0-0.989,1.114-1.237
			c1.113-0.247,0.989-1.608,0.989-1.608s-0.866-0.371-0.371-0.99c0.495-0.495,1.856-1.361,1.856-1.361s-1.237,0.495-1.361,0.371
			c-0.247,0,0-1.237,0-1.237s-0.371-0.371-1.237,0.619c-0.742,0.866-1.485,0-1.608-0.248c-0.124-0.247-0.495-0.618-0.495-0.618
			s-0.248,0.618-0.495,0.618c-0.248,0-0.248-0.618-0.248-0.618s-0.494-0.372-1.113,0.618s-1.485-0.742-1.485-0.742
			s-4.331-0.619-6.435,0.619c0,0-1.237,0.866-2.104,0.494c-0.866-0.371-1.98-1.113-2.599-2.228c0,0-1.609,2.476-2.228,2.6
			c-0.619,0.123-1.98-0.248-2.971,0.618c-0.989,0.866-2.599,4.579-3.465,5.074s-1.979,1.855-3.341,1.361
			c0,0-2.476,2.722-2.847,3.094c-0.371,0.371-4.084,5.073-4.331,5.444s0,1.609-0.247,2.228c-0.248,0.619-1.485,8.168-3.589,8.663
			c0,0-0.866,4.826-0.372,6.063c0.495,1.237,2.352,4.702,2.476,6.435s0.124,5.816,4.331,9.405c0,0,3.342-0.742,4.579,0
			c1.113,0.742,1.484,1.361,2.351,1.237c0.866-0.123,1.609-0.742,4.95-0.618c3.342,0.247,3.342,0.123,3.713,1.113
			c0.371,0.866,0.618,3.342,1.856,3.589c1.113,0.247,2.846-0.124,3.341,0.247c0.619,0.248,1.98,1.733,1.856,3.218
			c-0.124,1.609-1.609,7.178-1.609,7.178l7.426,12.87l-0.619,1.608c0,0,2.228,2.97,1.98,3.836c-0.124,0.743-2.352,3.961-2.352,5.321
			c0,1.361,0,4.084,1.485,5.445c1.36,1.361,3.836,3.713,4.207,4.826c0.371,1.114,1.361,5.321,2.475,6.559
			c1.114,1.238,3.96,3.96,3.96,3.96l3.094,3.713l-0.989,0.371c0,0,1.608,2.352,3.96,2.352c2.351,0,8.291,0.371,9.157-0.248
			c0.866-0.618,5.94-5.073,6.063-5.321c0.124-0.247,0.124-1.732-0.247-2.475s0.124-1.361,0.495-1.361s4.083-0.124,3.712-1.979
			c-0.495-1.98-1.484-4.703-1.484-4.703s-0.619-0.371,1.732-1.856c2.351-1.484,5.197-2.228,5.568-2.846
			c0.495-0.619,1.856-1.856,1.979-2.723c0-0.866-0.371-0.99-0.371-1.98c0-0.989-0.123-3.588-1.113-4.949s-1.361-3.342-1.237-3.96
			c0.123-0.619-1.485-1.98-0.99-3.094c0.495-1.114,2.475-4.084,2.475-5.321l1.361-0.124c0,0,1.114-2.723,3.342-4.826
			s7.549-6.063,8.786-8.044c1.237-1.979,4.95-7.796,5.197-12.622c0,0-1.732,1.237-3.218,1.237c-1.484,0-3.341,0-4.207,0.371
			s-1.609,0.495-2.228,0.247c-0.619-0.123-1.361,1.361-2.104,0.866c-0.743-0.494-1.485-1.979-1.485-1.979l-1.485-0.124l1.114-0.99
			c0,0,0.742-0.371,0-1.36c-0.866-0.99-5.197-4.703-5.197-4.703l-0.124,0.99c0,0-0.619-0.866-0.99-3.713
			c0,0-0.247-1.361-2.352-2.846c0,0-0.371-3.96-0.618-4.95c-0.124-0.99-0.619-1.237-1.608-1.98c-0.99-0.742-0.495-2.475-0.495-2.475
			s-1.237-2.475-1.361-3.094s-1.114-2.723-1.237-3.713c0,0-2.104-1.732-1.361-3.712c0,0,1.608,3.836,2.475,4.084
			c0,0-0.495-2.723,1.732-3.342c0,0-0.247,2.228-0.99,2.847c0,0,0.866-0.124,1.361,0.99c0.495,1.113,1.732,3.588,1.732,3.588v1.98
			c0,0,1.856,0.247,2.352,1.485c0.495,1.237-0.371,3.217,0.866,4.578c1.361,1.361,1.732,0.743,2.228,1.856s0.371,2.228,1.237,3.341
			c0.866,0.99,1.608,1.98,1.608,1.98s0.372,6.559,1.609,7.178c1.237,0.618,3.341-1.237,3.341-1.237h1.361l2.352-1.361l1.113,0.618
			l1.361-1.361l4.208-1.484v-1.485l2.722-1.361h2.352v-1.732l1.98-0.247l0.371-1.361l1.484-0.371v-2.352l1.238-0.742l1.608-2.723
			c0,0-0.99-2.104-2.228-2.228c-1.237-0.124-3.218-0.619-3.341-1.485c-0.124-0.866-0.248-3.589-0.372-3.341
			c-0.123,0.123-3.588,3.96-3.588,3.96s-3.094,1.113-3.96,0l-0.124-3.342l-0.742,2.352l-0.867-0.742l-0.371-3.094
			c0,0-3.588-1.98-3.465-3.218c0.124-1.237,1.361-1.114,2.104-1.114c0.743,0,0.743-0.742,0.743-0.742s2.351,3.96,2.599,3.96
			c0.124,0,1.732,0.248,1.732,0.248s1.732,2.228,3.218,1.979c1.484-0.371,3.341-1.732,3.341-1.732s0.371,2.723,2.352,2.97
			c1.979,0.248,4.826,0.371,6.063,0s3.96-0.123,3.96-0.123s0.619-1.238,1.98-0.372c1.361,0.743,5.568,6.064,6.682,6.56
			c0.99,0.494,2.847,1.36,2.847,1.36l0.866-0.618l0.248,2.104l2.227,2.723v2.104c0,0,2.6,4.331,2.723,5.816
			c0,0,1.98,2.228,2.599,3.836c0.495,1.609,1.238,3.713,2.6,3.96l0.618-1.855l1.485-0.619l-0.371-0.495l0.371-1.484h0.618
			l-0.618-2.723l0.618-1.732l-0.866-3.589v-1.732l3.218-3.589l4.579-6.559l-0.495-1.485l1.361-0.247l1.484,0.247
			c0,0,0.372-0.99,0.619-0.99c0.248,0,1.361,0.124,1.361,0.124l0.866-1.361l3.341,3.094v1.361l1.238,0.371
			c0,0-0.371,3.342,0.742,3.589c1.113,0.371,2.352,0,2.847-0.619c0.618-0.742,1.979,2.104,2.351,3.218
			c0.371,1.114,0.495,2.352,0.495,2.352l-0.618,0.123l1.36,1.98v5.94c0,0,0.619-1.361,1.114-0.743
			c0.495,0.619,1.608,2.723,1.856,4.455c0.247,1.732,0.742,4.826,3.341,5.321l-0.371-3.341v-2.476l-3.342-2.599l-1.237-4.455
			l-0.866,0.743l0.124-7.549c0,0,0.619-0.495,0.742,0.494v0.619c0,0,0.866-1.237,1.361-0.495c0.495,0.743,1.237,2.352,1.237,2.352
			l1.856,0.618l0.371,3.342c0,0,3.218-5.321,2.847-8.291c-0.247-2.971-3.094-7.302-5.94-9.034l0.248-5.692l1.732-0.866l0.371,1.485
			l0.619,0.247l-1.114,1.485l0.248,1.484l1.608,0.371l-0.124-2.846l-0.742-1.732l0.124-2.599c0,0,1.608-4.579,1.361-8.91
			c-0.248-4.455-6.683-13.241-6.683-13.241h-1.361l-1.114-2.97l0.372-1.98h-1.114l-0.495,0.99c0,0-2.599-2.104-2.599-2.352
			c0-0.247,0-2.104,0-2.104l1.856,2.104l-0.248-2.228c0,0,1.114-0.495,1.485,0.619c0.371,1.113,1.608,1.484,1.608,1.484l2.476,3.094
			c6.312,9.776,11.014,20.914,13.488,32.67c-0.371-0.494-1.237-1.979-1.484-5.444c0,0-0.495-1.856-1.114,0l1.98,7.425h0.989
			c0.124,0.99,0.372,1.856,0.495,2.847l-1.484-1.733l1.732,3.961c0.495,4.083,0.866,8.167,0.866,12.375
			c0,7.92-0.99,15.592-2.723,23.017l0,0l-1.98,0.372l0.99-1.361l-1.979,0.618l-1.114,1.485l-0.866-0.742l-1.485,0.742v1.608
			c0,0,0.99,0,1.238,0c0.247,0,2.599-0.866,2.599-0.866l2.228-0.495C392.13,390.678,354.386,421.369,309.588,421.369z"/>
		<path fill="#E6CAD4" d="M308.599,379.294l-0.372,3.96c0,0,0,0-1.113,3.094s2.228,5.445,4.455,5.074
			c2.228-0.372,4.331-14.107,4.331-14.107l2.352,1.36v-1.855l-1.609-4.455C311.94,379.047,308.599,379.294,308.599,379.294z"/>
		<path fill="#E6CAD4" d="M365.029,329.67c0,0,0.742,7.426,1.113,7.426C366.514,337.095,370.845,334.373,365.029,329.67z"/>
		<path fill="#E6CAD4" d="M399.555,294.277c1.361,0.619-2.352-8.291-2.104-4.826C397.327,289.451,398.194,293.659,399.555,294.277z"
			/>
		<path fill="#E6CAD4" d="M403.886,312.717v6.559C403.886,319.151,405.866,313.088,403.886,312.717z"/>
		<path fill="#E6CAD4" d="M395.471,341.55l-0.371-3.836l-2.847-2.352v1.361c0,0-2.475-2.599-2.599-2.846
			c-0.123-0.248-1.237-1.732-1.237-1.732l-0.619,0.866l-1.36-0.495c0,0-0.124,1.608,0,1.856c0.123,0.123,1.979,1.361,1.979,1.361
			s0,1.608,0.619,1.855c0.618,0.248,1.361,0.372,1.361,0.743s-0.124,1.237,0.371,1.856c0.495,0.618,0.989,1.855,0.989,2.599
			c0,0.742,3.094,4.702,3.342,5.073c0.124,0.371,0.371,1.361,0.371,1.361s0.495-0.247,1.114-0.99
			c0.618-0.742,0.618-4.331,0.618-4.331L395.471,341.55z"/>
		<path fill="#E6CAD4" d="M398.07,342.417c-0.124-0.99-1.113-1.609-1.608-0.867c-0.124,0.124,0.618,2.104,0.618,2.104
			S398.194,343.53,398.07,342.417z"/>
		<polygon fill="#E6CAD4" points="399.184,341.798 398.07,342.417 398.813,343.777 		"/>
		<path fill="#E6CAD4" d="M399.679,338.085l0.618,0.866c0,0-0.247,2.228,0,2.352c0.248,0.124,1.114-0.619,1.114-0.619v1.114
			l0.742-1.114h1.361l-0.371,1.114c0,0,1.113-1.608,1.608-5.445c0.495-3.836,0.495-6.063,0.248-8.415
			c-0.248-2.351,0.371-5.197,0.371-5.197s-1.609-1.361-1.609-2.475l-0.742,6.188l-2.104,4.207l0.123,1.485l-1.237,1.237
			L399.679,338.085z"/>
		<path fill="#E6CAD4" d="M283.601,290.565c0,0,0.99-0.495-1.113-0.495c-1.98,0-1.732-0.495-1.732-0.495s-0.619-0.495-0.866,0
			C279.765,289.823,280.879,291.06,283.601,290.565z"/>
		<path fill="#E6CAD4" d="M292.882,292.174c0.99-0.247,2.228-1.608,2.228-1.608s-0.866-0.495-1.608,0.371
			c0,0-1.608-0.495-1.98,0.495C291.645,291.431,292.016,292.422,292.882,292.174z"/>
		<path fill="#E6CAD4" d="M258.357,279.552c0.866-0.248,0.247-1.237-0.495-1.114c-0.743,0.124-0.495,0.619-0.495,0.619
			S257.49,279.799,258.357,279.552z"/>
		<path fill="#E6CAD4" d="M264.42,281.408c1.608-0.495,1.484-1.856,1.484-1.856s0.372,0,0.372-0.619
			c0-0.495-0.866-0.618-0.866-0.618s-0.99-0.124-1.114,0.618s-0.866,1.98-0.866,1.98S262.811,281.902,264.42,281.408z"/>
		<path fill="#E6CAD4" d="M265.781,277.695c0.247,0,0.495-0.247,0.989-0.866c0.495-0.619,0.99-1.237,0.99-1.237
			s-0.618-0.743-1.979,0.989C265.781,276.581,265.533,277.695,265.781,277.695z"/>
		<path fill="#E6CAD4" d="M314.043,240.199c-1.237,1.856-0.495,2.723,0.371,3.589c0.867,0.866,2.971,0,1.98-0.619
			s-0.866-2.475-0.371-3.341s3.218-2.104,3.218-2.104C318.746,236.734,315.281,238.343,314.043,240.199z"/>
		<path fill="#E6CAD4" d="M269.741,244.53c1.732-0.247,3.341-0.619,3.341-0.619l1.114-1.979c0,0-2.104-0.124-2.352,0
			s-0.619-1.114-0.619-1.114l-3.094,2.6C268.256,243.293,268.009,244.654,269.741,244.53z"/>
		<path fill="#E6CAD4" d="M271.969,247.5l-0.495,1.114c0,0,1.237,0.247,1.361-0.495C272.958,247.253,271.969,247.5,271.969,247.5z"
			/>
		<path fill="#E6CAD4" d="M273.825,250.346c0,0-0.867,0.618-0.99,1.113c-0.124,0.371,1.113-0.247,1.361-0.742
			C274.444,250.222,273.825,250.346,273.825,250.346z"/>
		<path fill="#E6CAD4" d="M299.813,236.239c0.371-0.124,1.237-0.495,1.237-0.495s0.247,0.371,0,0.618
			c-0.248,0.248,0.123,0.619,0.495,0.495c0.371-0.247,0-1.484,0-1.484s0.989,0,1.608,0s1.237-0.866,1.237-0.866
			s-4.455-0.743-4.95-0.248c-0.123,0.248-0.989,1.485-0.989,1.485s-0.372,1.113,0,1.361
			C298.823,237.352,299.441,236.362,299.813,236.239z"/>
		<path fill="#E6CAD4" d="M321.84,232.897l1.113,0.99c0,0,1.609-0.124,1.856,0s1.608,0,1.979,0c0.372,0,0.99,0.495,0.99,0.495
			l0.743-0.619c0,0-1.609-0.618-2.228-0.495C325.676,233.392,321.963,232.279,321.84,232.897z"/>
		<path fill="#E6CAD4" d="M320.231,234.63c0.495-0.742-1.113-0.371-1.484,0C318.746,234.63,319.736,235.373,320.231,234.63z"/>
		<path fill="#E6CAD4" d="M313.425,235.125c0.495-0.123,1.732-0.371,1.979-0.495c0.248-0.123,0.248-0.371,0.248-0.371
			s-0.619,0.248-0.99,0.248s-1.98-0.619-1.98-0.248C312.435,234.135,312.806,235.125,313.425,235.125z"/>
		<path fill="#E6CAD4" d="M311.445,234.63c0,0-1.856-0.494-1.856,0c0,0,0.619,0.495,0.866,0.495
			C310.702,235.125,311.445,234.63,311.445,234.63z"/>
	</g>
</g>
</svg>
